<svg width="75" height="88" viewBox="0 0 75 88" fill="none" xmlns="http://www.w3.org/2000/svg">
<path d="M37.16 87.68C29.96 87.68 23.56 85.96 17.96 82.52C12.44 79.08 8.08 74.12 4.88 67.64C1.68 61.16 0.0800002 53.28 0.0800002 44C0.0800002 34.72 1.68 26.84 4.88 20.36C8.08 13.88 12.44 8.92 17.96 5.48C23.56 2.04 29.96 0.319994 37.16 0.319994C44.28 0.319994 50.6 2.04 56.12 5.48C61.72 8.92 66.12 13.88 69.32 20.36C72.52 26.84 74.12 34.72 74.12 44C74.12 53.28 72.52 61.16 69.32 67.64C66.12 74.12 61.72 79.08 56.12 82.52C50.6 85.96 44.28 87.68 37.16 87.68ZM37.16 68.24C39.72 68.24 41.96 67.44 43.88 65.84C45.88 64.24 47.44 61.68 48.56 58.16C49.68 54.56 50.24 49.84 50.24 44C50.24 38.08 49.68 33.36 48.56 29.84C47.44 26.32 45.88 23.76 43.88 22.16C41.96 20.56 39.72 19.76 37.16 19.76C34.6 19.76 32.32 20.56 30.32 22.16C28.4 23.76 26.84 26.32 25.64 29.84C24.52 33.36 23.96 38.08 23.96 44C23.96 49.84 24.52 54.56 25.64 58.16C26.84 61.68 28.4 64.24 30.32 65.84C32.32 67.44 34.6 68.24 37.16 68.24Z" fill="#111517"/>
</svg>
