<svg width="82" height="90" viewBox="0 0 70 86" fill="none" xmlns="http://www.w3.org/2000/svg">
<path d="M4.6 86V71.12L36.04 41.72C38.28 39.64 39.92 37.8 40.96 36.2C42.08 34.6 42.8 33.16 43.12 31.88C43.52 30.52 43.72 29.28 43.72 28.16C43.72 25.44 42.8 23.32 40.96 21.8C39.2 20.28 36.52 19.52 32.92 19.52C29.88 19.52 27.04 20.2 24.4 21.56C21.76 22.92 19.6 24.96 17.92 27.68L0.28 17.84C3.4 12.56 7.92 8.32 13.84 5.12C19.76 1.92 26.84 0.319994 35.08 0.319994C41.56 0.319994 47.24 1.36 52.12 3.44C57 5.51999 60.8 8.47999 63.52 12.32C66.32 16.16 67.72 20.68 67.72 25.88C67.72 28.6 67.36 31.32 66.64 34.04C65.92 36.68 64.52 39.52 62.44 42.56C60.44 45.52 57.44 48.84 53.44 52.52L28.48 75.56L24.52 67.16H70V86H4.6Z" fill="#111517"/>
</svg>
