<svg width="82" height="90" viewBox="0 0 70 86" fill="none" xmlns="http://www.w3.org/2000/svg">
<path d="M33.16 85.68C27.32 85.68 21.48 84.96 15.64 83.52C9.88 82.08 4.84 80.04 0.52 77.4L9.16 59.52C12.52 61.76 16.24 63.48 20.32 64.68C24.48 65.88 28.52 66.48 32.44 66.48C36.52 66.48 39.76 65.72 42.16 64.2C44.56 62.68 45.76 60.52 45.76 57.72C45.76 55.24 44.76 53.28 42.76 51.84C40.76 50.32 37.48 49.56 32.92 49.56H22.96V34.56L45.52 10.2L47.8 18.36H4.84V-5.72205e-06H65.56V14.88L43 39.24L31.36 32.64H37.84C48.32 32.64 56.24 35 61.6 39.72C67.04 44.36 69.76 50.36 69.76 57.72C69.76 62.52 68.44 67.04 65.8 71.28C63.24 75.52 59.28 79 53.92 81.72C48.56 84.36 41.64 85.68 33.16 85.68Z" fill="#111517"/>
</svg>
