<svg width="71" height="86" viewBox="0 0 71 86" fill="none" xmlns="http://www.w3.org/2000/svg">
<path d="M33.48 85.68C27.72 85.68 21.92 84.96 16.08 83.52C10.24 82.08 5.2 80.04 0.96 77.4L9.48 59.52C12.92 61.76 16.64 63.48 20.64 64.68C24.72 65.88 28.76 66.48 32.76 66.48C36.76 66.48 40 65.72 42.48 64.2C44.96 62.6 46.2 60.4 46.2 57.6C46.2 55.92 45.72 54.44 44.76 53.16C43.8 51.8 42.16 50.8 39.84 50.16C37.52 49.44 34.2 49.08 29.88 49.08H7.08L11.28 -5.72205e-06H64.8V18.36H19.68L31.8 7.92L29.04 41.04L16.92 30.6H35.52C43.84 30.6 50.52 31.8 55.56 34.2C60.6 36.52 64.28 39.68 66.6 43.68C68.92 47.6 70.08 52.04 70.08 57C70.08 61.96 68.76 66.64 66.12 71.04C63.56 75.36 59.6 78.88 54.24 81.6C48.88 84.32 41.96 85.68 33.48 85.68Z" fill="#111517"/>
</svg>
