<svg width="72" height="88" viewBox="0 0 72 88" fill="none" xmlns="http://www.w3.org/2000/svg">
<path d="M38.96 87.68C31.12 87.68 24.28 86.12 18.44 83C12.68 79.88 8.16 75.24 4.88 69.08C1.68 62.92 0.0800002 55.32 0.0800002 46.28C0.0800002 36.52 1.96 28.24 5.72 21.44C9.56 14.56 14.8 9.32 21.44 5.72C28.16 2.12 35.92 0.319994 44.72 0.319994C49.44 0.319994 53.96 0.879994 58.28 1.99999C62.68 3.04 66.4 4.52 69.44 6.43999L60.8 23.48C58.4 21.8 55.88 20.68 53.24 20.12C50.68 19.48 48.04 19.16 45.32 19.16C38.84 19.16 33.64 21.12 29.72 25.04C25.88 28.96 23.96 34.68 23.96 42.2C23.96 43.56 23.96 45 23.96 46.52C24.04 47.96 24.2 49.44 24.44 50.96L18.44 46.04C20.04 43.08 21.96 40.6 24.2 38.6C26.52 36.6 29.24 35.08 32.36 34.04C35.56 33 39.12 32.48 43.04 32.48C48.32 32.48 53.12 33.6 57.44 35.84C61.84 38 65.36 41.08 68 45.08C70.64 49 71.96 53.64 71.96 59C71.96 64.84 70.48 69.92 67.52 74.24C64.56 78.48 60.6 81.8 55.64 84.2C50.68 86.52 45.12 87.68 38.96 87.68ZM37.52 70.76C39.76 70.76 41.72 70.32 43.4 69.44C45.16 68.56 46.52 67.32 47.48 65.72C48.44 64.12 48.92 62.24 48.92 60.08C48.92 56.88 47.84 54.32 45.68 52.4C43.6 50.48 40.84 49.52 37.4 49.52C35.08 49.52 33.04 49.96 31.28 50.84C29.6 51.72 28.24 52.96 27.2 54.56C26.24 56.16 25.76 58.04 25.76 60.2C25.76 62.28 26.24 64.12 27.2 65.72C28.16 67.24 29.52 68.48 31.28 69.44C33.04 70.32 35.12 70.76 37.52 70.76Z" fill="#111517"/>
</svg>
