<svg width="82" height="90" viewBox="0 0 74 88" fill="none" xmlns="http://www.w3.org/2000/svg">
<path d="M37.08 87.68C29.8 87.68 23.44 86.6 18 84.44C12.56 82.28 8.28 79.24 5.16 75.32C2.12 71.32 0.6 66.64 0.6 61.28C0.6 56 2.12 51.52 5.16 47.84C8.28 44.08 12.56 41.24 18 39.32C23.52 37.32 29.88 36.32 37.08 36.32C44.28 36.32 50.6 37.32 56.04 39.32C61.56 41.24 65.84 44.08 68.88 47.84C72 51.52 73.56 56 73.56 61.28C73.56 66.64 72.04 71.32 69 75.32C65.96 79.24 61.68 82.28 56.16 84.44C50.72 86.6 44.36 87.68 37.08 87.68ZM37.08 71C40.92 71 43.96 70.08 46.2 68.24C48.52 66.4 49.68 63.84 49.68 60.56C49.68 57.36 48.52 54.84 46.2 53C43.96 51.08 40.92 50.12 37.08 50.12C33.24 50.12 30.16 51.08 27.84 53C25.6 54.84 24.48 57.36 24.48 60.56C24.48 63.84 25.6 66.4 27.84 68.24C30.16 70.08 33.24 71 37.08 71ZM37.08 48.08C30.52 48.08 24.72 47.16 19.68 45.32C14.72 43.48 10.8 40.84 7.92 37.4C5.04 33.88 3.6 29.68 3.6 24.8C3.6 19.76 5 15.44 7.8 11.84C10.68 8.24 14.64 5.44 19.68 3.44C24.72 1.36 30.52 0.319994 37.08 0.319994C43.72 0.319994 49.52 1.36 54.48 3.44C59.52 5.44 63.44 8.24 66.24 11.84C69.12 15.44 70.56 19.76 70.56 24.8C70.56 29.68 69.12 33.88 66.24 37.4C63.44 40.84 59.52 43.48 54.48 45.32C49.44 47.16 43.64 48.08 37.08 48.08ZM37.08 34.64C40.12 34.64 42.56 33.88 44.4 32.36C46.24 30.76 47.16 28.6 47.16 25.88C47.16 23 46.2 20.8 44.28 19.28C42.44 17.76 40.04 17 37.08 17C34.12 17 31.72 17.76 29.88 19.28C28.04 20.8 27.12 23 27.12 25.88C27.12 28.6 28.04 30.76 29.88 32.36C31.72 33.88 34.12 34.64 37.08 34.64Z" fill="#111517"/>
</svg>
