<svg width="73" height="88" viewBox="0 0 73 88" fill="none" xmlns="http://www.w3.org/2000/svg">
<path d="M33.8 0.319994C41.72 0.319994 48.56 1.88 54.32 5C60.16 8.12 64.68 12.76 67.88 18.92C71.16 25 72.8 32.6 72.8 41.72C72.8 51.48 70.88 59.8 67.04 66.68C63.28 73.48 58.04 78.68 51.32 82.28C44.68 85.88 36.92 87.68 28.04 87.68C23.4 87.68 18.92 87.12 14.6 86C10.28 84.96 6.56 83.48 3.44 81.56L12.08 64.52C14.48 66.2 16.96 67.36 19.52 68C22.16 68.56 24.84 68.84 27.56 68.84C34.04 68.84 39.2 66.88 43.04 62.96C46.88 59.04 48.8 53.32 48.8 45.8C48.8 44.44 48.8 43.04 48.8 41.6C48.8 40.08 48.68 38.56 48.44 37.04L54.32 41.96C52.88 44.92 51 47.4 48.68 49.4C46.36 51.4 43.64 52.92 40.52 53.96C37.4 55 33.84 55.52 29.84 55.52C24.56 55.52 19.72 54.44 15.32 52.28C11 50.04 7.52 46.96 4.88 43.04C2.24 39.04 0.92 34.36 0.92 29C0.92 23.16 2.4 18.12 5.36 13.88C8.32 9.56 12.28 6.24 17.24 3.92C22.2 1.52 27.72 0.319994 33.8 0.319994ZM35.36 17.24C33.12 17.24 31.16 17.68 29.48 18.56C27.8 19.44 26.44 20.68 25.4 22.28C24.44 23.8 23.96 25.68 23.96 27.92C23.96 31.12 25 33.68 27.08 35.6C29.24 37.52 32.04 38.48 35.48 38.48C37.8 38.48 39.84 38.04 41.6 37.16C43.36 36.28 44.72 35.04 45.68 33.44C46.64 31.84 47.12 29.96 47.12 27.8C47.12 25.72 46.64 23.92 45.68 22.4C44.72 20.8 43.36 19.56 41.6 18.68C39.84 17.72 37.76 17.24 35.36 17.24Z" fill="#111517"/>
</svg>
