<svg width="109" height="90" viewBox="0 0 109 90" fill="none" xmlns="http://www.w3.org/2000/svg">
<g opacity="0.2">
<path d="M15.7907 88.3844L75.1905 1.6156H93.085L33.6852 88.3844H15.7907ZM23.7438 48.5947C19.5188 48.5947 15.7079 47.6444 12.3113 45.7437C8.91462 43.8431 6.26358 41.1161 4.35815 37.5627C2.45272 33.9267 1.5 29.5882 1.5 24.5474C1.5 19.5065 2.45272 15.2094 4.35815 11.656C6.26358 8.1026 8.91462 5.37558 12.3113 3.47493C15.7079 1.49164 19.5188 0.5 23.7438 0.5C28.0518 0.5 31.8626 1.49164 35.1764 3.47493C38.5731 5.37558 41.2241 8.1026 43.1295 11.656C45.1178 15.2094 46.112 19.5065 46.112 24.5474C46.112 29.5056 45.1178 33.8027 43.1295 37.4387C41.2241 41.0747 38.5731 43.8431 35.1764 45.7437C31.8626 47.6444 28.0518 48.5947 23.7438 48.5947ZM23.8681 36.8189C25.9392 36.8189 27.6376 35.8686 28.9631 33.968C30.3714 32.0673 31.0756 28.9271 31.0756 24.5474C31.0756 20.1676 30.3714 17.0274 28.9631 15.1267C27.6376 13.2261 25.9392 12.2758 23.8681 12.2758C21.797 12.2758 20.0158 13.2261 18.5246 15.1267C17.1163 17.0274 16.4121 20.1676 16.4121 24.5474C16.4121 28.9271 17.1163 32.0673 18.5246 33.968C20.0158 35.8686 21.797 36.8189 23.8681 36.8189ZM85.1319 89.5C80.824 89.5 76.9717 88.5497 73.575 86.649C70.2612 84.7484 67.6516 82.0214 65.7462 78.468C63.8408 74.8319 62.888 70.4935 62.888 65.4526C62.888 60.4118 63.8408 56.1147 65.7462 52.5613C67.6516 49.0079 70.2612 46.2809 73.575 44.3802C76.9717 42.3969 80.824 41.4053 85.1319 41.4053C89.4398 41.4053 93.2507 42.3969 96.5645 44.3802C99.9611 46.2809 102.612 49.0079 104.518 52.5613C106.506 56.1147 107.5 60.4118 107.5 65.4526C107.5 70.4935 106.506 74.8319 104.518 78.468C102.612 82.0214 99.9611 84.7484 96.5645 86.649C93.2507 88.5497 89.4398 89.5 85.1319 89.5ZM85.1319 77.7242C87.203 77.7242 88.9427 76.7739 90.3511 74.8733C91.7595 72.9726 92.4637 69.8324 92.4637 65.4526C92.4637 61.0729 91.7595 57.9327 90.3511 56.032C88.9427 54.1314 87.203 53.1811 85.1319 53.1811C83.1436 53.1811 81.4039 54.1314 79.9127 56.032C78.5043 57.9327 77.8001 61.0729 77.8001 65.4526C77.8001 69.8324 78.5043 72.9726 79.9127 74.8733C81.4039 76.7739 83.1436 77.7242 85.1319 77.7242Z" fill="#111517"/>
</g>
</svg>
