<svg width="517" height="517" viewBox="0 0 517 517" fill="none" xmlns="http://www.w3.org/2000/svg">
<g clip-path="url(#clip0_201_34)">
<path d="M341.339 414.983C339.462 414.983 337.634 414.983 335.835 414.983C337.669 414.886 339.506 414.886 341.339 414.983Z" fill="#6A5EEF"/>
<path d="M229.774 345.222C230.751 343.266 231.729 341.409 232.765 339.6C231.876 341.497 230.82 343.354 229.774 345.222Z" fill="#6A5EEF"/>
<path d="M258.02 419.647C266.68 419.539 275.34 419.865 283.968 420.624C275.667 420.038 266.917 419.783 258.02 419.647Z" fill="#6A5EEF"/>
<path d="M261.559 279.215C261.51 279.088 261.647 278.854 261.852 278.6C262.058 278.393 262.251 278.175 262.429 277.945L262.996 277.553L263.29 277.348L263.426 277.25L263.505 277.201C263.505 277.201 263.554 277.201 263.583 277.201L264.717 278.179L266.956 280.135C268.442 281.425 269.889 282.716 271.336 284.046C270.559 283.649 269.805 283.208 269.078 282.725C267.504 281.269 266.555 280.232 265.529 279.255C265.011 278.766 264.482 278.277 263.847 277.798C263.534 277.309 263.163 277.866 262.801 278.14C262.439 278.414 262.009 278.795 261.559 279.215Z" fill="#6A5EEF"/>
<path d="M228.63 347.305L228.581 347.539L227.603 349.495L227.427 349.7C227.799 348.888 228.2 348.097 228.63 347.305Z" fill="#6A5EEF"/>
<path d="M257.717 282.139C257.58 281.865 257.443 281.591 257.12 281.533C258.887 280.346 260.63 279.16 262.351 277.974C262.156 278.189 261.96 278.404 261.813 278.6C260.747 279.685 258.919 280.75 257.717 282.139Z" fill="#6A5EEF"/>
<path d="M227.867 326.078C227.441 327.01 227.148 327.998 226.997 329.011C225.042 331.68 223.086 334.35 220.906 337.615C220.73 338.212 220.104 339.326 219.752 340.549C219.195 341.057 218.648 341.624 218.09 342.24L227.867 325.775L231.26 320.065L237.547 320.182L227.593 336.461L224.826 330.8L227.867 325.775L231.553 319.664C230.439 321.698 229.265 323.751 227.994 325.843L225.003 330.732L227.73 336.344L237.507 320.28L231.397 320.143L227.955 325.795L227.867 326.078Z" fill="#6A5EEF"/>
<path d="M261.852 278.6C261.999 278.404 262.194 278.189 262.39 277.974C262.223 278.193 262.044 278.402 261.852 278.6Z" fill="#6A5EEF"/>
<path d="M228.385 405.196L228.943 406.173C227.398 403.749 225.869 401.311 224.357 398.86C225.706 400.757 227.046 402.937 228.385 405.196Z" fill="#6A5EEF"/>
<path d="M250.022 421.817L267.621 421.524C275.1 421.729 282.443 422.062 289.453 422.756L289.913 422.805L290.518 422.335H288.368L288.671 422.717L289.453 422.795H288.778L288.348 422.345H290.518L290.04 422.785H289.443C276.381 422.531 263.27 422.159 250.022 421.817Z" fill="#6A5EEF"/>
<path d="M341.339 421.221L263.544 286.47L211.686 376.304L237.615 421.221H341.339Z" fill="#6A5EEF"/>
<path d="M273.233 413.878C278.659 413.702 284.095 413.614 289.453 413.565L284.173 415.677L289.472 410.515L294.869 415.804L289.453 413.555C297.93 413.497 306.23 413.438 314.022 413.38L298.721 413.565C306.367 413.477 312.82 413.673 320.622 414.132C318.275 414.689 313.23 414.25 312.008 415.002C304.48 415.002 296.952 414.865 289.453 414.631L294.107 416.586L289.854 412.05L284.916 416.469L289.453 414.65C278.336 414.308 267.288 413.77 256.436 413.272C263.651 411.512 268.129 413.937 273.233 413.878Z" fill="#6A5EEF"/>
<path d="M248.731 418.034C247.617 418.18 246.482 418.278 245.338 418.366L240.313 418.219H239.394C239.335 418.219 239.306 418.219 239.286 418.131L239.208 417.994L238.622 416.88L237.448 414.68L231.465 403.563C232.619 405.675 233.85 407.787 235.112 409.909C236.187 411.727 237.282 413.546 238.378 415.374L239.052 416.528L239.384 417.104L239.56 417.398L239.638 417.535V417.613H239.727C240.616 417.613 241.496 417.613 242.376 417.662C243.256 417.711 244.116 417.74 245.055 417.799C246.326 417.851 247.552 417.929 248.731 418.034Z" fill="#6A5EEF"/>
<path d="M343.168 418.219C337.106 408.54 331.807 396.377 324.934 387.499C330.644 399.232 339.355 415.032 338.192 417.926C337.028 420.82 329.069 402.566 323.858 393.786L324.758 396.386C324.423 395.114 323.827 393.925 323.008 392.896C323.907 395.487 326.107 400.278 326.156 401.969L324.445 400.18C326.293 407.024 332.394 418.425 334.222 425.308C328.952 410.818 320.847 394.861 311.617 378.474L315.392 380.655L308.362 380.577L311.471 374.378L311.617 378.474C303.287 363.691 294.019 348.566 285.151 333.861L289.463 336.344L277.349 336.589L285.992 327.789L284.486 331.358L285.151 333.841L276.273 319.058C274.761 316.646 273.242 314.261 271.717 311.901L270.573 310.141L269.997 309.261L269.498 308.518L268.188 306.768C266.888 304.995 265.439 303.337 263.856 301.811L263.651 301.615L263.544 301.527V301.723L263.153 302.779C262.908 303.463 262.673 304.108 262.468 304.734C262.057 305.976 261.725 307.09 261.49 308.058C261.282 308.87 261.138 309.697 261.06 310.532V310.796L260.962 311.011L260.591 311.891L258.372 317.093C256.778 320.495 252.124 328.209 248.732 333.714L247.108 336.794L247.363 326.45L255.81 341.536L237.732 342.211L247.108 336.794C242.318 345.848 237.576 354.911 233.274 364.102C231.899 366.768 230.491 369.411 229.05 372.031L226.89 375.942L226.753 376.187L226.684 376.314C226.684 376.314 226.596 376.177 226.86 376.646L227.965 378.602L230.165 382.513L239.062 398.44L243.667 406.545L244.84 408.579C244.863 408.615 244.897 408.643 244.938 408.657C244.938 408.657 244.938 408.784 244.938 409.019C244.938 409.253 244.938 409.557 244.987 409.899C245.02 410.244 244.93 410.591 244.733 410.876C244.566 411.066 244.359 411.217 244.127 411.316C243.969 411.391 243.805 411.453 243.638 411.502C243.462 411.502 243.188 411.698 243.1 411.502C243.012 411.307 242.631 411.072 242.376 410.818L241.995 410.407L241.897 410.3C241.836 410.229 241.78 410.154 241.731 410.075L241.193 409.253C239.753 407.057 238.335 404.837 236.94 402.595C234.157 398.124 231.439 393.597 228.786 389.014C230.057 389.699 232.189 394.284 233.851 396.035C232.101 392.544 230.458 389.376 228.767 386.257C227.926 384.703 227.066 383.158 226.176 381.594L224.817 379.218L224.113 378.015L223.917 377.692L223.829 377.546L231.201 389.953L226.234 381.505L223.947 377.595L223.321 376.568L223.155 376.304V376.167L223.223 376.04L223.506 375.502L223.79 374.945L223.937 374.652L224.572 373.508C226.274 370.47 227.949 367.407 229.598 364.317C232.101 359.858 236.442 357.209 238.544 350.081C233.655 357.747 228.63 365.52 223.693 373.4L223.233 374.133L223.174 374.231V374.29L223.096 374.397L222.764 374.847L222.089 375.825L221.913 376.069C221.864 376.157 221.766 376.235 221.845 376.323L222.089 376.832L222.597 377.868L222.861 378.396L223.673 379.863L225.384 382.923L228.855 389.005C228.855 389.005 228.786 389.005 228.757 388.946C233.01 396.113 236.696 402.683 240.744 409.625C239.404 407.513 238.006 405.382 237.019 403.406L238.974 407.317L240.871 410.974L241.624 412.588L242.025 413.409C242.025 413.467 242.083 413.565 242.142 413.595H242.797L244.586 413.682H248.106L256.778 413.8C254.731 413.956 252.678 414.103 250.619 414.24C248.663 414.351 246.708 414.465 244.752 414.582C243.716 414.68 242.621 414.768 241.487 414.846C241.418 414.846 241.34 414.846 241.281 414.846L241.174 414.68L240.949 414.347L240.509 413.673L239.6 412.284L239.101 411.502L238.28 410.133L236.618 407.386L233.333 401.862L226.821 390.686L220.417 379.55L218.657 376.47C218.598 376.343 218.462 376.216 218.481 376.089L218.696 375.708L219.146 374.935L220.026 373.41L225.951 363.007C228.014 359.331 230.038 355.674 231.993 352.037C229.018 356.189 226.349 360.551 224.005 365.089C222.734 367.387 221.473 369.646 220.192 371.728C219.821 372.334 219.694 372.51 219.469 372.843C219.244 373.175 219.039 373.429 218.814 373.713C218.355 374.305 217.862 374.87 217.338 375.404L221.972 367.426L227.77 357.59C231.68 351.026 235.64 344.43 239.649 337.801C239.15 338.847 238.671 339.874 238.241 340.92C239.786 338.73 241.252 336.432 242.67 334.076L237.693 336.95L246.981 337.126L242.807 328.591L242.67 334.076C246.356 327.975 249.7 321.493 253.288 315.558L242.112 333.753L242.239 328.865L245.916 336.481L237.693 336.286L242.112 333.734L239.649 337.782C240.313 336.403 241.037 335.024 241.829 333.577L237.693 335.963L245.603 335.797L241.946 329.011L241.829 333.577C243.051 331.338 244.459 328.982 246.062 326.391C244.304 328.56 242.672 330.829 241.174 333.186L241.272 329.363L243.99 335.572L237.713 335.19L241.174 333.235L240.01 335.005L232.189 348.184C235.122 343.012 237.869 337.801 240.343 332.775L237.674 334.311L242.885 333.968L240.411 329.832L240.333 332.766C241.115 331.172 241.878 329.598 242.591 328.063L239.805 332.453L239.864 330.106L241.604 333.822L237.693 333.685L239.825 332.453C235.073 340.06 230.448 347.93 225.775 355.547L234.32 340.157L239.208 332.111L237.674 333L240.538 333.069L239.258 330.419L239.208 332.111L249.719 314.727L249.191 315.704L250.305 313.749L255.996 304.157C257.414 301.615 258.665 298.838 260.063 295.632L260.826 294.273C260.396 295.495 260.259 296.228 261.178 294.869C261.676 294.184 262.155 293.471 262.634 292.718L263.358 291.554L263.534 291.251C263.534 291.251 263.592 291.085 263.631 291.154L263.729 291.32L264.091 291.945C265.069 293.617 266.046 295.231 267.073 296.922C268.1 298.614 269.165 300.364 270.192 302.212C270.71 303.14 271.17 304.079 271.698 305.037C272.226 305.996 272.578 306.866 273.184 308.156C274.754 311.277 276.528 314.292 278.493 317.181C278.703 317.889 279.11 318.523 279.666 319.009L281.094 321.199C282.179 323.037 283.254 324.885 284.457 326.606C283.401 324.817 282.247 323.008 281.094 321.199L279.852 319.166C280.485 319.635 281.014 320.231 281.406 320.916L270.818 302.045L265.87 293.314L264.609 291.124L263.671 289.482C263.612 289.306 263.544 289.531 263.505 289.589L260.826 294.273C261.178 293.295 261.735 291.916 261.96 291.251L260.063 295.632L256.876 301.351L253.757 307.1C254.089 306.387 254.285 305.878 254.51 305.292C254.735 304.705 254.91 304.138 255.077 303.561L251.097 310.405L246.991 317.543L238.886 331.944V330.615L239.942 332.57H237.645L238.857 331.876L234.271 340.108L223.888 357.072L213.739 373.772L215.245 371.66L216.721 369.538C217.738 368.045 218.748 366.524 219.752 364.972C221.766 361.883 223.751 358.715 225.726 355.498L218.374 368.629L215.079 374.446L214.297 375.815L214.199 375.981C214.199 376.04 214.111 376.099 214.199 376.157L214.394 376.49L214.795 377.174L216.369 379.902L219.928 386.12L223.604 392.681C226.039 397.051 228.444 401.48 230.781 405.88C228.229 403.182 225.218 399.193 223.106 397.804C222.705 398.205 225.755 403.886 223.604 400.796C219.518 395.262 216.546 390.197 213.916 386.13C212.723 384.302 211.041 381.75 209.516 379.726C208.773 378.69 208.01 377.712 207.218 376.793L206.915 376.441L206.758 376.265C206.71 376.206 206.641 376.147 206.68 376.089L206.798 375.385C206.856 374.925 206.905 374.476 206.925 374.026C206.944 373.576 206.016 374.554 204.754 376.118C204.927 377.055 205.148 377.982 205.419 378.895C205.702 379.931 206.006 381.075 206.397 382.209L207.502 385.475L207.941 386.873C207.987 387.115 208.013 387.36 208.02 387.607C208.02 388.428 207.814 388.584 207.042 387.607L203.659 382.16C202.994 381.075 202.447 379.951 201.802 378.758L200.824 376.92L200.57 376.451L200.443 376.206C200.374 376.128 200.491 376.05 200.501 375.972L200.961 374.994L202.916 370.926C203.611 369.518 204.471 368.071 205.272 366.585L206.475 364.415L207.169 363.144L208.587 360.533C209.819 358.578 211.041 356.525 212.292 354.393C212.535 353.946 212.694 353.459 212.762 352.956C216.976 345.388 221.082 338.231 223.516 334.379L226.225 330.106C226.716 329.506 227.285 328.974 227.916 328.522C228.18 327.711 228.483 326.919 228.816 326.146L230.585 321.933L237.625 321.062L228.562 335.885L226.137 332.316L229.06 325.57C231.433 321.757 233.763 317.963 236.05 314.189C237.507 312.233 238.984 310.229 240.401 308.244C240.206 308.186 239.786 308.401 239.844 307.902L244.077 300.804L251.313 288.455L252.828 286.236L253.571 285.258C253.815 284.926 254.05 284.525 254.285 284.505C255.263 284.065 256.123 283.684 256.954 283.381C258.322 281.621 259.887 280.023 261.618 278.619L263.515 277.055C263.593 276.976 263.651 277.113 263.72 277.133L263.925 277.28L264.737 277.866C265.822 278.688 266.966 279.538 268.129 280.408L271.649 283.136L272.529 283.831L272.969 284.173L273.194 284.348L273.409 284.74L275.169 287.839C277.486 291.936 279.744 295.876 281.847 299.386L289.433 312.703C289.681 313.451 289.89 314.211 290.059 314.981C290.92 315.88 291.575 316.936 292.015 317.425C293.765 320.916 295.094 323.956 296.424 327.007L296.639 327.212L297.744 331.348L297.89 331.768L295.251 337.253L289.472 323.076L291.232 322.47L296.639 327.212C297.365 327.759 297.999 328.42 298.516 329.168C299.738 331.416 300.99 333.548 302.241 335.621L306.348 343.179C310.963 351.773 315.401 360.299 319.733 368.775C319.689 369.084 319.528 369.365 319.283 369.558C320.08 370.56 320.777 371.637 321.365 372.774L323.194 375.786L321.59 379.247L315.401 369.333L319.224 369.245L321.365 372.774C321.561 373.087 321.747 373.371 321.932 373.615C321.727 373.439 321.551 373.361 321.444 373.469C324.025 377.008 323.839 378.044 325.599 381.545C326.049 382.307 326.703 382.884 327.202 383.598L327.779 384.752C328.923 389.2 331.484 392.808 333.919 397.1L340.46 410.368C342.22 413.927 342.268 415.618 343.168 418.219Z" fill="#6A5EEF"/>
<path d="M272.382 284.955L272.725 285.287C272.756 285.311 272.786 285.337 272.812 285.365L272.9 285.532L273.076 285.864L273.77 287.164L275.139 289.755L277.838 294.849L280.477 299.846L281.446 301.693L281.651 302.114L282.413 303.649L280.136 299.738C279.158 298.115 278.258 296.531 277.369 294.937C276.479 293.344 275.628 291.73 274.797 290.049C274.387 289.198 273.986 288.318 273.575 287.409C273.272 286.548 272.872 285.725 272.382 284.955Z" fill="#6A5EEF"/>
<path d="M207.991 391.058C208.513 393.066 209.2 395.029 210.044 396.924L205.712 389.298L201.948 382.728C201.254 381.506 200.726 380.303 200.12 379.1L199.23 377.291L198.79 376.392C198.722 376.314 198.79 376.236 198.79 376.167L198.908 375.942L199.132 375.483L200.941 371.865C201.244 371.269 201.538 370.663 201.86 370.056L202.906 368.247L210.738 354.784H210.796C209.662 356.886 208.323 359.164 206.935 361.501L204.334 365.862C203.024 368.111 201.645 370.359 200.619 372.559L198.986 375.825L198.79 376.226C198.79 376.363 198.898 376.49 198.937 376.627L199.338 377.419L200.13 378.993C200.658 380.019 201.108 381.026 201.694 382.014C202.281 383.001 202.867 383.969 203.425 384.859C204.52 386.609 205.839 388.692 206.23 389.112C206.772 389.8 207.36 390.451 207.991 391.058Z" fill="#6A5EEF"/>
<path d="M218.687 410.964C219.664 413.174 220.642 415.442 221.62 417.701L218.071 411.267C218.511 411.57 218.54 411.101 218.687 410.964Z" fill="#6A5EEF"/>
<path d="M215.812 384.644L216.702 386.159L213.945 382.454C214.375 382.962 215.186 383.94 215.812 384.644Z" fill="#6A5EEF"/>
<path d="M496.99 414.983C489.95 414.983 483.097 414.983 476.321 414.983C483.566 414.934 490.635 414.875 496.99 414.983Z" fill="#6A5EEF"/>
<path d="M496.99 425.542L315.508 111.173H211.705L30.1945 425.542H133.88L263.524 200.978L393.177 425.562L496.99 425.542Z" fill="#6A5EEF"/>
<path d="M38.0455 421.035L31.9935 421.113H30.2826C30.2826 421.113 30.2241 421.113 30.1947 421.113C30.1654 421.113 30.1947 421.064 30.1947 421.035L30.3804 420.712L30.7323 420.077L32.1792 417.515L37.9968 407.288C36.1294 410.691 34.2328 414.074 32.3067 417.476L30.8497 420.028L30.4878 420.663L30.3021 420.986C30.3021 420.986 30.2532 421.045 30.3021 421.055H32.0718L38.0455 421.035Z" fill="#6A5EEF"/>
<path d="M141.311 210.96C141.115 211.009 141.311 210.413 141.712 209.562C142.113 208.711 142.552 207.9 142.846 207.225L151.919 192.041L154.656 187.456L159.731 187.534L151.186 199.452L149.895 195.424L151.919 192.041L163.202 173.191C161.628 176.075 160.347 178.852 158.675 181.755C156.016 186.214 154.031 189.372 152.242 192.227L150.286 195.278L151.498 199.335L159.692 187.896L155.018 187.729L152.203 192.227C148.966 197.448 146.258 201.711 141.311 210.96Z" fill="#6A5EEF"/>
<path d="M46.8838 420.986C47.1576 420.986 47.451 420.928 47.7345 420.908C50.446 420.869 53.1282 420.83 55.781 420.791C56.1037 420.791 56.4068 420.791 56.7587 420.791L51.8019 420.879L46.8838 420.986Z" fill="#6A5EEF"/>
<path d="M132.795 225.548C132.423 225.636 132.042 225.734 131.28 226.614L142.768 207.362C142.367 208.174 141.995 208.946 141.712 209.572C139.414 213.962 135.259 220.552 132.795 225.548Z" fill="#6A5EEF"/>
<path fill-rule="evenodd" clip-rule="evenodd" d="M20.5651 421.182L20.6032 420.781L21.2094 414.768V414.308L21.4438 413.927L22.0501 412.901C22.451 412.216 22.8521 411.532 23.2627 410.857L30.3019 399.017L32.2573 395.8L33.5091 393.756L40.871 381.809C41.1518 381.242 41.4829 380.52 41.8668 379.684C42.6156 378.053 43.5651 375.985 44.7331 373.771V380.909L48.0276 384.233L48.091 384.081L48.1451 384.136L55.9667 365.295H55.8769L55.9376 365.148H49.6317C53.0927 359.181 56.4716 353.337 59.7601 347.578L44.7331 373.273V373.39L24.8758 407.494L22.7638 411.141L21.7078 412.969L21.1798 413.878L20.9158 414.328L20.8476 414.445V414.69L20.4466 419.842L20.3447 421.182H20.5651ZM44.8892 373.477C45.2031 372.888 45.5322 372.291 45.877 371.689L46.4145 370.848L49.6704 365.295H55.8769L48.091 384.081L44.8892 380.831V373.477Z" fill="#6A5EEF"/>
<path d="M141.712 209.562C141.995 208.936 142.367 208.164 142.768 207.352L142.846 207.225C142.552 207.949 142.171 208.692 141.712 209.562Z" fill="#6A5EEF"/>
<path d="M215.861 278.961L218.002 275.295L211.725 286.451L202.124 303.434C205.057 298.095 208.235 292.376 211.627 286.392L215.861 278.961Z" fill="#6A5EEF"/>
<path d="M323.77 286.167L335.962 306.973L348.193 327.975L347.949 327.505L397.753 413.34L371.951 369.01L386.108 393.541L392.884 405.44L396.12 411.16L397.528 413.731C398.408 413.731 399.298 413.79 400.197 413.81C402.113 413.81 404.069 413.839 406.063 413.897C410.414 413.956 414.863 414.025 419.419 414.093C416.173 414.299 411.549 414.367 406.787 414.416C404.577 414.416 402.348 414.416 400.217 414.474C399.112 414.474 398.046 414.533 397.088 414.572C396.573 413.715 395.963 412.918 395.269 412.196L371.335 370.477L347.196 327.965L347.421 328.376L321.736 282.755L321.326 282.031L320.641 281.318L321.727 282.755L296.306 237.525L295.837 236.704L295.055 235.892L296.306 237.525L292.816 231.307C294.185 233.36 295.485 235.364 296.727 237.29L295.397 235.57L295.954 236.078L296.727 237.29C308.097 255.251 314.081 268.891 321.805 282.696L320.7 281.239L321.384 281.963L321.805 282.696L323.77 286.167Z" fill="#6A5EEF"/>
<path d="M273.359 207.333C270.651 203.021 268.021 198.347 265.381 193.752L264.345 191.846L263.573 190.389L263.504 190.271C263.504 190.271 263.504 190.193 263.445 190.271L263.318 190.506L257.051 201.73L248.77 215.947L234.75 239.862L235.258 239.197L234.975 239.471L234.75 239.862L213.006 276.879C220.084 264.755 227.231 252.25 234.427 239.676L234.652 239.275L234.994 238.933L234.427 239.676L242.914 224.873L252.094 209.005L254.832 204.292L256.201 201.955L262.947 189.822L263.289 189.225L263.455 188.932C263.455 188.854 263.504 188.932 263.534 189.01L263.611 189.167L264.287 190.418L265.606 192.911L268.236 197.859L270.817 202.747L273.359 207.333Z" fill="#6A5EEF"/>
<path d="M290.235 239.666L290.822 240.644L290.568 240.321L290.714 240.458L290.822 240.644C299.494 255.603 308.147 270.729 316.555 285.668L316.35 285.404L316.477 285.541L316.555 285.668C323.937 298.799 331.133 311.764 338.006 324.377C331.038 311.751 323.849 298.874 316.438 285.747L316.369 285.619L316.252 285.502L316.438 285.747C308.088 270.924 299.504 255.848 290.812 240.644L290.714 240.478L290.568 240.321L290.812 240.644L290.235 239.666Z" fill="#6A5EEF"/>
<path fill-rule="evenodd" clip-rule="evenodd" d="M473.779 374.769C481.484 388.32 489.1 401.676 496.521 414.25C494.78 410.831 493.398 407.955 491.971 404.984C489.614 400.078 487.133 394.913 482.706 386.619L473.994 370.917H473.934L455.858 338.31L449.992 328.121L448.369 325.325H448.205C441.838 314.372 435.903 304.027 430.692 293.207L428.345 288.973C427.696 287.934 427.04 286.927 426.386 285.923C425.737 284.925 425.089 283.931 424.454 282.913C424.447 282.902 424.441 282.892 424.434 282.882C424.014 282.207 423.603 281.533 423.193 280.829C420.74 276.412 419.021 273.163 417.47 270.23C414.527 264.666 412.187 260.24 406.572 251.135C406.572 250.881 406.992 251.34 407.549 252.113C406.402 250.297 405.071 247.985 403.684 245.573C402.625 243.733 401.532 241.835 400.462 240.054L400.49 239.96L398.995 237.652L398.232 236.479C398.389 235.854 398.323 235.194 398.046 234.612L376.366 195.912L376.37 195.903L374.22 192.08L371.981 188.091L371.97 188.091L346.336 142.637H346.268L344.996 140.388L329.069 112.356L320.436 97.4852H299.464C295.986 97.4994 292.8 97.7959 290.457 98.0139C289.567 98.0968 288.798 98.1684 288.182 98.2087L287.97 98.2024C275.653 97.833 263.362 97.4643 248.829 97.231C247.889 97.2918 246.522 97.3307 244.92 97.3763C242.655 97.4408 239.92 97.5187 237.263 97.6905C234.525 97.4559 231.68 97.2605 228.659 97.0942H206.171L184.77 134.062H184.848L179.267 143.795L154.251 186.85H154.197L151.498 191.543C142.797 206.668 135.171 220.288 130.898 229.234C130.291 230.116 129.679 231.018 129.058 231.944L129.03 231.942L127.36 234.502C126.893 235.211 126.421 235.934 125.941 236.675C125.47 237.398 124.993 238.134 124.51 238.883L123.135 241.006L123.143 241.019C121.65 243.364 120.114 245.816 118.55 248.349L96.8053 285.766L96.8113 285.778L87.488 301.782C86.9723 302.963 87.3485 302.665 87.6904 302.395C87.8152 302.296 87.9354 302.201 88.006 302.182L76.3088 321.16H76.2052L73.9422 325L73.5849 325.58L73.2817 326.108L70.6517 330.595L49.8389 366.023L49.6898 366.028L48.2889 368.661L48.2332 368.756L47.0794 370.907L45.642 373.596L45.6431 373.632C44.6538 375.507 43.6822 377.385 42.7284 379.266C41.389 381.007 39.7955 383.334 37.9965 386.111L25.4037 407.513L22.7442 412.069L22.0405 413.262L21.6882 413.868C21.6525 414.019 21.6298 414.173 21.6199 414.328L21.4342 416.127L20.9224 421.182H144.399L144.615 420.449L144.752 419.989V419.872C144.755 419.859 144.757 419.848 144.759 419.839C144.768 419.793 144.768 419.793 144.85 419.793H146.062C146.182 419.806 146.304 419.806 146.424 419.793L146.493 419.676L146.991 418.796L147.969 417.026L155.634 403.495L168.237 381.095L168.559 380.479L168.422 380.753L168.471 380.684L168.549 380.538L168.706 380.254L169.019 379.706L169.615 378.641L170.749 376.627L172.704 373.077L175.872 367.387C178.268 362.899 177.652 363.281 175.511 366.116C174.445 367.544 172.998 369.577 171.355 371.924L168.774 375.639L167.425 377.595L166.741 378.572L166.399 379.071L166.135 379.452V379.509L165.988 379.785C165.584 380.372 165.18 380.959 164.778 381.544C159.182 389.678 153.941 397.297 154.47 395.683C156.952 389.633 159.739 383.714 162.82 377.947L162.937 377.722L164.795 374.182L166.848 370.379L171.297 362.274L181.494 344.117C188.827 331.123 197.148 316.36 206.133 299.66C209.876 292.808 207.77 296.176 205.027 300.564C202.826 304.084 200.216 308.259 199.885 308.342C201.86 303.543 205.891 295.607 210.095 287.331C210.345 286.84 210.595 286.347 210.845 285.854V285.815L210.933 285.698L210.845 285.805V285.815L210.815 285.854L211.269 284.964C213.573 280.449 215.875 275.938 217.875 271.892L209.946 285.356L183.743 330.165L157.687 375.141L157.755 375.014L132.462 419.011L85.9046 419.173L85.6287 418.602L86.3929 419.08L85.964 418.189L86.95 418.806L85.9596 416.8C87.2328 416.805 88.5058 416.81 89.7786 416.815L90.3524 417.173L90.1837 416.816C90.2683 416.816 90.353 416.817 90.4377 416.817L90.773 417.026L90.6827 416.818C102.112 416.859 113.529 416.88 124.934 416.88H131.094C131.153 416.85 131.194 416.774 131.237 416.694C131.265 416.643 131.294 416.59 131.328 416.547L146.932 389.582C143.725 394.49 140.382 399.975 136.882 405.841L132.13 413.878L130.898 415.99L130.8 416.166H126.88C124.277 416.176 121.665 416.192 119.036 416.207C114.289 416.235 109.486 416.264 104.578 416.264H90.4429L90.1616 415.614C90.8419 415.612 91.5224 415.61 92.2032 415.608L92.8654 416.019L92.6534 415.607C105.079 415.57 117.592 415.532 130.194 415.491C130.265 415.501 130.338 415.501 130.409 415.491L130.517 415.306L130.741 414.914L131.191 414.142L135.014 407.464L154.656 373.459L154.47 373.82L206.533 283.586L207.452 282.383L206.913 282.923L232.34 238.483L233.225 237.359L232.648 237.946L232.34 238.483L232.247 238.601L254.548 199.296C254.895 198.7 255.234 198.048 255.579 197.383L255.682 197.184L261.373 186.292L262.507 184.102L263.084 182.997L263.367 182.45V182.46L263.436 182.597L263.582 182.861L270.475 195.61C271.602 197.764 272.724 199.648 273.852 201.542C274.27 202.244 274.689 202.947 275.11 203.667L279.783 211.547L292.337 232.382L279.93 210.755L275.168 202.483L272.792 198.338C272.276 197.458 271.759 196.461 271.24 195.46C270.963 194.926 270.686 194.39 270.407 193.87L264.433 182.44L263.836 181.296L263.534 180.729L263.387 180.436C263.338 180.387 263.324 180.338 263.32 180.339C263.318 180.339 263.318 180.348 263.318 180.367L263.24 180.504L260.845 185.021C259.98 186.627 259.118 188.258 258.255 189.889C255.91 194.325 253.566 198.759 251.185 202.669L242.963 216.758L231.198 236.737L231.191 236.743L231.003 237.068L230.624 237.711L230.647 237.68L230.624 237.721L214.868 264.234C218.17 258.639 221.683 252.388 225.205 246.122C225.857 244.96 226.511 243.798 227.163 242.639L204.88 281.237L204.637 281.484C213.034 266.711 221.332 251.954 229.529 237.212L230.037 236.293L230.121 236.209L229.578 237.193L231.015 235.316L230.121 236.209L240.714 217.032L250.745 199.013L253.043 194.828C253.395 194.183 253.737 193.479 254.069 192.794L255.047 190.839L258.156 184.337C261.617 177.043 262.126 175.175 260.64 177.326C259.897 178.392 258.655 180.455 257.042 183.281L254.353 188.062L252.837 190.809C252.481 191.475 252.116 192.066 251.741 192.672C251.571 192.948 251.398 193.227 251.224 193.518C248.995 197.145 246.541 201.193 244.057 205.387L240.812 210.863L238.983 214.001L227.491 234.019L227.427 234.084L226.596 235.511L200.608 280.379L149.826 367.69L149.025 369.079L148.624 369.783L148.439 370.091L148.467 370.037L126.283 408.559V408.628C124.903 408.636 123.527 408.65 122.153 408.664C120.101 408.685 118.053 408.706 115.998 408.706L92.6992 408.941C91.5554 408.965 90.4116 408.99 89.2668 409.015L81.553 394.001L74.1186 409.282C68.1005 409.395 62.0727 409.506 56.0353 409.615L52.7991 409.664H52.0071L51.342 409.762C50.8532 409.83 50.3155 409.889 49.7289 409.948C49.8701 409.518 50.0431 409.1 50.2469 408.696L50.5797 407.953L50.6775 407.758V407.66C50.728 407.548 50.7865 407.44 50.8532 407.337L62.2176 387.181L82.0911 386.981L69.3673 374.505L71.6786 370.408L88.048 342.416H99.2205L94.1297 331.921C99.7882 322.138 104.733 313.478 107.697 308.068L113.892 296.49L124.582 296.15L119.277 286.507L138.871 250.071L150.139 249.757L143.783 240.99L163.964 203.87L169.85 203.735L167.52 197.336C174.617 184.366 181.845 171.231 189.202 157.932L195.505 157.821L192.518 151.959L214.59 112.327C215.831 112.259 217.093 112.259 218.354 112.259C220.42 112.213 222.489 112.19 224.562 112.19C253.238 112.044 282.706 111.897 312.477 111.75L335.994 151.985L333.752 156.423H338.599L362.207 196.972L360.17 201.164H364.627L388.334 242.174L387.018 246.031H390.613C398.504 259.749 406.252 273.305 413.856 286.698L411.558 291.105L416.418 291.143C424.217 304.886 431.806 318.383 439.187 331.635L436.695 336.54L441.964 336.626C449.618 350.398 456.985 363.824 464.066 376.905L461.998 382.464L467.147 382.604C475.147 397.433 482.689 411.709 489.775 425.435C484.289 414.152 475.852 398.437 467.338 382.61L470.944 382.708L470.622 382.522L470.944 382.532L465.655 379.482L465.79 379.732L465.508 379.57L465.461 379.094C465.529 379.22 465.596 379.346 465.664 379.472L465.166 374.446L465.038 374.788L464.999 374.397L464.155 376.665C456.194 361.854 448.475 347.411 443.343 336.853L448.359 344.371C447.707 342.752 446.367 339.993 444.677 336.671L445.015 336.677L444.54 336.402C444.162 335.659 443.767 334.89 443.358 334.1L444.773 334.163L468.618 376.59L467.952 378.494H469.719C480.399 397.367 488.422 411.101 487.692 407.445C487.066 404.296 480.799 392.124 471.941 375.815L471.657 375.287H471.625C464.807 362.732 456.49 347.785 448.093 332.723L448.757 331.345L450.011 333.352L450.019 333.337C456.939 345.233 463.895 357.48 470.8 369.636C471.042 370.063 471.284 370.49 471.527 370.917H471.061L472.701 373.214H471.042L473.975 377.35L474.434 376.03L473.721 374.779C473.594 374.556 473.468 374.333 473.341 374.11L473.657 374.554L473.779 374.769ZM472.832 373.214C473.002 373.513 473.171 373.812 473.341 374.11L472.701 373.214H472.832ZM446.934 328.141C447.256 328.691 447.578 329.242 447.899 329.794L448.779 331.299L448.757 331.345L446.755 328.141H446.934ZM445.284 325.325H444.995L446.755 328.141H445.524L429.098 298.565C434.433 307.077 439.841 316.062 445.284 325.325ZM446.252 329.451H446.257L446.814 330.429C447.241 331.194 447.667 331.959 448.093 332.723L448.007 332.903L447.223 331.651L447.342 331.407L446.795 330.429L446.252 329.451ZM445.846 329.451L445.025 328.141H445.524L446.252 329.451H445.846ZM444.666 333.973L445.015 334.174L444.773 334.163L444.666 333.973ZM442.945 332.981L444.666 333.973L444.108 332.981H442.945ZM442.779 332.981C442.975 333.358 443.168 333.731 443.358 334.1L440.645 333.978L441.979 331.496C442.208 331.936 442.435 332.373 442.658 332.805L442.571 332.981H442.779ZM442.676 332.769L442.6 330.341L441.979 331.496C440.53 328.706 438.981 325.764 437.489 322.929C435.519 319.184 433.646 315.626 432.227 312.849C433.918 315.529 435.513 318.268 437.008 321.06L439.344 325.628C438.595 324.091 437.816 322.568 437.008 321.06L434.73 316.604C437.335 321.074 440.227 326.137 443.287 331.543L442.676 332.769ZM442.676 332.769L442.679 332.844C442.672 332.831 442.665 332.818 442.658 332.805L442.676 332.769ZM442.779 332.981C442.755 332.935 442.731 332.89 442.708 332.844L442.945 332.981H442.779ZM464.26 376.861C464.66 377.604 465.06 378.349 465.461 379.094L465.038 374.788L464.26 376.861ZM464.171 377.098C464.618 377.924 465.063 378.747 465.508 379.57C466.022 380.52 466.534 381.468 467.044 382.414L462.233 382.268L464.171 377.098ZM467.235 382.42C467.006 381.993 466.776 381.567 466.547 381.14L465.79 379.732L470.622 382.522L467.235 382.42ZM82.3439 342.095L81.7879 342.416H82.1606C81.9546 342.776 81.7486 343.136 81.5426 343.497C76.3088 352.65 71.0495 361.847 65.7647 370.972L65.2567 370.474L84.7816 337.205H85.1413C84.2097 338.833 83.2772 340.463 82.3439 342.095ZM90.8258 337.205H85.1413C85.2126 337.08 85.2838 336.956 85.3551 336.831L90.5872 336.872L88.2114 331.912C88.2393 331.863 88.2672 331.815 88.2951 331.766L90.9371 337.14L90.8258 337.205ZM88.1552 331.482L100.912 309.955C96.7266 317.103 92.5256 324.399 88.2951 331.766L88.1552 331.482ZM88.0722 331.622L88.2114 331.912C87.7359 332.74 87.2601 333.569 86.7839 334.399L86.8062 333.758L88.0722 331.622ZM86.9615 329.303L86.9696 329.07L88.1552 331.482L88.0722 331.622L86.9615 329.303ZM82.5576 336.809L81.8758 337.205H84.7816L85.0024 336.828L85.3551 336.831C85.825 336.01 86.2947 335.189 86.7643 334.369L86.2811 334.65L85.0024 336.828L82.5576 336.809ZM64.9529 370.176C68.3344 364.324 71.9415 358.152 75.8238 351.558C72.6092 356.513 68.7151 362.846 64.531 369.762L64.9529 370.176ZM64.1723 370.355L64.455 371.038C63.7315 372.292 63.0185 373.531 62.3152 374.757L61.8197 374.256C62.6118 372.94 63.3968 371.638 64.1723 370.355ZM63.5887 368.838L63.5147 368.766L63.5636 368.884L61.0384 373.467L60.7051 373.13L68.1 360.651L63.5887 368.838ZM60.458 373.547L60.7051 373.13L60.1772 372.597L83.1904 333.294H85.2686L84.3154 331.31L96.0329 311.217L93.9214 314.971L98.174 307.54L109.239 288.582H111.696L110.568 286.358L120.515 269.243C125.515 260.518 130.315 251.839 135.01 243.188L137.419 243.128L136.059 241.242L139.531 234.817L142.816 229.107C140.939 232.832 140.138 234.7 144.273 227.797C149.912 218.493 155.551 208.827 161.19 198.895H163.152L162.414 196.747C164.749 192.672 167.099 188.553 169.47 184.395C175.166 174.411 180.989 164.204 187.034 153.861H189.394L188.342 151.658C192.139 145.194 196.038 138.673 200.041 132.097C201.996 128.831 204.226 125.106 206.572 121.049L210.2 114.732L213.24 109.335C215.405 109.335 217.625 109.294 219.881 109.253C220.936 109.234 221.998 109.214 223.066 109.198C225.78 109.366 228.502 109.33 231.211 109.091C232.849 109.066 234.5 109.044 236.154 109.022C237.766 109 239.38 108.978 240.988 108.954H240.991C248.978 108.954 256.993 108.954 264.834 108.739C258.187 108.739 251.34 108.825 244.476 108.911C243.313 108.925 242.15 108.94 240.988 108.954H232.042C234.812 108.652 237.596 108.499 240.383 108.494C233.738 108.494 227.062 108.462 220.253 108.43C217.756 108.419 215.241 108.407 212.703 108.397L187.982 150.905L187.81 150.547L187.785 151.243L187.596 151.568L187.761 151.907L187.732 152.698C187.807 152.569 187.882 152.441 187.958 152.313L188.367 153.157H187.445C187.531 153.01 187.617 152.864 187.703 152.717L186.951 153.157H186.669L186.525 153.406L185.747 153.861H186.261L161.489 196.59L161.86 197.699L161.398 197.966H160.664L160.297 198.602L159.789 198.895H160.128L142.748 229.039L147.46 219.818L139.463 234.748L135.88 240.995L135.415 240.351L135.431 240.812L135.734 241.251L135.463 241.723L135.483 242.302L134.907 242.635L134.737 242.932H134.391L133.899 243.216L134.585 243.199L111.892 282.999C114.531 278.111 116.926 273.594 118.931 269.546L109.233 286.282L109.819 287.429H108.56L83.8495 330.34L83.8312 330.302L83.8286 330.376L83.3177 331.263L83.7656 332.179L83.7629 332.257L83.7851 332.219L83.8804 332.414H83.7056L83.7629 332.316L83.5828 332.414H82.5979L82.1516 333.192L81.9641 333.294H82.0931L59.356 372.927L59.3203 372.892L59.3437 372.949L58.9403 373.652L59.3259 374.051L59.6034 373.577L59.9473 374.409L59.8427 374.586L60.1527 374.906L60.1924 375.002L60.2117 374.967L60.7462 375.52L60.3858 374.651L60.638 374.194L60.2829 373.843L60.1462 374.074L59.8891 373.454L59.7538 373.32L59.8006 373.24L59.5547 372.647L59.9267 373.025L60.1115 372.709L60.458 373.547ZM60.4698 373.576L60.458 373.547L60.4519 373.558L60.4698 373.576ZM60.7961 373.907L61.0384 373.467L61.8197 374.256C61.734 374.399 61.6481 374.541 61.5622 374.684L60.7961 373.907ZM62.0644 375.194C62.1479 375.048 62.2315 374.903 62.3152 374.757L62.584 375.028L62.3291 375.462L62.0644 375.194ZM61.9146 375.455C61.9645 375.368 62.0144 375.281 62.0644 375.194L61.5622 374.684C61.5091 374.772 61.4559 374.861 61.4027 374.949L60.7856 374.34L61.1864 375.309C61.1041 375.446 61.0216 375.583 60.9392 375.72L61.4564 376.255C61.4798 376.214 61.5033 376.173 61.5268 376.132L61.6666 376.47L61.7098 376.518L61.6067 376.693L61.4516 377.271L61.3344 377.157L60.9479 377.816L61.2283 378.102L61.0463 378.779L60.3866 378.772L60.3662 378.807L60.3756 378.772L60.021 378.769C60.0416 378.733 60.0621 378.697 60.0827 378.66C60.285 378.305 60.4882 377.949 60.6922 377.592L60.6999 377.563L60.7054 377.569C60.8302 377.35 60.9553 377.131 61.0807 376.912L60.9171 376.754L61.0509 376.255L60.874 375.829C60.8069 375.94 60.7396 376.052 60.6724 376.164L60.7181 376.275L60.6574 376.503L60.5382 376.387C60.4127 376.596 60.2871 376.805 60.1614 377.015L60.4443 377.303L60.27 377.957L59.8505 377.532C59.7598 377.683 59.6691 377.834 59.5784 377.986H60.2624L60.0827 378.66L59.8973 378.767L59.1677 378.76L58.8475 379.296L58.9847 379.294L58.7776 379.413L58.4852 379.903L59.5571 379.284L59.7291 379.281C59.7564 379.233 59.7836 379.185 59.8109 379.137L60.3662 378.817L60.0983 379.275L60.9168 379.261L60.8942 379.345C60.9106 379.317 60.9271 379.289 60.9435 379.26L63.4655 379.218L61.8695 377.675C61.9897 377.468 62.1099 377.262 62.2302 377.056L65.5288 380.469L60.2753 380.383L60.8942 379.335L59.6388 380.06L59.4575 380.37L59.1132 380.364C59.113 380.365 59.1133 380.364 59.1132 380.364L58.2184 380.35L57.8093 381.035L57.9526 381.034L57.7346 381.16L57.6037 381.379L57.3578 381.378L56.329 381.972L56.6636 381.373L55.947 381.369L56.5117 381.043L56.8495 381.041L57.0088 380.756L57.7255 380.342L57.2445 380.334L57.2744 380.28L57.1833 380.333L56.5081 380.322L56.1527 380.927L55.947 381.046L56.0835 381.045L34.2518 418.239L33.9095 418.816C33.9095 418.857 33.8756 418.906 33.8434 418.953C33.8064 419.007 33.7716 419.058 33.7925 419.089H43.3739L54.3534 419.148C62.8269 419.207 71.245 419.259 79.6077 419.304L32.8926 419.51L40.0201 407.005L56.2439 379.34L57.0927 379.326L56.7945 379.834L57.7122 379.315L57.8147 379.314L57.8605 379.232L58.7035 378.755L58.1299 378.75L58.5569 377.986H59.4861L59.6631 377.343L59.1754 376.848L59.4712 376.311L59.8427 376.69L59.9462 376.314L59.7419 375.82L59.8148 375.688L59.6021 375.482L59.4825 375.193L59.4173 375.304L58.8905 374.794L59.1406 374.367L58.8846 373.749L58.5009 374.418L58.1664 374.094L58.3839 374.622L58.1731 374.989L58.5511 375.374L58.6351 375.231L58.7981 375.626L59.0652 375.898L58.9739 376.052L59.0658 376.275L58.9666 376.637L58.7545 376.422L58.5701 376.733L58.8612 377.022L58.7394 377.467H58.1351L58.1177 377.497L58.1257 377.467H57.3423L57.5601 377.096L56.9193 377.467H56.7233L56.626 377.637L56.0253 377.986H56.4268L39.9032 406.868L35.9924 413.467L34.037 416.782L32.5704 419.275L32.4429 419.49C32.4429 419.49 32.3745 419.568 32.4429 419.578H33.0297L48.2332 419.696C58.9709 419.783 69.6461 419.861 80.2594 419.93L81.7879 416.909L81.8218 416.978L80.2829 419.93C80.3766 419.931 80.4701 419.931 80.5637 419.932L80.1541 420.177L80.1452 420.194L80.5779 419.932C80.7649 419.933 80.9519 419.934 81.1389 419.936L81.3965 419.436L81.7583 419.217L81.3985 419.432L81.8171 418.62L82.0831 419.186L82.8916 419.183L82.2344 417.816L82.9082 419.183L85.7027 419.174L85.8655 419.275C84.8922 419.268 83.918 419.261 82.9429 419.254L83.3054 419.99C96.2699 420.077 109.165 420.158 121.991 420.233L131.66 420.292H133.137C133.205 420.292 133.206 420.292 133.235 420.214L133.313 420.087L133.606 419.588L134.799 417.554L147.275 396.211L137.107 412.91L134.711 416.821L133.548 418.776L132.971 419.754C132.971 419.848 132.89 419.842 132.807 419.836C132.786 419.834 132.766 419.832 132.746 419.832H131.895C129.667 419.832 127.438 419.783 125.203 419.733C124.3 419.713 123.395 419.693 122.49 419.676C110.458 419.5 98.2799 419.367 85.9542 419.275L85.9046 419.173L85.7027 419.174L81.8562 416.782C82.1446 416.783 82.4331 416.785 82.7215 416.786L85.6287 418.602L85.1971 417.709L85.964 418.189L85.2937 416.797C85.5157 416.798 85.7377 416.799 85.9596 416.8L85.6951 416.264H88.8967L87.867 415.621C87.038 415.623 86.2094 415.626 85.3811 415.628L84.2677 413.373L83.3768 412.816L84.7316 415.63C84.5519 415.63 84.3722 415.631 84.1926 415.631L82.5958 412.328L81.7583 411.805C81.9543 411.808 82.1502 411.81 82.3462 411.812L82.3123 411.742L82.4261 411.813C82.5828 411.815 82.7396 411.817 82.8963 411.818L83.0948 412.231L83.9755 412.781L83.5038 411.825C84.3897 411.835 85.2758 411.846 86.1622 411.856L85.7186 411.58C84.9258 411.548 84.1312 411.515 83.3339 411.481L82.3498 409.488L81.8467 409.175C81.9618 409.173 82.0768 409.17 82.1919 409.168L81.9445 408.667L81.706 409.139C81.7529 409.138 81.7998 409.137 81.8467 409.136L81.645 409.259L80.5883 411.35C80.4922 411.346 80.3959 411.342 80.2996 411.337C79.665 411.309 79.028 411.28 78.3881 411.252L77.5719 411.751C78.5258 411.763 79.4605 411.775 80.3678 411.787L80.0071 412.5L81.1539 411.799C81.1534 411.799 81.1543 411.799 81.1539 411.799L81.7975 411.405C81.6544 411.398 81.5112 411.392 81.3679 411.385L82.0519 410.065L82.7213 411.455C82.5349 411.447 82.3485 411.439 82.1618 411.431L81.9932 411.082L81.8208 411.416C81.8099 411.415 81.7989 411.415 81.7879 411.414L81.8134 411.43L81.6207 411.803C81.6667 411.804 81.7125 411.805 81.7583 411.805L81.5559 411.929L79.6339 415.653C79.4743 415.654 79.3148 415.655 79.1553 415.656L80.8684 412.35L79.7322 413.044L78.4096 415.661C77.4115 415.668 76.4155 415.674 75.4214 415.681L74.5669 416.203C75.7435 416.217 76.9276 416.228 78.1182 416.238L77.8576 416.754C76.4719 416.747 75.0855 416.741 73.6984 416.734L73.2526 417.007L73.3971 416.733C73.2964 416.732 73.1957 416.732 73.0949 416.731L73.5421 416.458L73.6819 416.193C73.7776 416.194 73.8735 416.195 73.9694 416.196L74.8053 415.685C74.519 415.686 74.2329 415.688 73.947 415.69L75.2868 413.149L74.8656 413.406L73.5613 415.692C72.7409 415.698 71.9216 415.703 71.1033 415.708L70.9453 415.804L70.992 415.708C66.1256 415.738 61.2939 415.766 56.4654 415.795C61.8276 415.992 67.4599 416.114 73.2788 416.188L72.9689 416.731C63.3285 416.686 53.6557 416.641 43.9505 416.596H38.3092C38.3319 416.529 38.365 416.467 38.407 416.41L51.3521 394.353L48.2624 399.985L46.7471 402.781L45.9942 404.179L45.4467 405.225L45.7398 404.766L46.2287 403.964L47.2064 402.351L49.1618 399.114L53.0726 392.583L56.2266 387.241L55.8592 387.245L56.4135 386.924L59.1876 382.226L64.5018 382.252L65.2352 381.828L64.995 382.254L69.7619 382.278L66.7168 379.202L66.4613 379.655L68.227 381.447L65.4603 381.429L65.2352 381.828L65.3422 381.428L59.6795 381.392L59.8979 381.023L65.4596 380.99L65.8897 379.383L62.7068 376.238C62.7546 376.156 62.8025 376.073 62.8504 375.991L65.9544 379.141L66.1037 378.583L63.1048 375.554C63.7317 374.477 64.3582 373.398 64.9845 372.318L64.6495 371.509L62.584 375.028L63.1048 375.554C63.02 375.7 62.9352 375.846 62.8504 375.991L62.3291 375.462L62.1797 375.717L61.9146 375.455ZM62.1797 375.717L61.7098 376.518L62.2302 377.056C62.389 376.783 62.548 376.511 62.7068 376.238L62.1797 375.717ZM66.3554 379.843L65.7092 380.988L67.5038 380.978L66.3554 379.843ZM59.0728 381.027L59.4575 380.37L60.2753 380.383L59.8979 381.023L59.0728 381.027ZM58.8623 381.387L59.6795 381.392L59.1876 382.226L58.3742 382.222L58.8623 381.387ZM58.0608 382.22L58.3742 382.222L51.3912 394.157C53.5342 390.266 55.742 386.316 58.0608 382.22ZM57.1045 382.215L57.6037 381.379L58.5338 381.385C58.3756 381.664 58.218 381.942 58.0608 382.22L57.1045 382.215ZM57.1045 382.215L55.3216 385.201L36.823 417.056L36.6569 417.329L36.5786 417.466V417.535H36.5495C36.5495 417.535 36.3638 417.535 36.4225 417.486L36.7839 416.841L37.5076 415.57L43.3056 405.274L56.1955 382.211L57.1045 382.215ZM58.5338 381.385L58.8623 381.387L59.0728 381.027L58.7355 381.03C58.8611 380.808 58.9869 380.587 59.1132 380.364L57.9526 381.034L58.7355 381.03C58.6682 381.148 58.6009 381.267 58.5338 381.385ZM75.8223 411.729C75.8928 411.73 75.9634 411.731 76.0338 411.732L76.3346 411.161C76.2734 411.159 76.2122 411.156 76.1509 411.153L75.8223 411.729ZM73.2664 411.033L72.9446 411.695C72.0179 411.684 71.086 411.673 70.1554 411.662C58.7034 411.527 47.4689 411.395 48.9956 411.258C50.3058 410.964 51.1269 410.798 51.8309 410.701H61.6666C65.72 410.761 69.5585 410.886 73.2664 411.033ZM77.2523 409.223C77.2874 409.222 77.3226 409.222 77.3577 409.221L78.6272 406.813L77.2523 409.223ZM82.3616 400.268L86.5243 409.074C86.7907 409.069 87.0571 409.063 87.3234 409.057L83.0196 399.114L82.3616 400.268ZM88.4607 411.685C88.2225 411.676 87.9842 411.668 87.7458 411.659L87.8482 411.875C88.081 411.878 88.3139 411.881 88.5467 411.883L88.4607 411.685ZM90.7536 411.909C96.3396 411.974 101.935 412.041 107.541 412.108C111.842 412.148 116.154 412.193 120.476 412.245L126.411 412.314L128.366 412.382C128.751 411.865 129.107 411.326 129.431 410.769L132.365 405.88L152.173 372.178L151.889 372.706L167.269 346.307L182.433 320.114C182.433 320.185 182.393 320.264 182.358 320.334C182.335 320.379 182.314 320.422 182.306 320.456L182.475 320.162C183.41 317.737 186.741 311.858 190.214 305.729C193.121 300.598 196.127 295.293 197.91 291.691C190.372 304.294 183.518 315.841 176.762 327.359C170.006 338.876 163.378 350.306 156.231 362.782L184.838 312.84L150.745 372.217L151.068 371.611L129.999 408.305L128.552 410.847L128.238 411.424L128.072 411.717C128.045 411.773 127.986 411.765 127.922 411.757C127.873 411.751 127.822 411.745 127.779 411.766H121.835L100.413 411.923C97.1178 411.923 93.8946 411.859 90.6765 411.759L90.7536 411.909ZM191.952 303.702L204.226 282.383L204.261 282.321L204.235 282.354L204.462 281.962L204.483 281.924L204.486 281.92L204.796 281.383L205.232 280.947L205.458 280.653L204.88 281.237L204.796 281.383L204.774 281.406L204.483 281.924L204.108 282.413C204.285 282.103 204.461 281.793 204.637 281.484L204.108 282.413C200.072 289.51 196.02 296.606 191.952 303.702ZM88.5359 413.33L89.6162 415.616C89.2505 415.617 88.8849 415.618 88.5193 415.619L89.552 416.264H89.9226L90.0779 416.592L90.4377 416.817C90.5194 416.817 90.601 416.818 90.6827 416.818L90.4429 416.264H89.9226L89.6162 415.616C89.798 415.615 89.9798 415.615 90.1616 415.614L89.4073 413.871L88.5359 413.33ZM73.2788 416.188C73.413 416.189 73.5474 416.191 73.6819 416.193L73.947 415.69C73.8184 415.691 73.6899 415.692 73.5613 415.692L73.2788 416.188ZM72.9689 416.731C73.0109 416.731 73.053 416.731 73.0949 416.731L72.9007 416.85L72.9689 416.731ZM78.5851 416.757C78.3426 416.756 78.1001 416.755 77.8576 416.754L76.8698 418.708L77.9015 418.077L77.4274 418.992L78.134 418.559L77.7697 419.265L81.8562 416.772C81.5911 416.771 81.326 416.77 81.0609 416.769L81.8858 416.264L82.7215 416.786C83.057 416.787 83.3925 416.789 83.728 416.79L85.1971 417.709L84.755 416.795C84.9345 416.796 85.1141 416.796 85.2937 416.797L85.037 416.264H85.6951L85.3811 415.628C85.1646 415.629 84.9481 415.629 84.7316 415.63L85.037 416.264H84.4983L84.1926 415.631C83.4233 415.634 82.6544 415.636 81.8858 415.638C81.1338 415.643 80.3833 415.648 79.6339 415.653L79.3272 416.247C79.1683 416.246 79.0095 416.245 78.8509 416.244L79.1553 415.656C78.9066 415.658 78.6581 415.66 78.4096 415.661L78.1182 416.238C78.3621 416.24 78.6064 416.242 78.8509 416.244L78.5851 416.757ZM79.063 416.759L79.3272 416.247C79.8413 416.251 80.3565 416.255 80.8729 416.258L80.0463 416.764C79.7186 416.762 79.3909 416.761 79.063 416.759ZM80.0463 416.764C80.3845 416.765 80.7228 416.767 81.0609 416.769L78.134 418.559L78.6055 417.646L80.0463 416.764ZM79.063 416.759L78.6055 417.646L77.9015 418.077L78.5851 416.757C78.7444 416.758 78.9037 416.759 79.063 416.759ZM80.8729 416.258C81.2101 416.26 81.5477 416.262 81.8858 416.264H82.8863L83.728 416.79C84.0704 416.792 84.4127 416.793 84.755 416.795L84.4983 416.264H82.8863L81.8858 415.638L80.8729 416.258ZM81.8134 411.43L82.3123 411.742L82.1618 411.431C82.0482 411.426 81.9346 411.421 81.8208 411.416L81.8134 411.43ZM81.3679 411.385C81.1084 411.374 80.8486 411.362 80.5883 411.35L80.3678 411.787C80.6324 411.79 80.8941 411.795 81.1539 411.799L81.3679 411.385ZM82.7213 411.455L82.8963 411.818C83.0988 411.821 83.3013 411.823 83.5038 411.825L83.3339 411.481C83.1299 411.473 82.9257 411.464 82.7213 411.455ZM83.279 419.989L82.9255 419.254C82.6545 419.252 82.3834 419.25 82.1123 419.248L82.2154 419.468L81.8631 419.247C81.8282 419.246 81.7932 419.246 81.7583 419.246L82.2493 419.54L82.458 419.984C82.6377 419.985 82.8175 419.986 82.9972 419.988L83.3915 420.224L83.379 420.198L83.0448 419.988C83.1228 419.988 83.2009 419.989 83.279 419.989ZM83.0448 419.988L82.2154 419.468L82.2493 419.54L82.9972 419.988C83.0131 419.988 83.0289 419.988 83.0448 419.988ZM85.9542 419.275L85.9919 419.353L85.8655 419.275C85.895 419.275 85.9246 419.275 85.9542 419.275ZM81.3985 419.432L80.5637 419.932C80.5684 419.932 80.5731 419.932 80.5779 419.932L81.3965 419.436L81.3985 419.432ZM82.2344 417.816L81.8218 416.978L81.8271 416.968L82.2344 417.816ZM57.0384 377.986L57.3423 377.467H56.9193L56.626 377.637L56.4268 377.986H57.0384ZM57.3207 377.986H57.0384L56.8936 378.233L56.0353 378.729L56.5993 378.734L56.3711 379.123L55.9862 379.345L56.2439 379.34L56.3711 379.123L57.0399 378.739L57.435 378.743L57.0927 379.326L57.7122 379.315L57.8605 379.232L58.1299 378.75L57.435 378.743L57.6399 378.394L58.3494 377.986H58.5569L58.6552 377.81L58.3494 377.986H57.8794L58.1664 377.497L57.3207 377.986ZM58.3773 376.542L58.45 376.275L58.3344 375.997L58.2417 375.903L58.2731 375.849L58.0238 375.249L57.8668 375.523L57.277 374.925L57.6525 375.823L57.6793 375.85L57.6703 375.866L57.8045 376.187L57.5601 377.067L58.0546 376.222L58.3773 376.542ZM58.0546 376.222L58.2417 375.903L57.8668 375.523L57.6793 375.85L58.0546 376.222ZM58.8343 377.467L58.6457 377.81L58.7394 377.467H58.8343ZM58.8343 377.467L59.0025 377.162L59.3103 377.467H58.8343ZM59.0025 377.162L59.1754 376.848L58.9666 376.637L58.8612 377.022L59.0025 377.162ZM58.6351 375.231L58.8905 374.794L58.5009 374.418L58.3839 374.622L58.6351 375.231ZM59.0652 375.898L59.4712 376.311L59.7419 375.82L59.6021 375.482L59.4173 375.304L59.0652 375.898ZM56.0835 381.045L56.5117 381.043L57.0088 380.756L57.2445 380.334L57.1833 380.333L56.1527 380.927L56.0835 381.045ZM56.1955 382.211L55.9179 382.209L56.329 381.972L56.1955 382.211ZM61.4742 378.352L61.2283 378.102L61.4516 377.271L61.8695 377.675C61.7377 377.9 61.6059 378.126 61.4742 378.352ZM61.4742 378.352L61.9016 378.787L61.2239 378.781C61.3073 378.638 61.3907 378.495 61.4742 378.352ZM61.2239 378.781L61.0463 378.779L60.9168 379.261L60.9435 379.26C61.037 379.101 61.1304 378.941 61.2239 378.781ZM59.8109 379.137C59.8808 379.015 59.9509 378.892 60.021 378.769L59.8973 378.767L58.9847 379.294L59.5571 379.284L59.8109 379.137ZM60.2624 377.986L60.27 377.957L60.298 377.986H60.2624ZM60.4443 377.303L60.6999 377.563L60.9171 376.754L60.6574 376.503L60.4443 377.303ZM61.5268 376.132L61.1864 375.309C61.2586 375.189 61.3307 375.069 61.4027 374.949L61.9146 375.455C61.785 375.681 61.6558 375.907 61.5268 376.132ZM60.7961 373.907L60.6879 374.103L60.4698 373.576L60.7961 373.907ZM60.1462 374.074L59.9473 374.409L60.1527 374.906L60.2117 374.967L60.3858 374.651L60.1462 374.074ZM59.7538 373.32L59.356 372.927L59.3437 372.949L59.6034 373.577L59.7538 373.32ZM82.0931 333.294H83.1904L83.7056 332.414H83.5828L82.1516 333.192L82.0931 333.294ZM83.7851 332.219L84.3154 331.31L83.8495 330.34L83.8286 330.376L83.7656 332.179L83.7851 332.219ZM135.149 242.932C135.102 243.017 135.056 243.103 135.01 243.188L134.585 243.199L134.737 242.932H135.149ZM135.149 242.932C135.264 242.72 135.379 242.508 135.493 242.296L135.487 242.3L135.913 241.512L136.891 242.932H135.149ZM135.487 242.3L135.483 242.306L135.483 242.302L135.487 242.3ZM135.913 241.512L136.059 241.242L135.88 240.995L135.734 241.251L135.913 241.512ZM160.128 198.895H161.19C161.365 198.586 161.541 198.276 161.717 197.966H161.95L161.863 197.708C161.866 197.703 161.869 197.698 161.872 197.693C162.053 197.378 162.233 197.062 162.414 196.747L162.067 195.737L161.872 197.693L161.86 197.699L161.863 197.708C161.814 197.794 161.766 197.88 161.717 197.966H161.398L160.297 198.602L160.128 198.895ZM186.261 153.861H187.034C187.171 153.626 187.308 153.392 187.445 153.157H186.951L186.525 153.406L186.261 153.861ZM187.958 152.313C188.085 152.095 188.213 151.877 188.342 151.658L187.982 150.905L187.785 151.243L187.761 151.907L187.958 152.313ZM110.568 286.358L110.004 285.248L109.946 287.429L110.568 286.358ZM109.239 288.582L109.906 287.438L107.951 288.582H109.239ZM60.1115 372.709L59.9848 372.403L60.1772 372.597L60.1115 372.709ZM206.913 282.923L206.905 282.931L206.533 283.586L206.913 282.923Z" fill="#6A5EEF"/>
<path d="M165.695 169.025L181.093 143.341L185.679 143.419L178.317 155.152L176.42 151.084L192.23 124.725C187.595 132.722 183.303 140.368 178.992 147.701L176.948 151.201L178.747 154.946L185.679 143.839H181.279L178.992 147.75C174.699 155.093 170.378 162.152 165.695 169.025Z" fill="#6A5EEF"/>
<path d="M183.127 356.876C186.979 351.245 191.125 344.782 195.505 337.713L170.172 381.378L169.791 382.092L148.292 419.236L147.646 420.331L147.568 420.468C147.568 420.468 147.568 420.585 147.333 420.566H146.229C146.056 420.55 145.883 420.55 145.71 420.566L145.622 420.869L145.456 421.475L144.087 426.363L143.999 426.667L143.843 426.931L143.55 427.449L142.943 428.505L140.538 432.709C140.538 432.836 140.401 432.758 140.294 432.777H124.944C118.126 432.777 111.298 432.777 104.461 432.777L104.412 432.709C110.542 432.709 117.122 432.709 123.966 432.709C126.479 432.709 129.021 432.709 131.583 432.709C133.215 432.709 134.858 432.709 136.471 432.709H140.382C140.441 432.709 140.45 432.709 140.479 432.641L140.636 432.377L140.949 431.829L143.432 427.508C143.661 427.158 143.852 426.784 143.999 426.393L144.361 425.141L145.075 422.638L145.437 421.387L145.612 420.761L145.662 420.605C145.749 420.594 145.838 420.594 145.926 420.605H147.069C147.236 420.605 147.529 420.605 147.48 420.556L147.646 420.272L147.978 419.696L149.318 417.408C156.445 405.186 163.583 392.915 169.684 382.111L170.055 381.398L169.908 381.701V381.642L169.977 381.525L170.104 381.29L170.358 380.831L170.877 379.921L171.854 378.113L173.81 374.603L177.398 368.022C179.695 363.76 181.621 360.025 183.127 356.876Z" fill="#6A5EEF"/>
<path d="M273.36 214.793L289.003 241.661V241.72H289.052L288.974 241.622L306.504 271.687L314.912 286.538V286.587L314.844 286.5C323.506 301.83 332.002 317.034 340.068 331.749V331.817L346.609 343.794L339.844 331.954L339.795 331.856L314.179 286.881L314.355 287.115L314.247 286.998L314.179 286.881L288.553 241.788L288.69 241.954L288.612 241.876L288.553 241.788L273.36 214.793Z" fill="#6A5EEF"/>
<path d="M225.912 284.153L240.333 260.746L226.439 284.544C227.133 282.951 226.176 284.085 225.912 284.153Z" fill="#6A5EEF"/>
<path d="M171.238 357.541C172.343 355.635 173.438 353.718 174.524 351.822L166.545 366.732L171.238 357.541Z" fill="#6A5EEF"/>
<path d="M263.582 221.774C263.582 221.578 263.495 221.686 263.436 221.706C263.389 221.75 263.332 221.784 263.27 221.803C263.257 221.683 263.257 221.562 263.27 221.442L263.367 220.708C263.513 221.044 263.587 221.408 263.582 221.774Z" fill="#6A5EEF"/>
<path d="M306.739 296.404L319.947 319.566L304.304 292.826L306.259 295.368L305.164 294.263L304.334 292.826L303.717 291.779L304.411 292.757L305.897 294.918L306.328 295.28L304.373 292.757C305.223 293.932 306.013 295.149 306.739 296.404Z" fill="#6A5EEF"/>
</g>
<defs>
<clipPath id="clip0_201_34">
<rect width="326" height="477" fill="white" transform="matrix(0 1 -1 0 497 95.5)"/>
</clipPath>
</defs>
</svg>
