<svg width="778" height="326" viewBox="0 0 778 326" fill="none" xmlns="http://www.w3.org/2000/svg">
<g clip-path="url(#clip0_105_367)">
<path d="M622.392 319.482C620.515 319.482 618.688 319.482 616.889 319.482C618.722 319.385 620.559 319.385 622.392 319.482Z" fill="#6A5EEF"/>
<path d="M510.864 249.721C511.841 247.766 512.819 245.908 513.855 244.099C512.965 245.996 511.91 247.854 510.864 249.721Z" fill="#6A5EEF"/>
<path d="M539.1 324.146C547.758 324.038 556.415 324.365 565.04 325.124C556.742 324.537 547.995 324.283 539.1 324.146Z" fill="#6A5EEF"/>
<path d="M542.639 183.715C542.59 183.588 542.726 183.353 542.932 183.099C543.137 182.893 543.33 182.674 543.508 182.444L544.075 182.053L544.369 181.847L544.505 181.75L544.583 181.701C544.583 181.701 544.632 181.701 544.662 181.701L545.796 182.679L548.034 184.634C549.519 185.925 550.966 187.215 552.412 188.545C551.635 188.148 550.882 187.707 550.155 187.225C548.581 185.768 547.633 184.732 546.607 183.754C546.089 183.265 545.561 182.776 544.926 182.297C544.613 181.808 544.242 182.366 543.88 182.64C543.518 182.913 543.088 183.294 542.639 183.715Z" fill="#6A5EEF"/>
<path d="M509.72 251.804L509.672 252.039L508.694 253.994L508.518 254.199C508.89 253.388 509.29 252.596 509.72 251.804Z" fill="#6A5EEF"/>
<path d="M538.797 186.638C538.661 186.365 538.524 186.091 538.201 186.032C539.967 184.846 541.71 183.66 543.43 182.473C543.235 182.689 543.039 182.904 542.893 183.099C541.827 184.184 540 185.25 538.797 186.638Z" fill="#6A5EEF"/>
<path d="M508.958 230.578C508.532 231.51 508.239 232.497 508.088 233.511C506.134 236.18 504.179 238.849 501.999 242.115C501.823 242.711 501.198 243.826 500.846 245.048C500.289 245.556 499.742 246.124 499.185 246.74L508.958 230.274L512.35 224.564L518.634 224.682L508.684 240.961L505.918 235.3L508.958 230.274L512.643 224.164C511.529 226.197 510.356 228.251 509.085 230.343L506.094 235.232L508.821 240.844L518.595 224.779L512.486 224.643L509.046 230.294L508.958 230.578Z" fill="#6A5EEF"/>
<path d="M542.932 183.099C543.078 182.903 543.274 182.689 543.469 182.473C543.302 182.693 543.123 182.901 542.932 183.099Z" fill="#6A5EEF"/>
<path d="M509.476 309.695L510.033 310.673C508.489 308.248 506.961 305.81 505.449 303.36C506.798 305.256 508.137 307.437 509.476 309.695Z" fill="#6A5EEF"/>
<path d="M531.105 326.317L548.698 326.023C556.175 326.229 563.515 326.561 570.523 327.255L570.982 327.304L571.588 326.835H569.438L569.741 327.216L570.523 327.294H569.849L569.419 326.845H571.588L571.109 327.285H570.513C557.456 327.03 544.349 326.659 531.105 326.317Z" fill="#6A5EEF"/>
<path d="M622.392 325.72L544.622 190.97L492.782 280.803L518.702 325.72H622.392Z" fill="#6A5EEF"/>
<path d="M554.308 318.378C559.733 318.202 565.167 318.114 570.523 318.065L565.245 320.177L570.542 315.014L575.938 320.304L570.523 318.055C578.997 317.996 587.295 317.938 595.084 317.879L579.788 318.065C587.431 317.977 593.882 318.172 601.681 318.632C599.336 319.189 594.292 318.749 593.071 319.502C585.545 319.502 578.019 319.365 570.523 319.13L575.175 321.086L570.924 316.549L565.988 320.969L570.523 319.15C559.41 318.808 548.366 318.27 537.517 317.771C544.73 316.011 549.207 318.436 554.308 318.378Z" fill="#6A5EEF"/>
<path d="M529.815 322.533C528.701 322.68 527.567 322.777 526.423 322.865L521.4 322.719H520.481C520.422 322.719 520.393 322.719 520.373 322.631L520.295 322.494L519.709 321.379L518.536 319.179L512.554 308.063C513.708 310.175 514.939 312.286 516.2 314.408C517.275 316.227 518.37 318.045 519.465 319.873L520.139 321.027L520.471 321.604L520.647 321.897L520.725 322.034V322.112H520.813C521.703 322.112 522.583 322.112 523.462 322.161C524.342 322.21 525.202 322.239 526.14 322.298C527.41 322.35 528.636 322.429 529.815 322.533Z" fill="#6A5EEF"/>
<path d="M624.22 322.719C618.16 313.039 612.863 300.876 605.992 291.998C611.7 303.731 620.408 319.531 619.245 322.425C618.082 325.319 610.126 307.065 604.917 298.285L605.816 300.886C605.482 299.613 604.886 298.424 604.066 297.395C604.965 299.986 607.165 304.777 607.214 306.469L605.503 304.68C607.35 311.524 613.449 322.924 615.277 329.807C610.009 315.317 601.906 299.361 592.68 282.974L596.453 285.154L589.425 285.076L592.533 278.877L592.68 282.974C584.353 268.191 575.087 253.065 566.223 238.36L570.533 240.844L558.423 241.088L567.063 232.289L565.558 235.857L566.223 238.341L557.348 223.557C555.836 221.146 554.318 218.76 552.793 216.401L551.65 214.641L551.073 213.761L550.575 213.018L549.265 211.267C547.966 209.495 546.517 207.836 544.935 206.31L544.73 206.115L544.622 206.027V206.222L544.232 207.278C543.987 207.963 543.753 208.608 543.547 209.234C543.137 210.475 542.804 211.59 542.57 212.558C542.362 213.37 542.218 214.197 542.14 215.032V215.296L542.042 215.511L541.671 216.391L539.452 221.592C537.859 224.995 533.207 232.709 529.815 238.214L528.193 241.293L528.447 230.949L536.891 246.035L518.82 246.71L528.193 241.293C523.404 250.347 518.663 259.411 514.363 268.601C512.988 271.267 511.581 273.911 510.141 276.531L507.981 280.442L507.844 280.686L507.775 280.813C507.775 280.813 507.687 280.676 507.951 281.146L509.056 283.101L511.255 287.012L520.149 302.939L524.752 311.045L525.925 313.078C525.948 313.115 525.983 313.143 526.023 313.157C526.023 313.157 526.023 313.284 526.023 313.518C526.023 313.753 526.023 314.056 526.072 314.398C526.105 314.744 526.015 315.09 525.818 315.376C525.651 315.566 525.444 315.716 525.212 315.816C525.054 315.89 524.891 315.952 524.723 316.002C524.547 316.002 524.273 316.197 524.185 316.002C524.097 315.806 523.717 315.571 523.462 315.317L523.081 314.907L522.983 314.799C522.922 314.729 522.866 314.653 522.817 314.574L522.28 313.753C520.84 311.556 519.423 309.337 518.028 307.095C515.246 302.623 512.529 298.096 509.877 293.514C511.148 294.198 513.278 298.784 514.939 300.534C513.19 297.044 511.548 293.876 509.857 290.757C509.017 289.202 508.157 287.657 507.267 286.093L505.909 283.717L505.205 282.514L505.01 282.192L504.921 282.045L512.291 294.452L507.326 286.005L505.039 282.094L504.413 281.067L504.247 280.803V280.667L504.316 280.539L504.599 280.002L504.882 279.444L505.029 279.151L505.664 278.007C507.365 274.97 509.04 271.906 510.688 268.816C513.19 264.358 517.53 261.709 519.631 254.581C514.744 262.246 509.721 270.019 504.785 277.9L504.325 278.633L504.267 278.731V278.789L504.188 278.897L503.856 279.347L503.182 280.324L503.006 280.569C502.957 280.657 502.859 280.735 502.938 280.823L503.182 281.331L503.69 282.368L503.954 282.896L504.765 284.362L506.476 287.423L509.945 293.504C509.945 293.504 509.877 293.504 509.847 293.446C514.099 300.612 517.784 307.183 521.83 314.124C520.491 312.013 519.094 309.881 518.106 307.906L520.061 311.817L521.957 315.474L522.71 317.087L523.111 317.908C523.111 317.967 523.169 318.065 523.228 318.094H523.883L525.671 318.182H529.19L537.859 318.299C535.813 318.456 533.761 318.602 531.702 318.739C529.747 318.85 527.792 318.964 525.838 319.082C524.802 319.179 523.707 319.267 522.573 319.346C522.504 319.346 522.426 319.346 522.368 319.346L522.26 319.179L522.035 318.847L521.595 318.172L520.687 316.784L520.188 316.002L519.367 314.633L517.706 311.885L514.422 306.361L507.912 295.186L501.511 284.05L499.751 280.97C499.692 280.843 499.556 280.715 499.575 280.588L499.79 280.207L500.24 279.435L501.12 277.909L507.042 267.506C509.104 263.83 511.128 260.174 513.083 256.536C510.109 260.688 507.44 265.051 505.098 269.589C503.827 271.887 502.566 274.145 501.286 276.228C500.914 276.834 500.787 277.01 500.562 277.342C500.338 277.675 500.132 277.929 499.908 278.213C499.449 278.804 498.956 279.369 498.432 279.904L503.064 271.926L508.86 262.09C512.77 255.526 516.728 248.93 520.736 242.301C520.237 243.347 519.758 244.373 519.328 245.419C520.872 243.229 522.338 240.932 523.755 238.575L518.781 241.45L528.066 241.626L523.892 233.09L523.755 238.575C527.44 232.474 530.783 225.992 534.37 220.057L523.199 238.253L523.325 233.364L527.001 240.981L518.781 240.785L523.199 238.233L520.736 242.281C521.4 240.902 522.123 239.524 522.915 238.077L518.781 240.462L526.688 240.296L523.032 233.511L522.915 238.077C524.137 235.838 525.544 233.481 527.147 230.89C525.389 233.06 523.758 235.329 522.26 237.686L522.358 233.863L525.075 240.071L518.8 239.69L522.26 237.734L521.097 239.504L513.278 252.684C516.21 247.512 518.957 242.3 521.429 237.275L518.761 238.81L523.971 238.468L521.498 234.332L521.42 237.265C522.202 235.671 522.964 234.097 523.677 232.562L520.892 236.952L520.951 234.606L522.69 238.321L518.781 238.184L520.912 236.952C516.162 244.559 511.538 252.43 506.867 260.046L515.409 244.657L520.295 236.61L518.761 237.5L521.625 237.568L520.345 234.919L520.295 236.61L530.802 219.226L530.274 220.204L531.389 218.248L537.077 208.657C538.495 206.115 539.745 203.338 541.143 200.131L541.906 198.772C541.476 199.994 541.339 200.727 542.257 199.368C542.756 198.684 543.234 197.97 543.713 197.217L544.437 196.054L544.613 195.751C544.613 195.751 544.671 195.585 544.71 195.653L544.808 195.819L545.17 196.445C546.147 198.117 547.124 199.73 548.151 201.422C549.177 203.113 550.242 204.863 551.268 206.711C551.786 207.64 552.246 208.579 552.774 209.537C553.301 210.495 553.653 211.365 554.259 212.656C555.829 215.777 557.602 218.791 559.567 221.68C559.777 222.388 560.184 223.022 560.74 223.509L562.167 225.699C563.251 227.537 564.326 229.385 565.529 231.106C564.473 229.316 563.32 227.508 562.167 225.699L560.925 223.665C561.558 224.135 562.087 224.731 562.479 225.415L551.894 206.545L546.949 197.814L545.688 195.624L544.749 193.981C544.691 193.805 544.622 194.03 544.583 194.089L541.906 198.772C542.257 197.794 542.814 196.416 543.039 195.751L541.143 200.131L537.957 205.851L534.839 211.6C535.171 210.886 535.367 210.378 535.592 209.791C535.817 209.204 535.992 208.637 536.158 208.061L532.181 214.905L528.075 222.042L519.973 236.444V235.114L521.029 237.07H518.732L519.944 236.375L515.36 244.608L504.98 261.572L494.835 278.271L496.34 276.159L497.816 274.038C498.832 272.545 499.842 271.023 500.846 269.472C502.859 266.382 504.843 263.214 506.817 259.997L499.468 273.128L496.174 278.946L495.392 280.315L495.295 280.481C495.295 280.54 495.207 280.598 495.295 280.657L495.49 280.989L495.891 281.674L497.464 284.402L501.022 290.62L504.697 297.18C507.13 301.551 509.535 305.98 511.871 310.38C509.32 307.681 506.31 303.692 504.198 302.304C503.798 302.705 506.847 308.385 504.697 305.296C500.611 299.762 497.64 294.697 495.011 290.63C493.819 288.801 492.138 286.249 490.613 284.225C489.87 283.189 489.108 282.211 488.316 281.292L488.013 280.94L487.856 280.764C487.808 280.706 487.739 280.647 487.778 280.588L487.896 279.884C487.954 279.425 488.003 278.975 488.023 278.525C488.042 278.076 487.114 279.053 485.853 280.618C486.025 281.554 486.247 282.481 486.517 283.395C486.801 284.431 487.104 285.575 487.495 286.709L488.6 289.975L489.039 291.373C489.084 291.615 489.111 291.86 489.117 292.106C489.117 292.927 488.912 293.084 488.14 292.106L484.758 286.66C484.094 285.575 483.546 284.45 482.901 283.258L481.924 281.42L481.67 280.95L481.543 280.706C481.474 280.628 481.592 280.549 481.601 280.471L482.061 279.493L484.016 275.426C484.71 274.018 485.569 272.571 486.371 271.085L487.573 268.914L488.267 267.643L489.684 265.033C490.916 263.077 492.138 261.024 493.389 258.893C493.631 258.446 493.79 257.959 493.858 257.455C498.07 249.888 502.175 242.731 504.609 238.879L507.316 234.606C507.808 234.006 508.376 233.473 509.007 233.022C509.271 232.21 509.574 231.418 509.906 230.646L511.675 226.432L518.713 225.562L509.652 240.384L507.228 236.815L510.15 230.069C512.522 226.256 514.852 222.462 517.139 218.688C518.595 216.733 520.071 214.729 521.488 212.744C521.293 212.685 520.873 212.9 520.931 212.402L525.163 205.303L532.396 192.955L533.91 190.735L534.653 189.757C534.897 189.425 535.132 189.024 535.367 189.005C536.344 188.565 537.204 188.183 538.035 187.88C539.403 186.12 540.967 184.523 542.697 183.119L544.593 181.554C544.672 181.476 544.73 181.613 544.799 181.632L545.004 181.779L545.815 182.366C546.9 183.187 548.043 184.038 549.206 184.908L552.725 187.636L553.604 188.33L554.044 188.672L554.269 188.848L554.484 189.239L556.244 192.339C558.56 196.435 560.818 200.376 562.919 203.886L570.503 217.202C570.751 217.95 570.96 218.711 571.129 219.48C571.989 220.38 572.644 221.436 573.084 221.925C574.833 225.415 576.162 228.456 577.491 231.506L577.707 231.712L578.811 235.847L578.958 236.268L576.319 241.753L570.542 227.576L572.302 226.97L577.707 231.712C578.433 232.259 579.066 232.919 579.583 233.667C580.805 235.916 582.056 238.047 583.307 240.12L587.412 247.678C592.025 256.272 596.463 264.798 600.792 273.275C600.749 273.584 600.588 273.864 600.343 274.057C601.139 275.059 601.837 276.137 602.425 277.274L604.252 280.285L602.649 283.746L596.462 273.832L600.284 273.744L602.425 277.274C602.62 277.587 602.806 277.87 602.991 278.115C602.786 277.939 602.61 277.861 602.503 277.968C605.083 281.507 604.897 282.544 606.657 286.044C607.106 286.807 607.761 287.383 608.259 288.097L608.836 289.251C609.98 293.7 612.54 297.307 614.974 301.6L621.512 314.868C623.272 318.426 623.321 320.118 624.22 322.719Z" fill="#6A5EEF"/>
<path d="M553.458 189.454L553.8 189.787C553.832 189.81 553.861 189.836 553.888 189.865L553.976 190.031L554.152 190.363L554.846 191.664L556.214 194.255L558.912 199.349L561.55 204.345L562.518 206.193L562.724 206.613L563.486 208.148L561.209 204.237C560.231 202.614 559.332 201.031 558.443 199.437C557.553 197.843 556.703 196.23 555.872 194.548C555.462 193.698 555.061 192.818 554.651 191.908C554.348 191.048 553.948 190.224 553.458 189.454Z" fill="#6A5EEF"/>
<path d="M489.088 295.557C489.61 297.566 490.297 299.528 491.141 301.424L486.811 293.797L483.048 287.227C482.354 286.005 481.826 284.802 481.22 283.6L480.331 281.791L479.891 280.892C479.822 280.813 479.891 280.735 479.891 280.667L480.008 280.442L480.233 279.982L482.041 276.365C482.344 275.768 482.637 275.162 482.96 274.556L484.006 272.747L491.835 259.284H491.893C490.759 261.386 489.42 263.664 488.033 266.001L485.433 270.361C484.123 272.61 482.745 274.859 481.719 277.059L480.087 280.324L479.891 280.725C479.891 280.862 479.998 280.989 480.037 281.126L480.438 281.918L481.23 283.492C481.758 284.519 482.207 285.526 482.794 286.513C483.38 287.501 483.967 288.469 484.524 289.359C485.619 291.109 486.938 293.191 487.329 293.612C487.87 294.3 488.458 294.95 489.088 295.557Z" fill="#6A5EEF"/>
<path d="M499.781 315.464C500.758 317.673 501.735 319.942 502.713 322.2L499.165 315.767C499.605 316.07 499.634 315.601 499.781 315.464Z" fill="#6A5EEF"/>
<path d="M496.907 289.143L497.796 290.659L495.04 286.953C495.47 287.462 496.282 288.439 496.907 289.143Z" fill="#6A5EEF"/>
<path d="M259.327 319.483C255.105 319.483 250.999 319.483 246.934 319.483C251.254 319.434 255.515 319.375 259.327 319.483Z" fill="#FEFEFE"/>
<path d="M319.308 42.4042C321.625 38.1804 323.961 33.9468 326.277 29.8892C324.088 34.0544 321.684 38.2293 319.308 42.4042Z" fill="#FEFEFE"/>
<path d="M210.615 236.747C211.758 234.488 212.931 232.24 214.152 229.962L236.28 192.583L233.348 194.255L238.645 194.323L236.349 189.435L236.241 192.564L244.06 179.413C241.499 183.744 238.948 188.213 236.388 192.661L236.505 189.357L238.988 194.392H233.339L236.388 192.632C227.992 207.435 219.509 222.697 210.615 236.747Z" fill="#FEFEFE"/>
<path d="M449.592 13.5514C449.876 13.3559 449.719 13.8544 449.367 14.6365C449.016 15.4187 448.556 16.2498 448.292 16.8756L437.766 34.4747L431.442 44.8191C432.361 43.069 433.035 41.3481 434.022 39.6078C435.176 37.7305 436.124 36.2541 436.955 34.944L440.708 28.9408C443.21 24.9713 445.8 20.591 449.592 13.5514Z" fill="#FEFEFE"/>
<path d="M316.679 47.0678L316.493 47.5471L314.148 51.8393L313.806 52.3281C314.731 50.5813 315.689 48.8277 316.679 47.0678Z" fill="#FEFEFE"/>
<path d="M451.977 2.34644C452.124 2.07267 452.28 1.78932 451.401 1.56445L457.353 1.65229L448.381 16.729C448.762 15.9468 449.123 15.2134 449.358 14.6365C451.098 11.3221 454.098 6.39432 456.414 2.19009C454.89 2.21942 453.394 2.26822 451.977 2.34644Z" fill="#FEFEFE"/>
<path d="M330.02 1.39806C327.362 6.04227 325.407 10.5595 324.42 12.5541C320.384 18.8018 316.357 25.0396 311.773 32.5192C311.226 33.7707 309.818 36.2638 308.694 38.757C307.716 40.0281 306.661 41.436 305.596 42.932L330.617 0.00976563C335.24 0.00976563 340.029 0.00983246 344.906 0.0782735C347.584 0.0782735 350.311 0.126998 353.057 0.156329C350.451 0.156329 347.822 0.156329 345.17 0.156329C340.42 0.156329 335.598 0.156329 330.704 0.156329L330.02 1.39806Z" fill="#FEFEFE"/>
<path d="M429.927 47.3219L422.021 60.189L421.346 61.3035L420.721 61.8902L422.021 60.189C419.264 64.6865 416.511 69.1613 413.762 73.6132C416.528 68.8712 419.039 64.315 421.581 59.925L420.349 61.5283L421.024 60.8733L421.581 59.8956C424.126 55.5517 426.912 51.3538 429.927 47.3219Z" fill="#FEFEFE"/>
<path d="M257.255 128.473C254.763 131.749 252.143 135.552 249.436 139.747L278.601 89.4719H285.286L274.897 106.093L272.199 100.55L275.268 95.2404L289.235 71.1493H289.303C285.198 78.4627 280.194 86.92 275.317 95.2502L272.258 100.481L274.935 106.064L285.286 89.4426H278.708L275.317 95.2502C267.683 108.254 260.402 120.906 257.255 128.473Z" fill="#FEFEFE"/>
<path d="M449.368 14.6757C449.123 15.2526 448.762 15.9858 448.39 16.768L448.302 16.9148C448.557 16.2499 448.879 15.4872 449.368 14.6757Z" fill="#FEFEFE"/>
<path d="M241.206 177.477L239.926 179.677L249.348 162.713C246.953 167.299 244.138 172.325 241.206 177.477Z" fill="#FEFEFE"/>
<path d="M231.267 172.09L223.037 184.888L219.909 189.777L222.646 196.152L233.397 178.934L227.093 178.621L222.363 185.964L222.988 184.898L226.575 178.817L233.417 178.885L222.617 196.181L219.822 190.315L230.748 171.757C230.377 172.735 231.042 172.09 231.267 172.09Z" fill="#FEFEFE"/>
<path d="M267.752 130.243L265.797 133.685C267.322 130.664 268.866 127.642 270.401 124.621L267.752 130.243Z" fill="#FEFEFE"/>
<path d="M200.802 222.199L207.027 211.796C205.933 213.927 204.877 216.058 203.87 218.239C202.769 219.496 201.745 220.819 200.802 222.199Z" fill="#FEFEFE"/>
<path d="M259.327 325.72L440.786 11.3123H337.048L155.608 325.711L259.327 325.72Z" fill="#FEFEFE"/>
<path d="M186.679 286.533L169.428 317.126L169.145 317.635L169.008 317.879L168.939 318.006C168.939 318.006 169.027 318.006 169.076 318.006H170.249C171.021 318.006 171.793 318.006 172.555 318.006C174.09 318.006 175.595 318.006 177.1 318.006C184.196 318.006 191.145 317.98 197.947 317.928L180.736 318.026L172.057 318.114C173.64 318.114 175.136 318.114 176.612 318.114C179.622 318.114 182.573 318.114 185.525 318.182C192.679 318.25 199.815 318.378 207.458 318.563L202.356 320.675L215.062 308.532L214.651 325.789L207.428 318.563C209.1 318.563 210.898 318.651 212.736 318.7C211.309 318.847 209.451 318.925 207.428 318.974L214.27 325.818L213.859 309.197L202.649 320.929L207.458 318.974C202.004 319.111 195.416 319.023 193.403 319.571H182.153L174.334 319.512L168.715 319.414H166.75C166.75 319.414 166.75 319.414 166.75 319.346L167.131 318.72L168.636 316.256L171.568 311.485L172.282 310.331L173.435 308.434L176.309 303.634L187.802 284.529L181.528 288.156L193.256 288.381L188.008 277.626L187.832 284.548L206.128 254.239C199.99 268.113 193.422 275.582 187.929 284.548L188.105 277.509L193.422 288.498L181.557 288.225L187.929 284.548C187.48 285.145 187.079 285.829 186.679 286.533Z" fill="#FEFEFE"/>
<path d="M198.788 254.024C193.52 263.224 188.125 272.444 182.701 281.4V280.109L183.678 282.065H181.489L182.662 281.39C178.009 289.124 173.337 296.701 168.724 303.985C173.288 296.633 177.902 289.056 182.544 281.322L181.489 281.928H183.443L182.564 280.129V281.292C187.92 272.444 193.354 263.283 198.788 254.024Z" fill="#FEFEFE"/>
<path d="M263.882 323.97C276.382 301.483 292.538 276.482 303.719 254.082C288.218 279.063 267.654 314.027 263.363 316.54C259.073 319.052 283.233 281.693 294.639 261.718L291.15 266.724C292.905 264.378 294.44 261.874 295.734 259.245C292.245 264.251 285.96 274.224 283.536 276.756L285.657 271.818C276.304 284.333 261.496 309.177 252.192 321.624L251.42 322.601L251.087 325.681L251.303 322.856L252.192 321.575C260.861 308.952 276.45 286.572 285.657 271.818C290.251 264.436 288.335 265.336 293.027 257.553L300.103 245.752L307.159 233.853L307.306 233.579C315.917 218.913 324.606 203.915 333.304 188.702L332.728 190.892V189.718L333.314 188.682L358.921 143.589L359.205 143.081L359.674 142.612L358.921 143.589L390.793 87.2916C397.224 75.7022 403.47 64.2954 409.53 53.0711L409.832 52.5137L410.507 51.7902L409.53 53.0613C413.739 45.2395 417.86 37.5122 421.894 29.8794L423.408 27.0147L424.014 25.7143L425.09 23.3384C425.754 21.8327 426.321 20.4931 426.78 19.3199C424.747 19.5285 422.939 19.7369 421.356 19.9455C418.94 20.3524 416.495 20.5683 414.045 20.591C405.249 21.0603 396.566 21.5197 387.998 21.9695C379.563 22.2921 359.312 22.1259 344.808 21.9695C344.368 21.9695 344.456 21.9695 344.368 21.9695H343.899L343.293 22.0282L342.863 23.0059L342.814 23.1231L342.472 23.749L341.69 25.1667L340.107 28.0118L333.832 39.3731C329.668 46.9538 325.541 54.5312 321.449 62.1053L321.732 50.7148L330.949 67.4828L311.128 68.0695L321.449 62.1053L313.434 77.1329C307.814 87.3599 302.126 97.4599 296.389 107.521L296.809 95.4068L305.918 113.886L285.208 113.974L296.408 107.56C287.866 122.509 279.197 137.361 270.391 152.399L271.417 141.878L277.105 158.91L259.317 158.793L270.391 152.399L244.226 197.169L244.637 185.436L253.433 203.465H233.436L244.265 197.208L231.618 219.216C225.93 229.189 215.98 241.704 229.526 216.762C233.312 209.638 237.166 202.507 241.089 195.37L233.436 199.789L247.745 199.486L241.372 187.088L241.079 195.37C248.546 181.786 256.193 168.225 264.018 154.686C263.295 157.453 257.245 167.045 255.085 171.914C259.63 164.493 263.745 157.698 267.791 150.912L259.375 155.801L272.844 155.967L268.573 142.944L267.791 150.942C271.886 144.039 275.903 137.136 280.194 129.608L267.967 151.049L268.768 142.885L273.303 155.938L259.375 156.016L267.967 151.049L263.168 159.468L267.977 151.059L259.375 156.026H273.303L268.778 142.924L267.977 151.108L293.74 106.132L285.286 111.021L300.973 110.933L294.063 96.971L293.74 106.132C298.695 97.4404 303.67 88.6505 308.586 79.851C312.134 73.6228 316.239 68.3628 320.432 61.6556L311.206 66.9841L328.222 67.6L320.686 51.4773L320.432 61.6556C323.294 57.1144 325.819 52.3695 327.987 47.4589L319.67 61.2156L319.904 51.8783L326.98 66.4268L311.206 66.1043L319.67 61.2156L292.919 105.653L293.212 97.3818L299.262 110.278L285.286 110.063L292.919 105.653C284.084 120.45 275.313 135.344 266.608 150.336L267.283 143.491L271.045 154.569H259.375L266.608 150.394L264.038 154.853L264.096 154.637C256.013 168.824 248.458 181.76 240.639 195.291L240.913 187.47L246.777 199.457H233.416L240.63 195.291L237.238 201.158L240.532 195.194L233.416 199.3L246.68 199.104L240.815 187.479L240.541 195.194C242.154 192.26 243.738 189.523 245.272 187.01L240.385 195.086L240.649 187.577L246.083 199.31L233.456 199.036L240.385 195.037C231.374 209.908 222.617 224.77 213.918 239.632L214.152 232.719L219.274 243.396L207.546 243.318L213.928 239.632L205.395 254.229L213.39 239.328L207.526 242.701L218.502 242.408L213.615 232.993L213.39 239.328C221.483 224.398 229.937 209.244 238.587 193.991L233.466 196.924L242.965 196.856L238.782 188.428L238.587 193.971C247.041 179.042 255.691 164.004 264.37 148.996L259.386 151.88H267.458L264.868 144.254L264.399 148.996L290.348 104.108L285.325 107.042H294.63L290.564 98.7114L290.378 104.148C299.174 88.9439 307.756 73.8966 316.073 59.1036L311.274 61.8706L320.383 61.763L316.2 53.8142L316.063 59.1036L318.37 54.9972C317.53 56.3008 316.679 57.6208 315.819 58.957L315.946 53.9412L319.641 61.9L311.274 61.5773L315.819 58.957C307.022 72.8603 297.972 90.2444 289.684 103.747L289.85 99.0537L293.212 106.474L285.393 106.25L289.723 103.747C287.827 106.827 285.98 109.701 284.182 112.282L289.264 103.483L285.354 105.712H292.518L289.401 99.2883L289.254 103.483C297.849 88.6083 306.544 73.6685 315.34 58.6637L311.304 60.9908H318.888L315.448 54.1467L315.34 58.6049L336.149 23.2112C334.927 25.4991 333.754 27.7478 332.6 30.0064C334.223 27.4447 335.836 24.8375 337.439 22.1846L340.547 17.0711H349.187L361.267 17.0123C369.301 16.9537 377.286 16.9048 385.086 17.0123C387.04 17.0123 388.946 17.0613 390.891 17.0906C388.936 17.0906 387.03 17.0319 385.086 17.0123C369.848 16.8168 354.787 16.6214 340.068 16.4258L336.051 23.1819L338.211 19.1537L339.882 16.1031C340.781 16.1031 341.69 16.1031 342.628 16.1031C343.743 16.1031 344.886 16.1031 346.059 16.1031C349.157 16.1031 352.402 16.1619 355.833 16.1912C353.37 15.9859 350.467 15.8196 347.291 15.6828C344.837 15.585 342.179 15.4676 339.472 15.3502L337.683 18.1956L320.716 47.2928C324.045 41.4264 327.303 35.6219 330.49 29.8794L335.21 21.3047L337.165 17.648L338.885 14.4214C342.237 14.2846 345.531 14.1576 348.747 14.0304C345.365 13.9522 341.964 13.8838 338.533 13.8056L332.669 23.6903L326.062 34.8755L312.897 57.2264L312.945 55.3882L314.363 58.2237H311.225L312.897 57.246L308.283 65.0678L312.76 57.1971L311.225 58.0769H314.158L312.828 55.5252V57.2166L327.87 30.6907L338.24 13.1895C352.9 13.3264 367.825 13.4632 382.838 13.6001C381.987 13.6001 381.117 13.6001 380.257 13.649H385.398C394.214 13.6881 403.076 13.7339 411.983 13.786C413.986 13.786 415.97 13.7273 417.954 13.6979C419.645 13.649 421.336 13.5905 423.027 13.5416C426.37 13.4047 429.869 13.2287 433.514 13.0331C434.687 13.0331 435.85 13.0331 437.004 13.0331C434.414 13.2678 433.153 13.5121 436.945 13.6392H437.16C435.205 16.6995 433.476 19.6231 431.746 22.5856L429.165 27.0536L426.311 32.0793C422.04 39.6078 417.691 47.3709 413.048 55.222L413.42 54.743L413.214 54.9385L413.048 55.222C410.653 59.2796 408.161 63.3763 405.571 67.473C402.248 72.7234 398.182 80.0368 393.843 87.9466C392.89 89.2768 392.102 90.7183 391.497 92.2389L388.672 97.3916C386.297 101.576 383.913 105.722 381.723 109.887C384.03 105.829 386.356 101.625 388.672 97.3916L391.311 92.718C390.739 94.3511 390.013 95.9257 389.142 97.4207L413.576 55.535L413.693 55.3493L413.84 55.2025L413.576 55.535L426.565 33.2134L438.128 12.7202H436.896C437.385 12.6713 437.874 12.6225 438.352 12.5834C437.766 13.8936 437.102 15.3309 436.818 16.0153L438.577 12.4562C436.857 12.5442 435.137 12.642 433.407 12.73L418.746 12.8376L402.131 13.0038C405.444 12.8669 408.523 12.6712 411.221 12.3779C398.912 12.3779 386.581 12.3779 374.227 12.3779C362.147 12.4301 350.037 12.4856 337.898 12.5443L327.753 30.427L312.203 56.6593V55.5252L313.072 57.2754H311.118L312.144 56.6788L285.755 101.322V100.726L286.205 101.703H285.149L285.706 101.381L282.305 107.159L285.892 101.498L285.149 101.928L286.498 101.977L285.921 100.686V101.498C293.291 89.7653 300.699 77.4655 308.146 64.9017L286.957 102.055L287.025 100.1L288.482 103.033H285.139L286.928 101.997C278.34 116.988 269.693 131.951 260.988 146.884L261.145 145.222L262.054 147.921H259.229L260.988 146.943C254.153 158.623 247.269 170.262 240.336 181.857C243.65 174.397 248.693 164.425 250.257 159.458C249.621 159.458 242.193 171.924 246.142 164.454C249.856 157.189 253.453 150.56 256.776 144.518L257.538 143.139H259.229L256.551 146.884L256.131 145.73L256.776 144.557C266.032 127.77 273.313 115.411 275.952 106.289C276.411 103.815 256.61 132.208 261.653 122.245C264.849 116.291 269.99 107.003 276.196 95.8467L279.04 90.7724L285.139 90.6843L275.854 105.546L273.44 100.765L276.196 95.8761L282.95 83.8206C285.621 79.3622 288.351 74.7245 291.14 69.9075C291.69 68.9345 292.157 67.9173 292.538 66.8667L304.794 45.3762H311.059L301.471 61.0199L298.803 55.8381L301.735 50.7246C307.824 40.1065 313.151 30.9452 316.698 25.0495L322.563 15.2722C323.13 14.4607 323.677 13.7078 324.185 13.0429L324.567 12.5541L325.163 11.7131L326.257 10.2074C327.811 7.17642 329.444 4.07708 331.144 0.977677L333.529 0.909169C345.258 1.0265 356.879 1.15372 368.402 1.27104C373.924 1.53503 379.427 1.79907 384.88 2.06306C384.773 1.86752 383.903 1.60338 384.929 1.41761C398.231 1.48605 411.426 1.55445 424.601 1.62289C433.241 1.86732 440.845 2.23901 446.885 2.75721C449.612 2.56166 452.749 2.40524 456.141 2.27813C453.805 6.76591 450.804 12.2411 447.393 18.303L442.008 27.7869L436.877 36.7235L422.871 60.717L422.236 61.7923L421.395 62.6333L422.871 60.6778L418.59 68.1769H418.658L402.346 96.2475C401.3 97.7336 400.264 99.1318 399.257 100.413C398.163 102.896 396.765 105.36 396.208 106.621C391.595 114.15 387.539 120.427 383.502 126.723C382.717 128.864 381.793 130.951 380.736 132.971C377.804 137.957 374.999 142.817 372.301 147.578L370.679 150.326L370.044 151.401L369.271 152.164L370.679 150.326L362.449 164.209L344.094 194.842L345.17 190.804V193.131L344.124 194.842L328.984 219.833C328.834 219.996 328.651 220.124 328.447 220.21C328.243 220.296 328.023 220.338 327.802 220.331C326.453 223.391 323.892 227.283 322.553 229.962C322.758 229.424 322.846 229.052 322.671 229.062C320.945 232.488 319.022 235.811 316.914 239.015L317.129 238.615L317.011 238.84L316.943 238.937L316.816 239.123L316.562 239.524L316.034 240.316L314.91 242.027C314.128 243.23 313.258 244.598 312.232 246.27C311.206 247.942 310.561 249.731 309.662 251.462L308.137 253.945C302.058 261.992 297.464 270.782 291.883 280.344L274.408 308.698C269.756 316.452 267.381 318.964 263.882 323.97Z" fill="#FEFEFE"/>
<path d="M205.903 237.344L186.356 271.789L181.137 280.589L181.019 280.804L181.127 281.028L181.528 280.364H181.254L181.117 280.589C177.67 286.357 174.227 292.044 170.787 297.65L165.636 305.97L159.918 315.122L180.492 280.227L180.843 279.64H181.528L180.482 281.351L180.189 280.774L180.511 280.227L205.903 237.344Z" fill="#FEFEFE"/>
<path d="M169.35 276.805C166.554 281.606 163.827 286.259 161.169 290.698L173.983 268.025H181.489L170.083 286.68L166.906 280.579L170.395 274.429L170.738 273.833L170.474 274.468L167.209 282.417L170.141 286.641L181.46 268.064L172.565 269.286L170.445 274.429C170.149 275.251 169.783 276.046 169.35 276.805Z" fill="#FEFEFE"/>
<path d="M103.719 319.483C99.4969 319.483 95.3918 319.483 91.3259 319.483C95.6459 319.434 99.9074 319.375 103.719 319.483Z" fill="#FEFEFE"/>
<path d="M163.691 42.4332C166.007 38.2094 168.343 33.9761 170.659 29.9185C168.47 34.0836 166.066 38.2583 163.691 42.4332Z" fill="#FEFEFE"/>
<path d="M43.1903 254.024C37.9222 263.224 32.5174 272.444 27.1027 281.4V280.109L28.0801 282.065H25.891L27.0636 281.39C22.4113 289.124 17.7397 296.701 13.1264 303.985C17.6908 296.633 22.2939 289.056 26.9462 281.322L25.891 281.928H27.8458L26.9658 280.129V281.292C32.3511 272.444 37.7561 263.283 43.1903 254.024Z" fill="#FEFEFE"/>
<path d="M294.004 13.5221C294.278 13.3266 294.131 13.8251 293.779 14.6073C293.428 15.3894 292.968 16.2206 292.704 16.8463L282.178 34.4454L275.835 44.7996C276.754 43.0593 277.428 41.3286 278.425 39.5883C279.422 37.8479 280.526 36.2347 281.357 34.9343L285.12 28.9116C287.612 24.942 290.202 20.5422 294.004 13.5221Z" fill="#FEFEFE"/>
<path d="M161.062 47.0971L160.876 47.5762L158.52 51.8685L158.188 52.3574C159.113 50.6105 160.071 48.857 161.062 47.0971Z" fill="#FEFEFE"/>
<path d="M296.33 2.34643C296.487 2.07267 296.643 1.78932 295.763 1.56444L301.745 1.65228L292.782 16.7094C293.173 15.9175 293.525 15.184 293.76 14.6072C295.5 11.3025 298.49 6.38453 300.807 2.19008C299.272 2.21941 297.767 2.26821 296.33 2.34643Z" fill="#FEFEFE"/>
<path d="M174.393 1.44702C171.735 6.08145 169.76 10.6378 168.802 12.5835C164.776 18.8312 160.739 25.069 156.155 32.5486C155.608 33.8001 154.201 36.2932 153.077 38.7864C152.099 40.0575 151.044 41.4654 149.978 42.9613L175.068 0C179.69 0 184.47 0.0489533 189.347 0.0685078C192.015 0.0685078 194.742 0.117232 197.469 0.146564C194.863 0.146564 192.256 0.146564 189.65 0.146564C184.9 0.146564 180.091 0.146564 175.194 0.146564L174.393 1.44702Z" fill="#FEFEFE"/>
<path d="M274.33 47.3026L266.413 60.1792L267.078 58.7126L266.716 59.6903L266.413 60.1792L258.115 73.6719C260.891 68.9006 263.422 64.3248 266.012 59.9837L266.354 59.397L266.638 58.6049L266.012 59.9837C268.541 55.6019 271.319 51.368 274.33 47.3026Z" fill="#FEFEFE"/>
<path d="M293.779 14.6073C293.525 15.1841 293.173 15.9175 292.802 16.7095L292.724 16.8463C292.968 16.2205 293.34 15.4579 293.779 14.6073Z" fill="#FEFEFE"/>
<path d="M85.6081 177.487L84.3181 179.687L93.7402 162.723C91.3456 167.309 88.5305 172.334 85.6081 177.487Z" fill="#FEFEFE"/>
<path d="M112.144 130.253L110.189 133.695L114.793 124.621L112.144 130.253Z" fill="#FEFEFE"/>
<path d="M45.2233 222.208L51.4493 211.796C50.3546 213.937 49.2991 216.068 48.2924 218.239C47.1886 219.497 46.1635 220.823 45.2233 222.208Z" fill="#FEFEFE"/>
<path d="M103.719 325.72L285.159 11.371H181.43L-0.00952148 325.759L103.719 325.72Z" fill="#FEFEFE"/>
<path d="M31.0804 286.533L13.8299 317.136L13.5464 317.635L13.3999 317.879L13.3316 318.006C13.3316 318.006 13.4293 318.006 13.4782 318.006H14.6412C15.4133 318.006 16.1855 318.006 16.9577 318.006C18.4824 318.006 19.9972 318.006 21.5024 318.006C28.5981 318.006 35.5473 317.98 42.3498 317.928L25.1384 318.026L16.459 318.114C18.0423 318.114 19.5378 318.114 21.0137 318.114C24.024 318.114 26.9758 318.114 29.9274 318.182C37.072 318.25 44.2066 318.378 51.8496 318.563L45.3602 322.621L52.2018 309.314L58.3004 322.621L51.811 318.563C53.4725 318.563 55.2705 318.651 57.0982 318.7C55.681 318.847 53.8341 318.925 51.811 318.974L57.9291 322.797L51.4392 310.263L45.6924 322.797L51.811 318.974C46.3572 319.111 39.7696 319.023 37.766 319.571H26.5162L18.6972 319.512L13.0677 319.414H11.103C11.103 319.414 11.103 319.414 11.103 319.346L11.4843 318.72L12.9794 316.256L15.9116 311.485L16.6255 310.331L17.7785 308.434L20.6519 303.634L32.1461 284.529L25.8714 288.156L37.5999 288.381L32.3513 277.626L32.1752 284.548L50.4718 254.239C44.3339 268.122 37.7659 275.592 32.273 284.548L32.4491 277.509L37.766 288.498L25.9005 288.225L32.273 284.548C31.8821 285.145 31.4812 285.829 31.0804 286.533Z" fill="#FEFEFE"/>
<path d="M54.997 236.757C56.1406 234.498 57.3233 232.249 58.5353 229.971L80.6822 192.583L77.7501 194.255L83.0479 194.323L80.751 189.435L80.6436 192.563L88.4626 179.423C85.9019 183.754 83.3604 188.222 80.7996 192.661L80.917 189.356L83.3996 194.392H77.7501L80.7996 192.632C72.404 207.435 63.9009 222.707 54.997 236.757Z" fill="#FEFEFE"/>
<path d="M108.323 323.882C115.712 310.605 124.381 296.437 132.532 282.456L132.689 282.182L132.796 281.869L132.532 282.456C138.152 272.815 143.537 263.253 148.092 254.102L131.193 281.644L131.33 281.332L131.252 281.537L131.184 281.644C120.432 299.244 110.58 314.887 107.727 316.54C104.531 318.446 116.894 298.5 128.163 279.914L128.027 280.217L128.095 280.021L128.163 279.914C132.151 273.334 135.982 266.91 138.983 261.689L135.493 266.695C137.248 264.348 138.783 261.845 140.077 259.215C136.598 264.212 130.304 274.175 127.909 276.678L130.098 271.711C128.662 273.666 127.098 275.846 125.407 278.32L125.348 278.408L125.016 279.181L125.407 278.32C120.853 284.969 115.633 293.182 110.502 301.062C107.951 304.973 105.429 308.884 103.054 312.404C101.872 314.173 100.718 315.865 99.6141 317.449L97.9919 319.737L97.2198 320.812L96.8385 321.33L96.6428 321.585L96.555 321.712L96.5063 321.77L96.3789 322.015L103.455 311.465C105.788 307.958 108.143 304.373 110.522 300.71C115.265 293.397 120.074 285.81 124.948 277.949L124.518 278.926L124.762 278.262L124.958 277.958C129.323 270.925 133.741 263.703 138.211 256.292L144.925 245.087L151.611 233.814L151.757 233.54C160.368 218.874 169.057 203.876 177.755 188.662L177.618 188.936L203.548 143.267L202.757 145.897V144.714L203.401 143.57L228.921 98.4474L228.989 98.3204L229.116 98.1347L228.921 98.4474L235.323 87.1937C241.734 75.65 247.957 64.2726 253.991 53.0613L253.492 54.1562L253.619 53.7555L253.991 53.0515C258.2 45.2297 262.321 37.5057 266.354 29.8794L267.869 27.0147L268.475 25.7045L269.55 23.3385C270.215 21.8328 270.782 20.4932 271.241 19.3199C269.208 19.5285 267.397 19.737 265.807 19.9455L263.598 20.2683L263.1 20.3466H262.982C262.982 20.3466 262.738 20.3466 262.621 20.3466H261.8C260.695 20.4052 259.591 20.4638 258.487 20.5127C249.69 20.982 241.007 21.4414 232.439 21.8912C224.004 22.2139 203.744 22.0476 189.249 21.8912H188.36L187.763 21.9499L187.333 22.9277V23.0451L186.991 23.6707L186.2 25.0884L178.351 39.2948C174.188 46.8755 170.06 54.4496 165.968 62.0172L165.587 49.4829L178.137 67.3167L155.657 67.9815L165.978 62.0172L157.964 77.0548C152.34 87.2818 146.659 97.4079 140.918 107.433L138.866 91.8477L160.944 113.749L129.737 113.886L140.918 107.433C132.376 122.382 123.696 137.244 114.89 152.281L115.193 140.069L124.644 158.812L103.817 158.676L114.89 152.281L88.736 197.051L89.1464 185.319L97.9428 203.348H77.9457L88.7751 197.091L76.1179 219.109C70.4296 229.092 60.4803 241.597 74.0267 216.655C77.8189 209.531 81.6726 202.396 85.5886 195.252L77.9457 199.672L92.1372 199.466L85.7647 187.069L85.4813 195.35C92.9354 181.766 100.575 168.205 108.401 154.667C107.678 157.444 101.627 167.035 99.4771 171.894C104.012 164.483 108.127 157.678 112.183 150.883L103.768 155.772L119.543 155.967L112.418 141.634L112.183 150.922C116.278 144.01 120.296 137.107 124.586 129.569L112.359 151.02L112.603 141.536L120.051 155.899L103.768 155.987L112.369 151.02L107.56 159.448L112.369 151.03L103.768 155.997L120.051 155.938L112.613 141.526L112.369 151.03L138.142 106.054L129.688 110.943L153.321 110.806L136.598 94.2627L138.142 106.054C143.088 97.3719 148.063 88.5725 152.979 79.7827C156.527 73.5448 160.641 68.2845 164.834 61.5773L155.608 66.9059L175.018 67.6098L164.492 50.3823L164.834 61.5969C167.687 57.0642 170.206 52.3292 172.37 47.4296L164.072 61.1178L163.759 50.8321L173.582 66.3683L155.608 65.9966L164.072 61.108L137.321 105.546L135.923 94.9081L150.828 110.278L129.688 109.955L137.321 105.546C128.525 120.349 119.67 135.259 111 150.238L111.206 142.25L117.422 154.432H103.739L110.971 150.257L108.401 154.716L108.46 154.501C100.377 168.687 92.8214 181.623 85.0513 195.155L85.3152 187.333L91.1794 199.32H77.8188L85.0317 195.155L81.6305 201.07L84.9339 195.096L77.8188 199.202L91.0816 199.007L85.2174 187.382L84.9439 195.096C86.5468 192.163 88.14 189.425 89.6647 186.922L84.7778 194.988L85.0417 187.479L90.4755 199.212L77.8479 198.938L84.7778 194.94C75.7664 209.811 66.999 224.672 58.3004 239.534L57.1279 230.646L69.6576 243.356L51.9184 243.249L58.3004 239.563L49.768 254.16L57.763 239.26L51.8988 242.633L68.3576 242.193L56.6291 231.106L57.7044 239.26C65.8068 224.33 74.2611 209.185 82.9109 193.923L77.7892 196.856L87.2895 196.787L83.1061 188.359L82.9109 193.903C91.3652 178.973 100.015 163.936 108.684 148.928L103.7 151.812H113.141L108.86 143.423L108.723 148.928L134.682 104.03L129.659 106.963H143.684L133.783 97.0689L134.712 104.069C143.508 88.8656 152.089 73.8186 160.407 59.0255L155.608 61.7924L165.958 61.6752L160.221 53.1981L160.397 59.0645L162.684 54.9972C161.844 56.2682 161.003 57.5686 160.153 58.9081L159.987 53.384L165.147 61.8902L155.608 61.5186L160.153 58.8983C151.356 72.8016 142.306 90.1857 134.018 103.688L133.226 97.6556L141.612 106.523L129.688 106.191L134.018 103.688C132.122 106.778 130.274 109.652 128.466 112.233L133.558 103.434L129.649 105.663H140.449L132.835 98.0466L133.549 103.434C142.137 88.5594 150.832 73.6196 159.635 58.6147L155.598 60.9419L164.228 61.0003L159.488 53.7163L159.635 58.605L180.424 23.2504C179.202 25.5383 178.029 27.787 176.885 30.0945C178.508 27.5328 180.121 24.9256 181.724 22.2727L184.841 17.1494H193.569L205.64 17.0906C213.674 17.032 221.659 16.9831 229.449 17.0906C231.404 17.0906 233.309 17.1396 235.254 17.1689C233.3 17.1689 231.345 17.1102 229.449 17.0906C214.221 16.8951 199.199 16.6997 184.49 16.5041L180.453 23.2895L182.623 19.2416L184.303 16.1814C185.203 16.1814 186.112 16.1814 187.04 16.1814C188.164 16.1814 189.298 16.1814 190.461 16.1814C193.563 16.1814 196.821 16.2106 200.235 16.2693C197.782 16.0639 194.879 15.8979 191.702 15.7611C189.259 15.6633 186.61 15.5459 183.883 15.4286L182.075 18.2932L165.098 47.4002C168.441 41.5339 171.725 35.7359 174.872 29.977L179.603 21.3928L181.557 17.7263L183.268 14.4998C186.62 14.3629 189.894 14.2356 193.11 14.1085C189.741 14.0303 186.347 13.9586 182.926 13.8935L177.061 23.7686L170.454 34.944L157.289 57.2949L157.23 55.271L159.185 58.302H155.608L157.279 57.3243L152.666 65.1461L157.142 57.2656L155.608 58.1454H158.911L157.084 55.4273L157.142 57.2852L172.175 30.7984L182.554 13.2678C197.215 13.4047 212.12 13.5415 227.122 13.6784C226.262 13.6784 225.402 13.6784 224.542 13.7273H229.683C238.499 13.7664 247.361 13.8119 256.268 13.8641L262.24 13.7762C263.93 13.7274 265.631 13.6685 267.312 13.6197C270.655 13.4828 274.154 13.3068 277.809 13.1112C278.972 13.1112 280.135 13.1112 281.298 13.1112C278.699 13.3459 277.448 13.5904 281.23 13.7175H281.464C279.51 16.7778 277.78 19.7011 276.05 22.6636L273.469 27.1319L270.615 32.1478C266.344 39.6763 261.995 47.4394 257.353 55.2906L257.255 55.4567L257.167 55.6913L257.353 55.2808C254.958 59.3286 252.466 63.4155 249.885 67.5024C246.572 72.7332 242.516 80.0368 238.157 87.9368C237.2 89.2646 236.412 90.7065 235.811 92.2292L232.987 97.3818L231.394 100.178L231.481 100.031L231.423 100.119V100.178C229.585 103.404 227.767 106.631 226.067 109.848C227.855 106.719 229.654 103.483 231.462 100.198L231.531 100.09L231.442 100.227L232.997 97.4112L235.635 92.7376C235.06 94.3712 234.331 95.9459 233.456 97.4403L257.89 55.6228L257.763 55.926L257.812 55.7598L257.89 55.6228L270.879 33.3015L282.53 12.7202H281.288C281.767 12.6713 282.266 12.6226 282.754 12.5834C282.178 13.8838 281.504 15.3211 281.23 16.0055L282.979 12.4562C281.249 12.5442 279.529 12.642 277.799 12.73L263.139 12.8377L246.523 13.0038C249.846 12.8669 252.925 12.6712 255.623 12.3779C243.327 12.3779 231.003 12.3779 218.649 12.3779C206.568 12.4301 194.462 12.4856 182.329 12.5443L172.175 30.4561L156.644 56.718V55.4763L157.846 57.3339H155.657L156.683 56.7376L130.294 101.381L130.196 100.608L131.281 101.723H129.737L130.294 101.4L126.893 107.188L130.48 101.518L129.737 101.948L131.78 102.026L130.343 100.471L130.48 101.518C137.839 89.7849 145.258 77.4849 152.705 64.9308L131.516 102.085L131.184 99.5915L134.712 103.101H129.727L131.516 102.065C122.921 117.057 114.272 132.023 105.567 146.962L105.615 145.007L107.11 147.94H103.807L105.567 146.962C98.7315 158.656 91.8507 170.297 84.9243 181.887C88.2279 174.417 93.2708 164.454 94.8345 159.477C94.1993 159.477 86.7713 171.953 90.7199 164.483C94.4339 157.209 98.031 150.58 101.354 144.538L102.116 143.159H103.807L101.285 147.285L100.582 145.975L101.354 144.577C110.61 127.789 117.901 115.431 120.54 106.308C120.999 103.835 101.188 132.228 106.231 122.255C109.437 116.301 114.568 107.012 120.784 95.8565L123.628 90.7822L129.727 90.6941L122.426 108.293L116.836 102.867L120.745 95.8174L127.499 83.7717C130.167 79.323 132.884 74.6788 135.689 69.8586C136.236 68.8858 136.7 67.8688 137.077 66.818L149.343 45.3178H155.608L146.626 62.027L142.951 56.5029L146.284 50.7051C152.363 40.0967 157.68 30.9547 161.228 25.0688L167.092 15.2915C167.659 14.48 168.206 13.7274 168.715 13.0625C168.851 12.8963 168.979 12.7399 169.096 12.5737C169.213 12.4074 169.496 12.0163 169.682 11.7523L170.777 10.2563C172.341 7.19604 173.983 4.08686 175.664 0.958125L177.99 0.899404C189.718 1.01673 201.352 1.13743 212.892 1.26128C218.414 1.52526 223.917 1.78931 229.371 2.05329C229.253 1.85775 228.393 1.59361 229.371 1.40784C242.663 1.47628 255.857 1.54469 269.033 1.61313C277.673 1.85756 285.276 2.22925 291.316 2.74744C294.043 2.5519 297.18 2.39547 300.611 2.26837C298.275 6.75614 295.265 12.2313 291.815 18.2932L286.43 27.7771L281.288 36.7137L267.293 60.6974L268.036 59.0353L267.752 59.8858L267.293 60.6974L262.982 68.2259H263.06L246.641 96.4724C245.595 97.9683 244.559 99.4056 243.552 100.657C242.77 102.417 241.832 104.177 241.167 105.477C240.884 106.035 240.649 106.455 240.493 106.856C235.909 114.336 231.882 120.544 227.846 126.811C227.068 128.947 226.147 131.028 225.089 133.04C222.157 137.997 219.391 142.817 216.713 147.559L215.101 150.287L216.293 145.857V148.302L214.827 150.766L206.832 164.278L197.733 179.511L193.188 187.079L190.92 190.843L189.777 192.73L189.21 193.708L188.926 194.177L188.79 194.412L188.721 194.529V194.587C188.721 194.587 188.624 194.764 188.819 194.392L188.546 194.891L173.416 219.872C173.266 220.035 173.083 220.164 172.879 220.25C172.675 220.337 172.455 220.377 172.233 220.37C170.875 223.43 168.324 227.322 166.985 230.001C167.19 229.463 167.268 229.101 167.092 229.101C165.368 232.531 163.446 235.858 161.335 239.064L161.55 238.664L161.433 238.888L161.365 238.986L161.238 239.182L160.983 239.573L160.446 240.375L159.332 242.086C158.54 243.288 157.67 244.657 156.644 246.339C155.618 248.02 154.973 249.81 154.054 251.55L152.529 254.043C146.45 262.1 141.837 270.919 136.236 280.549L134.497 283.365L134.946 282.388L134.702 283.043L134.497 283.365L118.858 308.728C114.196 316.373 111.812 318.886 108.323 323.882Z" fill="#FEFEFE"/>
<path d="M101.647 128.483C99.1546 131.758 96.5353 135.562 93.8279 139.756L122.993 89.4718H129.678L121.507 109.222L115.223 102.925L133.617 71.1786H133.685C129.58 78.4822 124.586 86.9395 119.709 95.2697L115.272 102.837L121.537 109.183L129.678 89.511H123.101L119.709 95.3089C112.085 108.254 104.843 120.915 101.647 128.483Z" fill="#FEFEFE"/>
<path d="M50.2957 237.334L30.7482 271.789L25.5291 280.589L25.4117 280.804L25.5191 281.029L25.92 280.364H25.6465L25.5096 280.589C22.0562 286.357 18.6123 292.044 15.1784 297.65L10.0181 305.98L4.30035 315.122L24.8839 280.227L25.2356 279.64H25.92L24.8744 281.351L24.5809 280.774L24.9035 280.227L50.2957 237.334Z" fill="#FEFEFE"/>
<path d="M75.6684 172.09C72.9512 176.314 70.1951 180.587 67.4389 184.889L64.3111 189.777L67.048 196.152L77.7992 178.934L71.4949 178.621L67.4389 184.918L66.7545 185.974L70.9771 178.817L77.8188 178.885L67.0184 196.181L64.2233 190.315L75.1405 171.767C74.7691 172.745 75.4338 172.09 75.6684 172.09Z" fill="#FEFEFE"/>
<path d="M13.7812 276.805C10.986 281.606 8.25896 286.259 5.6005 290.698L18.4138 268.025H25.9202L14.5143 286.68L11.3378 280.579L14.8269 274.429L15.1595 273.833L14.9051 274.478L11.6408 282.417L14.573 286.641L25.8911 268.064L16.9968 269.286L14.876 274.429C14.5809 275.251 14.2145 276.046 13.7812 276.805Z" fill="#FEFEFE"/>
<path d="M777.99 319.482C770.953 319.482 764.101 319.482 757.328 319.482C764.571 319.434 771.637 319.375 777.99 319.482Z" fill="#FEFEFE"/>
<path d="M777.99 330.042L596.57 15.6729H492.802L311.352 330.042H415.003L544.603 105.477L674.212 330.061L777.99 330.042Z" fill="#FEFEFE"/>
<path d="M319.201 325.534L313.151 325.613H311.44C311.44 325.613 311.382 325.613 311.353 325.613C311.323 325.613 311.353 325.564 311.353 325.534L311.538 325.212L311.89 324.576L313.337 322.015L319.152 311.788C317.285 315.19 315.389 318.573 313.464 321.976L312.007 324.527L311.646 325.163L311.46 325.486C311.46 325.486 311.411 325.544 311.46 325.554H313.229L319.201 325.534Z" fill="#FEFEFE"/>
<path d="M422.431 115.46C422.236 115.509 422.431 114.912 422.832 114.062C423.233 113.211 423.672 112.4 423.965 111.725L433.036 96.5407L435.772 91.9552L440.845 92.0335L432.303 103.952L431.013 99.9236L433.036 96.5407L444.315 77.6901C442.741 80.5744 441.461 83.3511 439.79 86.255C437.131 90.7134 435.147 93.8714 433.358 96.7264L431.404 99.777L432.615 103.835L440.806 92.3951L436.134 92.229L433.319 96.7264C430.084 101.947 427.377 106.211 422.431 115.46Z" fill="#FEFEFE"/>
<path d="M328.036 325.486C328.31 325.486 328.603 325.427 328.887 325.408C331.597 325.368 334.278 325.329 336.93 325.29C337.253 325.29 337.556 325.29 337.908 325.29L332.953 325.378L328.036 325.486Z" fill="#FEFEFE"/>
<path d="M413.918 130.047C413.547 130.135 413.166 130.233 412.403 131.113L423.888 111.862C423.487 112.673 423.115 113.446 422.832 114.071C420.535 118.461 416.381 125.051 413.918 130.047Z" fill="#FEFEFE"/>
<path fill-rule="evenodd" clip-rule="evenodd" d="M301.726 325.681L301.764 325.28L302.37 319.267V318.808L302.605 318.426L303.211 317.4C303.612 316.716 304.012 316.031 304.423 315.356L311.46 303.516L313.415 300.299L314.666 298.256L322.025 286.308C322.306 285.741 322.637 285.02 323.021 284.184C323.769 282.553 324.718 280.485 325.886 278.271V285.409L329.18 288.733L329.243 288.58L329.297 288.635L337.116 269.794H337.026L337.087 269.648H330.783C334.243 263.68 337.621 257.837 340.908 252.078L325.886 277.773V277.889L306.036 311.993L303.924 315.64L302.869 317.468L302.341 318.378L302.077 318.827L302.009 318.945V319.189L301.608 324.342L301.506 325.681H301.726ZM326.042 277.976C326.356 277.388 326.685 276.79 327.03 276.189L327.567 275.348L330.822 269.794H337.026L329.243 288.58L326.042 285.33V277.976Z" fill="#FEFEFE"/>
<path d="M422.832 114.062C423.115 113.436 423.487 112.663 423.888 111.852L423.965 111.725C423.672 112.448 423.291 113.191 422.832 114.062Z" fill="#FEFEFE"/>
<path d="M496.956 183.461L499.096 179.794L492.822 190.95L483.224 207.933C486.156 202.595 489.332 196.875 492.724 190.892L496.956 183.461Z" fill="#FEFEFE"/>
<path d="M604.829 190.667L617.016 211.473L629.243 232.474L628.999 232.005L678.787 317.84L652.993 273.51L667.146 298.041L673.919 309.94L677.154 315.66L678.562 318.231C679.441 318.231 680.331 318.29 681.23 318.309C683.146 318.309 685.1 318.338 687.094 318.397C691.444 318.456 695.891 318.524 700.445 318.593C697.2 318.798 692.578 318.866 687.818 318.915C685.609 318.915 683.38 318.915 681.25 318.974C680.145 318.974 679.08 319.033 678.122 319.072C677.607 318.214 676.997 317.417 676.304 316.696L652.378 274.976L628.247 232.464L628.471 232.875L602.796 187.254L602.385 186.531L601.701 185.817L602.786 187.254L577.374 142.025L576.905 141.203L576.123 140.392L577.374 142.025L573.885 135.806C575.253 137.859 576.553 139.864 577.794 141.79L576.465 140.069L577.022 140.578L577.794 141.79C589.161 159.751 595.143 173.39 602.864 187.196L601.76 185.739L602.444 186.462L602.864 187.196L604.829 190.667Z" fill="#FEFEFE"/>
<path d="M554.435 111.832C551.728 107.521 549.099 102.847 546.46 98.2517L545.424 96.3451L544.652 94.8883L544.583 94.7709C544.583 94.7709 544.583 94.6927 544.524 94.7709L544.397 95.0055L538.132 106.23L529.854 120.446L515.838 144.361L516.347 143.696L516.064 143.97L515.838 144.361L494.102 181.378C501.178 169.254 508.323 156.749 515.516 144.176L515.741 143.775L516.083 143.432L515.516 144.176L524 129.373L533.177 113.504L535.914 108.792L537.282 106.455L544.026 94.3212L544.368 93.7249L544.534 93.4315C544.534 93.3533 544.583 93.4314 544.613 93.5096L544.69 93.6662L545.365 94.9177L546.684 97.411L549.313 102.358L551.894 107.247L554.435 111.832Z" fill="#FEFEFE"/>
<path d="M571.305 144.166L571.891 145.143L571.637 144.821L571.784 144.958L571.891 145.143C580.561 160.103 589.211 175.228 597.616 190.168L597.411 189.904L597.538 190.041L597.616 190.168C604.995 203.299 612.189 216.264 619.06 228.876C612.094 216.251 604.907 203.374 597.499 190.246L597.43 190.119L597.313 190.002L597.499 190.246C589.152 175.424 580.571 160.347 571.882 145.143L571.784 144.977L571.637 144.821L571.882 145.143L571.305 144.166Z" fill="#FEFEFE"/>
<path fill-rule="evenodd" clip-rule="evenodd" d="M754.787 279.269C762.489 292.82 770.103 306.176 777.521 318.749C775.781 315.331 774.4 312.455 772.973 309.484C770.617 304.578 768.136 299.413 763.711 291.119L755.002 275.416H754.942L736.872 242.809L731.008 232.621L729.385 229.825H729.221C722.857 218.872 716.924 208.526 711.714 197.706L709.369 193.473C708.72 192.434 708.064 191.426 707.41 190.422C706.761 189.424 706.114 188.43 705.478 187.412C705.472 187.402 705.465 187.392 705.459 187.381C705.039 186.707 704.628 186.032 704.218 185.328C701.766 180.911 700.048 177.662 698.497 174.73C695.555 169.165 693.216 164.74 687.602 155.635C687.602 155.38 688.023 155.84 688.58 156.612C687.432 154.796 686.103 152.485 684.715 150.073C683.657 148.233 682.565 146.335 681.495 144.554L681.523 144.459L680.028 142.152L679.266 140.979C679.422 140.353 679.356 139.693 679.08 139.111L657.407 100.411L657.411 100.403L655.261 96.58L653.023 92.5908L653.012 92.5906L627.387 47.1362H627.319L626.047 44.8874L610.126 16.856L601.496 1.98475H580.531C577.054 1.99892 573.869 2.29542 571.527 2.51346C570.637 2.59633 569.869 2.66787 569.252 2.70826L569.041 2.70191C556.728 2.33249 544.442 1.96385 529.913 1.73053C528.974 1.79128 527.607 1.83021 526.006 1.87583C523.741 1.94034 521.007 2.01821 518.351 2.19003C515.614 1.95538 512.769 1.75996 509.749 1.59375H487.27L465.875 38.5615H465.954L460.375 48.2942L435.367 91.349H435.313L432.615 96.0422C423.916 111.168 416.293 124.787 412.022 133.734C411.416 134.616 410.804 135.517 410.183 136.443L410.155 136.442L408.485 139.002C408.019 139.71 407.547 140.434 407.067 141.174C406.595 141.897 406.118 142.634 405.636 143.383L404.262 145.506L404.27 145.519C402.777 147.864 401.242 150.316 399.678 152.848L377.941 190.266L377.947 190.278L368.627 206.281C368.111 207.463 368.487 207.165 368.829 206.894C368.954 206.795 369.074 206.7 369.144 206.682L357.451 225.66H357.348L355.085 229.499L354.728 230.079L354.425 230.607L351.796 235.095L330.99 270.522L330.841 270.528L329.441 273.161L329.385 273.255L328.232 275.406L326.795 278.095L326.796 278.131C325.807 280.006 324.836 281.885 323.882 283.766C322.543 285.506 320.95 287.833 319.152 290.61L306.563 312.013L303.905 316.569L303.201 317.762L302.849 318.368C302.813 318.519 302.791 318.673 302.781 318.827L302.595 320.626L302.083 325.681H425.518L425.734 324.948L425.871 324.489V324.371C425.874 324.358 425.877 324.347 425.878 324.338C425.888 324.293 425.888 324.293 425.969 324.293H427.181C427.301 324.305 427.422 324.305 427.543 324.293L427.611 324.176L428.109 323.296L429.087 321.526L436.749 307.994L449.348 285.594L449.67 284.978L449.533 285.252L449.583 285.184L449.66 285.037L449.817 284.754L450.13 284.206L450.726 283.14L451.859 281.126L453.814 277.577L456.981 271.887C459.376 267.399 458.76 267.78 456.619 270.616C455.554 272.043 454.108 274.077 452.466 276.423L449.885 280.139L448.536 282.094L447.853 283.072L447.51 283.571L447.247 283.952V284.009L447.1 284.284C446.696 284.871 446.292 285.458 445.89 286.043C440.296 294.178 435.057 301.797 435.586 300.182C438.068 294.133 440.853 288.214 443.933 282.446L444.051 282.221L445.907 278.682L447.96 274.878L452.407 266.773L462.601 248.617C469.931 235.623 478.249 220.859 487.231 204.159C490.973 197.307 488.868 200.676 486.126 205.063C483.926 208.583 481.316 212.759 480.986 212.842C482.96 208.042 486.99 200.106 491.192 191.83C491.442 191.339 491.692 190.847 491.942 190.354V190.314L492.03 190.197L491.942 190.305V190.314L491.912 190.354L492.366 189.464C494.669 184.949 496.97 180.438 498.969 176.392L491.043 189.855L464.849 234.665L438.802 279.64L438.87 279.513L413.586 323.511L367.044 323.672L366.768 323.102L367.532 323.579L367.103 322.689L368.089 323.305L367.099 321.299C368.371 321.305 369.644 321.309 370.916 321.314L371.49 321.673L371.321 321.316C371.406 321.316 371.491 321.316 371.575 321.317L371.91 321.526L371.82 321.317C383.246 321.359 394.659 321.379 406.06 321.379H412.218C412.277 321.35 412.318 321.273 412.361 321.194C412.389 321.142 412.417 321.089 412.452 321.047L428.051 294.081C424.845 298.989 421.503 304.474 418.004 310.341L413.253 318.378L412.022 320.49L411.924 320.665H408.005C405.403 320.676 402.792 320.691 400.164 320.707C395.418 320.735 390.617 320.763 385.711 320.763H371.58L371.299 320.114C371.979 320.112 372.66 320.11 373.34 320.108L374.002 320.519L373.79 320.106C386.211 320.07 398.72 320.031 411.318 319.991C411.389 320.001 411.462 320.001 411.533 319.991L411.641 319.805L411.865 319.414L412.315 318.642L416.137 311.964L435.772 277.958L435.586 278.32L487.632 188.086L488.55 186.883L488.011 187.422L513.429 142.983L514.314 141.859L513.737 142.445L513.429 142.983L513.337 143.1L535.63 103.795C535.977 103.2 536.315 102.548 536.661 101.883L536.764 101.684L542.453 90.7919L543.586 88.6018L544.163 87.4968L544.446 86.9492V86.959L544.515 87.096L544.661 87.3601L551.552 100.109C552.678 102.264 553.8 104.147 554.928 106.041C555.346 106.743 555.764 107.447 556.185 108.166L560.856 116.046L573.406 136.882L561.003 115.255L556.243 106.983L553.868 102.837C553.352 101.957 552.835 100.961 552.316 99.9591C552.04 99.425 551.762 98.8895 551.483 98.3693L545.512 86.9395L544.915 85.7956L544.613 85.2284L544.466 84.9353C544.417 84.8865 544.403 84.8377 544.399 84.8385C544.397 84.8388 544.397 84.8472 544.397 84.8668L544.319 85.0036L541.925 89.5208C541.061 91.1266 540.198 92.7578 539.336 94.3887C536.991 98.8249 534.648 103.258 532.268 107.169L524.049 121.258L512.288 141.236L512.281 141.243L512.093 141.567L511.714 142.21L511.738 142.18L511.714 142.22L495.963 168.733C499.264 163.138 502.776 156.888 506.296 150.621C506.949 149.459 507.602 148.297 508.254 147.138L485.979 185.737L485.736 185.983C494.13 171.21 502.425 156.453 510.619 141.712L511.128 140.793L511.211 140.709L510.669 141.692L512.105 139.815L511.211 140.709L521.8 121.532L531.829 103.512L534.126 99.3274C534.477 98.6821 534.819 97.9781 535.152 97.2937L536.129 95.3382L539.237 88.8364C542.697 81.5426 543.205 79.675 541.72 81.826C540.977 82.8917 539.736 84.9548 538.123 87.7804L535.435 92.5614L533.92 95.3089C533.564 95.9742 533.199 96.5656 532.824 97.172C532.654 97.4478 532.481 97.7268 532.307 98.0172C530.079 101.645 527.626 105.692 525.143 109.887L521.898 115.362L520.071 118.501L508.583 138.519L508.518 138.583L507.687 140.011L481.709 184.879L430.944 272.19L430.142 273.578L429.742 274.282L429.557 274.591L429.585 274.536L407.408 313.059V313.127C406.029 313.135 404.653 313.149 403.28 313.163C401.229 313.184 399.181 313.206 397.127 313.206L373.836 313.44C372.693 313.465 371.549 313.49 370.405 313.515L362.694 298.5L355.262 313.781C349.246 313.894 343.22 314.005 337.185 314.115L333.949 314.164H333.158L332.493 314.261C332.004 314.33 331.467 314.389 330.88 314.447C331.021 314.018 331.194 313.599 331.398 313.196L331.731 312.453L331.828 312.257V312.159C331.879 312.047 331.937 311.94 332.004 311.837L343.365 291.68L363.231 291.48L350.512 279.004L352.823 274.908L369.186 246.915H380.355L375.266 236.421C380.923 226.637 385.865 217.978 388.829 212.568L395.022 200.99L405.708 200.649L400.405 191.007L419.992 154.571L431.257 154.256L424.903 145.49L445.076 108.369L450.96 108.234L448.632 101.836C455.727 88.8652 462.951 75.7305 470.306 62.4315L476.607 62.3203L473.621 56.4584L495.685 16.8266C496.927 16.7582 498.187 16.7581 499.448 16.7581C501.514 16.7125 503.582 16.6898 505.654 16.6898C534.321 16.5432 563.779 16.3965 593.54 16.2499L617.048 56.4848L614.808 60.9222H619.652L643.253 101.471L641.216 105.663H645.672L669.371 146.673L668.055 150.531H671.649C679.538 164.249 687.283 177.804 694.884 191.198L692.587 195.604L697.445 195.642C705.241 209.385 712.828 222.883 720.207 236.134L717.715 241.039L722.983 241.126C730.634 254.897 737.999 268.323 745.078 281.404L743.01 286.963L748.157 287.104C756.154 301.932 763.694 316.209 770.777 329.934C765.294 318.652 756.859 302.937 748.348 287.109L751.953 287.208L751.631 287.022L751.953 287.032L746.665 283.981L746.8 284.232L746.518 284.069L746.472 283.593C746.539 283.719 746.607 283.845 746.675 283.971L746.177 278.946L746.049 279.288L746.01 278.897L745.167 281.165C737.208 266.353 729.492 251.911 724.361 241.352L729.376 248.871C728.724 247.251 727.384 244.492 725.695 241.171L726.033 241.176L725.558 240.901C725.18 240.159 724.785 239.389 724.377 238.599L725.791 238.662L749.628 281.089L748.962 282.994H750.728C761.405 301.866 769.425 315.601 768.695 311.944C768.07 308.796 761.805 296.623 752.95 280.315L752.666 279.787H752.634C745.818 267.231 737.504 252.285 729.11 237.223L729.773 235.845L731.027 237.852L731.035 237.836C737.953 249.733 744.906 261.98 751.809 274.136C752.051 274.563 752.293 274.99 752.535 275.416H752.07L753.71 277.714H752.051L754.983 281.85L755.442 280.53L754.729 279.278C754.602 279.055 754.476 278.833 754.349 278.61L754.665 279.053L754.787 279.269ZM753.84 277.714C754.01 278.013 754.179 278.311 754.349 278.61L753.71 277.714H753.84ZM727.951 232.641C728.273 233.191 728.594 233.741 728.916 234.293L729.796 235.799L729.773 235.845L727.772 232.641H727.951ZM726.301 229.825H726.013L727.772 232.641H726.542L710.121 203.064C715.454 211.577 720.86 220.562 726.301 229.825ZM727.269 233.951H727.274L727.831 234.929C728.258 235.693 728.684 236.458 729.11 237.223L729.023 237.402L728.24 236.15L728.359 235.906L727.812 234.929L727.269 233.951ZM726.863 233.951L726.043 232.641H726.542L727.269 233.951H726.863ZM725.684 238.472L726.033 238.673L725.791 238.662L725.684 238.472ZM723.963 237.48L725.684 238.472L725.126 237.48H723.963ZM723.797 237.48C723.993 237.857 724.186 238.23 724.377 238.599L721.664 238.478L722.998 235.995C723.227 236.436 723.453 236.872 723.677 237.304L723.589 237.48H723.797ZM723.695 237.268L723.619 234.84L722.998 235.995C721.549 233.206 720.001 230.264 718.509 227.428C716.54 223.684 714.668 220.125 713.249 217.349C714.939 220.029 716.533 222.768 718.029 225.56L720.364 230.128C719.615 228.59 718.836 227.067 718.029 225.56L715.751 221.103C718.355 225.573 721.247 230.636 724.305 236.042L723.695 237.268ZM723.695 237.268L723.697 237.343C723.69 237.33 723.684 237.317 723.677 237.304L723.695 237.268ZM723.797 237.48C723.774 237.435 723.75 237.389 723.726 237.343L723.963 237.48H723.797ZM745.272 281.36C745.671 282.104 746.071 282.848 746.472 283.593L746.049 279.288L745.272 281.36ZM745.182 281.598C745.629 282.423 746.074 283.247 746.518 284.069C747.032 285.02 747.544 285.968 748.055 286.914L743.245 286.768L745.182 281.598ZM748.246 286.919C748.016 286.493 747.787 286.066 747.557 285.639L746.8 284.232L751.631 287.022L748.246 286.919ZM363.484 246.595L362.928 246.915H363.301C363.095 247.276 362.889 247.636 362.683 247.996C357.451 257.149 352.194 266.347 346.911 275.471L346.403 274.973L365.921 241.704H366.281C365.349 243.332 364.417 244.963 363.484 246.595ZM371.963 241.704H366.281C366.352 241.58 366.423 241.455 366.494 241.331L371.725 241.372L369.35 236.412C369.378 236.363 369.405 236.314 369.433 236.266L372.075 241.64L371.963 241.704ZM369.294 235.981L382.046 214.455C377.862 221.602 373.662 228.898 369.433 236.266L369.294 235.981ZM369.211 236.121L369.35 236.412C368.874 237.24 368.399 238.068 367.923 238.898L367.945 238.257L369.211 236.121ZM368.1 233.802L368.108 233.569L369.294 235.981L369.211 236.121L368.1 233.802ZM363.698 241.309L363.016 241.704H365.921L366.142 241.328L366.494 241.331C366.964 240.509 367.434 239.689 367.903 238.869L367.42 239.149L366.142 241.328L363.698 241.309ZM346.099 274.676C349.479 268.823 353.085 262.652 356.966 256.057C353.753 261.012 349.86 267.346 345.677 274.262L346.099 274.676ZM345.319 274.855L345.601 275.538C344.878 276.792 344.165 278.031 343.462 279.256L342.967 278.756C343.759 277.44 344.544 276.138 345.319 274.855ZM344.735 273.338L344.661 273.265L344.71 273.383L342.186 277.967L341.853 277.63L349.245 265.15L344.735 273.338ZM341.606 278.047L341.853 277.63L341.325 277.097L364.33 237.793H366.408L365.455 235.809L377.169 215.716L375.058 219.471L379.309 212.04L390.37 193.082H392.826L391.698 190.858L401.642 173.742C406.641 165.017 411.439 156.338 416.132 147.687L418.541 147.627L417.181 145.742L420.652 139.316L423.936 133.606C422.059 137.332 421.258 139.199 425.393 132.296C431.03 122.992 436.667 113.326 442.303 103.395H444.265L443.527 101.246C445.861 97.1719 448.21 93.0527 450.581 88.8949C456.275 78.9105 462.096 68.7036 468.139 58.3605H470.498L469.446 56.158C473.242 49.6932 477.14 43.1726 481.142 36.5962C483.096 33.3306 485.325 29.6057 487.671 25.5481L491.297 19.2318L494.336 13.8347C496.501 13.8347 498.72 13.7939 500.975 13.7524C502.029 13.733 503.091 13.7135 504.159 13.6979C506.872 13.8653 509.593 13.8293 512.301 13.5903C513.939 13.5655 515.589 13.5433 517.242 13.521C518.854 13.4993 520.468 13.4776 522.074 13.4535H522.078C530.062 13.4535 538.075 13.4535 545.912 13.2384C539.267 13.2384 532.423 13.3242 525.561 13.4102C524.399 13.4248 523.237 13.4393 522.074 13.4535H513.132C515.901 13.152 518.684 12.9986 521.469 12.994C514.827 12.9931 508.153 12.9619 501.347 12.93C498.85 12.9183 496.336 12.9065 493.799 12.8961L469.086 55.4047L468.915 55.0461L468.89 55.743L468.701 56.0677L468.865 56.4069L468.837 57.197C468.912 57.0688 468.987 56.9406 469.062 56.8123L469.472 57.6565H468.55C468.636 57.5099 468.722 57.3633 468.807 57.2166L468.056 57.6565H467.774L467.63 57.9058L466.853 58.3605H467.366L442.602 101.089L442.974 102.199L442.511 102.466H441.777L441.411 103.101L440.903 103.395H441.242L423.868 133.538L428.579 124.318L420.583 139.248L417.003 145.495L416.538 144.85L416.554 145.312L416.856 145.751L416.585 146.222L416.606 146.802L416.029 147.134L415.86 147.432H415.514L415.022 147.715L415.708 147.698L393.022 187.499C395.661 182.61 398.055 178.093 400.059 174.045L390.364 190.781L390.95 191.928H389.691L364.989 234.839L364.971 234.801L364.968 234.876L364.458 235.763L364.905 236.679L364.903 236.757L364.925 236.719L365.02 236.913H364.845L364.903 236.815L364.723 236.913H363.738L363.292 237.691L363.104 237.793H363.233L340.504 277.427L340.468 277.391L340.492 277.448L340.089 278.151L340.474 278.55L340.751 278.076L341.095 278.909L340.991 279.085L341.301 279.406L341.34 279.502L341.36 279.467L341.894 280.02L341.534 279.151L341.786 278.693L341.431 278.342L341.294 278.573L341.037 277.953L340.902 277.82L340.949 277.74L340.703 277.147L341.075 277.524L341.259 277.209L341.606 278.047ZM341.618 278.075L341.606 278.047L341.6 278.057L341.618 278.075ZM341.944 278.406L342.186 277.967L342.967 278.756C342.881 278.898 342.795 279.041 342.709 279.184L341.944 278.406ZM343.212 279.693C343.295 279.548 343.379 279.402 343.462 279.256L343.731 279.528L343.476 279.962L343.212 279.693ZM343.062 279.955C343.112 279.868 343.162 279.781 343.212 279.693L342.709 279.184C342.656 279.272 342.603 279.36 342.55 279.449L341.933 278.839L342.334 279.808C342.252 279.945 342.169 280.082 342.087 280.22L342.604 280.755C342.627 280.714 342.651 280.673 342.674 280.632L342.814 280.97L342.857 281.017L342.754 281.193L342.599 281.77L342.482 281.657L342.095 282.315L342.376 282.601L342.194 283.278L341.534 283.272L341.514 283.306L341.523 283.272L341.169 283.268C341.189 283.232 341.21 283.196 341.23 283.16C341.433 282.805 341.636 282.449 341.84 282.091L341.848 282.063L341.853 282.068C341.978 281.85 342.103 281.631 342.228 281.411L342.065 281.253L342.198 280.755L342.022 280.328C341.954 280.44 341.887 280.552 341.82 280.664L341.866 280.774L341.805 281.002L341.686 280.887C341.56 281.096 341.435 281.305 341.309 281.514L341.592 281.802L341.418 282.457L340.998 282.032C340.908 282.183 340.817 282.334 340.726 282.485H341.41L341.23 283.16L341.045 283.267L340.316 283.26L339.996 283.796L340.133 283.793L339.926 283.913L339.634 284.403L340.705 283.784L340.877 283.781C340.904 283.733 340.932 283.685 340.959 283.637L341.514 283.316L341.246 283.774L342.064 283.76L342.042 283.844C342.058 283.816 342.075 283.788 342.091 283.76L344.612 283.717L343.017 282.174C343.137 281.968 343.257 281.762 343.377 281.555L346.675 284.969L341.423 284.883L342.042 283.835L340.787 284.56L340.606 284.87L340.261 284.864C340.261 284.864 340.261 284.864 340.261 284.864L339.367 284.849L338.958 285.534L339.101 285.534L338.883 285.66L338.752 285.879L338.507 285.877L337.478 286.472L337.813 285.873L337.096 285.868L337.661 285.542L337.998 285.54L338.158 285.255L338.874 284.841L338.393 284.833L338.423 284.78L338.332 284.832L337.657 284.821L337.302 285.427L337.096 285.546L337.233 285.545L315.408 322.738L315.066 323.315C315.066 323.356 315.032 323.406 315 323.453C314.963 323.507 314.928 323.558 314.949 323.589H324.527L335.503 323.648C343.974 323.706 352.389 323.758 360.749 323.804L314.05 324.009L321.175 311.504L337.393 283.84L338.242 283.826L337.943 284.333L338.861 283.815L338.963 283.813L339.009 283.731L339.852 283.255L339.278 283.249L339.705 282.485H340.634L340.811 281.842L340.323 281.348L340.619 280.811L340.991 281.189L341.094 280.813L340.89 280.32L340.963 280.187L340.75 279.982L340.631 279.693L340.565 279.803L340.039 279.294L340.289 278.867L340.033 278.248L339.649 278.917L339.315 278.594L339.532 279.121L339.322 279.489L339.699 279.874L339.783 279.73L339.946 280.125L340.213 280.397L340.122 280.551L340.214 280.774L340.115 281.137L339.903 280.922L339.718 281.233L340.009 281.522L339.888 281.967H339.284L339.266 281.996L339.274 281.967H338.491L338.709 281.595L338.068 281.967H337.872L337.775 282.137L337.174 282.485H337.576L321.058 311.367L317.148 317.967L315.194 321.282L313.728 323.775L313.6 323.99C313.6 323.99 313.532 324.068 313.6 324.078H314.187L329.385 324.195C340.119 324.282 350.791 324.36 361.4 324.43L362.928 321.409L362.962 321.477L361.424 324.43C361.518 324.43 361.611 324.431 361.705 324.431L361.295 324.677L361.286 324.694L361.719 324.432C361.906 324.433 362.093 324.434 362.28 324.435L362.537 323.935L362.899 323.716L362.539 323.932L362.958 323.12L363.223 323.686L364.032 323.683L363.375 322.315L364.048 323.683L366.842 323.673L367.005 323.774C366.032 323.767 365.058 323.76 364.083 323.753L364.445 324.489C377.406 324.576 390.297 324.658 403.118 324.733L412.784 324.791H414.26C414.329 324.791 414.329 324.792 414.358 324.713L414.436 324.586L414.729 324.088L415.921 322.054L428.393 300.71L418.228 317.41L415.834 321.32L414.671 323.276L414.094 324.254C414.094 324.347 414.013 324.341 413.93 324.335C413.91 324.334 413.889 324.332 413.869 324.332H413.019C410.791 324.332 408.563 324.282 406.329 324.233C405.426 324.213 404.522 324.192 403.616 324.176C391.589 324 379.415 323.866 367.093 323.775L367.044 323.672L366.842 323.673L362.997 321.282C363.285 321.283 363.573 321.284 363.862 321.285L366.768 323.102L366.336 322.209L367.103 322.689L366.433 321.297C366.655 321.297 366.877 321.298 367.099 321.299L366.834 320.763H370.035L369.005 320.12C368.177 320.123 367.348 320.125 366.52 320.127L365.407 317.872L364.517 317.316L365.871 320.129C365.691 320.13 365.512 320.13 365.332 320.131L363.736 316.828L362.899 316.305C363.095 316.307 363.291 316.309 363.486 316.312L363.453 316.241L363.566 316.312C363.723 316.314 363.88 316.316 364.036 316.318L364.235 316.73L365.115 317.28L364.644 316.325C365.529 316.335 366.415 316.345 367.301 316.355L366.858 316.08C366.065 316.048 365.271 316.015 364.474 315.981L363.49 313.987L362.987 313.675C363.102 313.672 363.217 313.67 363.332 313.667L363.085 313.166L362.847 313.638C362.893 313.637 362.94 313.637 362.987 313.636L362.786 313.759L361.729 315.85C361.633 315.846 361.537 315.841 361.441 315.837C360.806 315.808 360.169 315.78 359.53 315.751L358.714 316.25C359.667 316.262 360.602 316.274 361.509 316.286L361.148 317L362.295 316.298C362.294 316.298 362.295 316.298 362.295 316.298L362.938 315.904C362.795 315.898 362.652 315.891 362.509 315.885L363.192 314.564L363.861 315.954C363.675 315.946 363.489 315.938 363.302 315.93L363.134 315.581L362.961 315.915C362.95 315.915 362.939 315.914 362.928 315.914L362.954 315.93L362.761 316.303C362.807 316.304 362.853 316.304 362.899 316.305L362.696 316.429L360.775 320.153C360.616 320.154 360.456 320.155 360.297 320.156L362.009 316.849L360.873 317.544L359.551 320.161C358.554 320.167 357.558 320.174 356.564 320.18L355.71 320.703C356.886 320.716 358.07 320.728 359.26 320.738L358.999 321.253C357.614 321.247 356.228 321.24 354.842 321.234L354.396 321.506L354.54 321.232C354.44 321.232 354.339 321.231 354.238 321.231L354.685 320.957L354.825 320.692C354.921 320.693 355.017 320.695 355.112 320.696L355.948 320.184C355.662 320.186 355.376 320.188 355.09 320.189L356.429 317.648L356.008 317.906L354.705 320.192C353.884 320.197 353.065 320.202 352.247 320.207L352.089 320.304L352.136 320.208C347.271 320.238 342.441 320.266 337.614 320.294C342.975 320.491 348.605 320.614 354.422 320.687L354.112 321.23C344.475 321.185 334.806 321.14 325.104 321.096H319.464C319.487 321.029 319.52 320.966 319.562 320.91L332.503 298.852L329.414 304.484L327.899 307.28L327.147 308.679L326.599 309.725L326.893 309.265L327.381 308.463L328.359 306.85L330.313 303.614L334.223 297.083L337.376 291.741L337.008 291.744L337.563 291.424L340.336 286.725L345.648 286.751L346.381 286.328L346.141 286.754L350.906 286.777L347.862 283.702L347.607 284.155L349.372 285.946L346.606 285.929L346.381 286.328L346.488 285.928L340.827 285.892L341.046 285.522L346.606 285.489L347.036 283.882L343.854 280.737C343.902 280.655 343.949 280.573 343.997 280.491L347.1 283.64L347.249 283.083L344.252 280.054C344.878 278.976 345.505 277.897 346.131 276.818L345.796 276.008L343.731 279.528L344.252 280.054C344.167 280.199 344.082 280.345 343.997 280.491L343.476 279.962L343.327 280.217L343.062 279.955ZM343.327 280.217L342.857 281.017L343.377 281.555C343.536 281.283 343.695 281.01 343.854 280.737L343.327 280.217ZM347.501 284.342L346.855 285.488L348.649 285.477L347.501 284.342ZM340.221 285.527L340.606 284.87L341.423 284.883L341.046 285.522L340.221 285.527ZM340.011 285.887L340.827 285.892L340.336 286.725L339.523 286.721L340.011 285.887ZM339.209 286.72L339.523 286.721L332.542 298.657C334.684 294.766 336.891 290.816 339.209 286.72ZM338.253 286.715L338.752 285.879L339.682 285.885C339.524 286.164 339.366 286.442 339.209 286.72L338.253 286.715ZM338.253 286.715L336.471 289.701L317.979 321.555L317.813 321.829L317.734 321.966V322.034H317.705C317.705 322.034 317.52 322.034 317.578 321.986L317.94 321.34L318.663 320.069L324.459 309.774L337.345 286.71L338.253 286.715ZM339.682 285.885L340.011 285.887L340.221 285.527L339.884 285.529C340.009 285.308 340.135 285.086 340.261 284.864L339.101 285.534L339.884 285.529C339.817 285.648 339.749 285.766 339.682 285.885ZM356.965 316.229C357.035 316.23 357.106 316.231 357.176 316.232L357.477 315.661C357.416 315.658 357.355 315.656 357.293 315.653L356.965 316.229ZM354.41 315.533L354.088 316.195C353.162 316.184 352.23 316.173 351.3 316.162C339.852 316.027 328.621 315.895 330.147 315.757C331.457 315.464 332.278 315.298 332.981 315.2H342.814C346.866 315.26 350.703 315.385 354.41 315.533ZM358.394 313.723C358.429 313.722 358.465 313.721 358.5 313.721L359.769 311.313L358.394 313.723ZM363.502 304.767L367.663 313.574C367.93 313.568 368.196 313.562 368.462 313.557L364.16 303.614L363.502 304.767ZM369.599 316.184C369.361 316.176 369.123 316.167 368.884 316.158L368.987 316.375C369.219 316.378 369.452 316.38 369.685 316.383L369.599 316.184ZM371.891 316.409C377.475 316.474 383.069 316.54 388.672 316.608C392.973 316.647 397.283 316.693 401.603 316.745L407.536 316.813L409.491 316.882C409.876 316.365 410.231 315.826 410.556 315.268L413.488 310.38L433.289 276.677L433.006 277.205L448.38 250.807L463.539 224.613C463.539 224.685 463.5 224.763 463.464 224.833C463.441 224.879 463.42 224.921 463.412 224.956L463.581 224.662C464.516 222.237 467.846 216.357 471.318 210.229C474.224 205.098 477.229 199.792 479.011 196.191C471.476 208.794 464.624 220.341 457.871 231.858C451.117 243.376 444.49 254.806 437.346 267.282L465.944 217.339L431.862 276.717L432.185 276.11L411.123 312.804L409.676 315.347L409.363 315.924L409.197 316.217C409.17 316.272 409.111 316.265 409.047 316.257C408.998 316.251 408.947 316.244 408.904 316.266H402.962L381.547 316.422C378.253 316.422 375.031 316.358 371.814 316.258L371.891 316.409ZM473.055 208.201L485.325 186.883L485.36 186.82L485.335 186.854L485.561 186.462L485.582 186.423L485.585 186.42L485.895 185.882L486.331 185.446L486.556 185.152L485.979 185.737L485.895 185.882L485.872 185.905L485.582 186.423L485.208 186.912C485.384 186.603 485.56 186.293 485.736 185.983L485.208 186.912C481.172 194.009 477.122 201.106 473.055 208.201ZM369.674 317.83L370.754 320.115C370.388 320.116 370.023 320.117 369.658 320.118L370.69 320.763H371.06L371.216 321.092L371.575 321.317C371.657 321.317 371.739 321.317 371.82 321.317L371.58 320.763H371.06L370.754 320.115C370.936 320.115 371.118 320.114 371.299 320.114L370.545 318.371L369.674 317.83ZM354.422 320.687C354.556 320.689 354.691 320.691 354.825 320.692L355.09 320.189C354.962 320.19 354.833 320.191 354.705 320.192L354.422 320.687ZM354.112 321.23C354.154 321.231 354.196 321.231 354.238 321.231L354.044 321.35L354.112 321.23ZM359.727 321.257C359.484 321.255 359.242 321.254 358.999 321.253L358.012 323.208L359.043 322.576L358.569 323.491L359.276 323.059L358.912 323.765L362.997 321.272C362.732 321.271 362.467 321.269 362.202 321.268L363.026 320.763L363.862 321.285C364.197 321.287 364.532 321.288 364.868 321.29L366.336 322.209L365.894 321.294C366.074 321.295 366.254 321.296 366.433 321.297L366.176 320.763H366.834L366.52 320.127C366.304 320.128 366.088 320.129 365.871 320.129L366.176 320.763H365.638L365.332 320.131C364.563 320.133 363.795 320.135 363.026 320.137C362.275 320.143 361.524 320.148 360.775 320.153L360.468 320.747C360.31 320.746 360.151 320.745 359.992 320.743L360.297 320.156C360.048 320.157 359.8 320.159 359.551 320.161L359.26 320.738C359.504 320.74 359.748 320.741 359.992 320.743L359.727 321.257ZM360.204 321.259L360.468 320.747C360.982 320.751 361.498 320.754 362.014 320.757L361.187 321.263C360.86 321.262 360.532 321.26 360.204 321.259ZM361.187 321.263C361.526 321.265 361.864 321.267 362.202 321.268L359.276 323.059L359.747 322.145L361.187 321.263ZM360.204 321.259L359.747 322.145L359.043 322.576L359.727 321.257C359.886 321.257 360.045 321.258 360.204 321.259ZM362.014 320.757C362.351 320.759 362.688 320.761 363.026 320.763H364.026L364.868 321.29C365.21 321.291 365.552 321.293 365.894 321.294L365.638 320.763H364.026L363.026 320.137L362.014 320.757ZM362.954 315.93L363.453 316.241L363.302 315.93C363.189 315.925 363.075 315.92 362.961 315.915L362.954 315.93ZM362.509 315.885C362.249 315.873 361.989 315.862 361.729 315.85L361.509 316.286C361.773 316.29 362.035 316.295 362.295 316.298L362.509 315.885ZM363.861 315.954L364.036 316.318C364.239 316.32 364.441 316.322 364.644 316.325L364.474 315.981C364.27 315.972 364.066 315.963 363.861 315.954ZM364.419 324.489L364.066 323.753C363.795 323.751 363.524 323.75 363.253 323.748L363.356 323.967L363.004 323.746C362.969 323.746 362.934 323.746 362.899 323.745L363.39 324.039L363.598 324.483C363.778 324.485 363.958 324.486 364.137 324.487L364.531 324.723L364.519 324.697L364.185 324.487C364.263 324.488 364.341 324.488 364.419 324.489ZM364.185 324.487L363.356 323.967L363.39 324.039L364.137 324.487C364.153 324.487 364.169 324.487 364.185 324.487ZM367.093 323.775L367.131 323.853L367.005 323.774C367.034 323.775 367.064 323.775 367.093 323.775ZM362.539 323.932L361.705 324.431C361.709 324.431 361.714 324.432 361.719 324.432L362.537 323.935L362.539 323.932ZM363.375 322.315L362.962 321.477L362.968 321.467L363.375 322.315ZM338.187 282.485L338.491 281.967H338.068L337.775 282.137L337.576 282.485H338.187ZM338.469 282.485H338.187L338.042 282.732L337.185 283.228L337.748 283.234L337.52 283.623L337.135 283.844L337.393 283.84L337.52 283.623L338.189 283.238L338.584 283.242L338.242 283.826L338.861 283.815L339.009 283.731L339.278 283.249L338.584 283.242L338.789 282.893L339.498 282.485H339.705L339.804 282.309L339.498 282.485H339.028L339.315 281.996L338.469 282.485ZM339.526 281.042L339.598 280.774L339.483 280.496L339.39 280.402L339.422 280.348L339.172 279.749L339.015 280.022L338.426 279.425L338.801 280.323L338.828 280.349L338.819 280.365L338.953 280.686L338.709 281.566L339.203 280.722L339.526 281.042ZM339.203 280.722L339.39 280.402L339.015 280.022L338.828 280.349L339.203 280.722ZM339.983 281.967L339.794 282.309L339.888 281.967H339.983ZM339.983 281.967L340.151 281.662L340.458 281.967H339.983ZM340.151 281.662L340.323 281.348L340.115 281.137L340.009 281.522L340.151 281.662ZM339.783 279.73L340.039 279.294L339.649 278.917L339.532 279.121L339.783 279.73ZM340.213 280.397L340.619 280.811L340.89 280.32L340.75 279.982L340.565 279.803L340.213 280.397ZM337.233 285.545L337.661 285.542L338.158 285.255L338.393 284.833L338.332 284.832L337.302 285.427L337.233 285.545ZM337.345 286.71L337.067 286.709L337.478 286.472L337.345 286.71ZM342.621 282.852L342.376 282.601L342.599 281.77L343.017 282.174C342.885 282.4 342.753 282.626 342.621 282.852ZM342.621 282.852L343.049 283.287L342.371 283.28C342.455 283.137 342.538 282.994 342.621 282.852ZM342.371 283.28L342.194 283.278L342.064 283.76L342.091 283.76C342.184 283.6 342.278 283.44 342.371 283.28ZM340.959 283.637C341.029 283.514 341.099 283.391 341.169 283.268L341.045 283.267L340.133 283.793L340.705 283.784L340.959 283.637ZM341.41 282.485L341.418 282.457L341.446 282.485H341.41ZM341.592 281.802L341.848 282.063L342.065 281.253L341.805 281.002L341.592 281.802ZM342.674 280.632L342.334 279.808C342.406 279.688 342.478 279.569 342.55 279.449L343.062 279.955C342.932 280.181 342.803 280.406 342.674 280.632ZM341.944 278.406L341.836 278.603L341.618 278.075L341.944 278.406ZM341.294 278.573L341.095 278.909L341.301 279.406L341.36 279.467L341.534 279.151L341.294 278.573ZM340.902 277.82L340.504 277.427L340.492 277.448L340.751 278.076L340.902 277.82ZM363.233 237.793H364.33L364.845 236.913H364.723L363.292 237.691L363.233 237.793ZM364.925 236.719L365.455 235.809L364.989 234.839L364.968 234.876L364.905 236.679L364.925 236.719ZM416.271 147.432C416.225 147.517 416.179 147.602 416.132 147.687L415.708 147.698L415.86 147.432H416.271ZM416.271 147.432C416.386 147.22 416.501 147.008 416.616 146.796L416.609 146.8L417.035 146.011L418.013 147.432H416.271ZM416.609 146.8L416.606 146.806L416.606 146.802L416.609 146.8ZM417.035 146.011L417.181 145.742L417.003 145.495L416.856 145.751L417.035 146.011ZM441.242 103.395H442.303C442.479 103.085 442.655 102.776 442.83 102.466H443.063L442.977 102.207C442.98 102.202 442.982 102.197 442.985 102.192C443.166 101.877 443.347 101.562 443.527 101.246L443.181 100.237L442.985 102.192L442.974 102.199L442.977 102.207C442.928 102.294 442.879 102.38 442.83 102.466H442.511L441.411 103.101L441.242 103.395ZM467.366 58.3605H468.139C468.276 58.1259 468.413 57.8913 468.55 57.6565H468.056L467.63 57.9058L467.366 58.3605ZM469.062 56.8123C469.19 56.5943 469.318 56.3762 469.446 56.158L469.086 55.4047L468.89 55.743L468.865 56.4069L469.062 56.8123ZM391.698 190.858L391.135 189.748L391.077 191.928L391.698 190.858ZM390.37 193.082L391.037 191.938L389.083 193.082H390.37ZM341.259 277.209L341.133 276.902L341.325 277.097L341.259 277.209ZM488.011 187.422L488.003 187.43L487.632 188.086L488.011 187.422Z" fill="#FEFEFE"/>
<path d="M446.807 73.525L462.2 47.84L466.784 47.9183L459.425 59.6511L457.529 55.5838L473.333 29.2241C468.7 37.2219 464.409 44.8677 460.099 52.2007L458.057 55.701L459.855 59.4458L466.784 48.3387H462.386L460.099 52.2496C455.808 59.5923 451.488 66.6516 446.807 73.525Z" fill="#FEFEFE"/>
<path d="M464.233 261.376C468.084 255.744 472.228 249.281 476.607 242.212L451.283 285.878L450.902 286.592L429.41 323.736L428.764 324.83L428.686 324.967C428.686 324.967 428.686 325.085 428.452 325.065H427.347C427.175 325.049 427.001 325.049 426.829 325.065L426.741 325.368L426.575 325.974L425.206 330.863L425.119 331.166L424.962 331.43L424.669 331.948L424.063 333.004L421.659 337.208C421.659 337.335 421.522 337.257 421.414 337.277H406.07C399.254 337.277 392.429 337.277 385.594 337.277L385.545 337.208C391.673 337.208 398.251 337.208 405.093 337.208C407.604 337.208 410.146 337.208 412.706 337.208C414.339 337.208 415.981 337.208 417.593 337.208H421.503C421.561 337.208 421.571 337.209 421.6 337.14L421.757 336.876L422.069 336.329L424.552 332.007C424.781 331.657 424.971 331.284 425.119 330.892L425.48 329.641L426.194 327.138L426.556 325.886L426.731 325.261L426.78 325.104C426.868 325.093 426.957 325.093 427.044 325.104H428.188C428.354 325.104 428.647 325.104 428.598 325.055L428.764 324.772L429.096 324.195L430.436 321.907C437.561 309.685 444.696 297.415 450.794 286.611L451.166 285.897L451.019 286.2V286.142L451.087 286.024L451.215 285.79L451.469 285.33L451.987 284.421L452.964 282.612L454.919 279.102L458.506 272.522C460.803 268.259 462.728 264.524 464.233 261.376Z" fill="#FEFEFE"/>
<path d="M554.435 119.292L570.073 146.16V146.219H570.122L570.044 146.121L587.568 176.186L595.974 191.038V191.087L595.906 190.999C604.565 206.33 613.058 221.534 621.122 236.248V236.317L627.66 248.294L620.897 236.454L620.848 236.356L595.241 191.38L595.417 191.615L595.309 191.498L595.241 191.38L569.624 146.288L569.761 146.454L569.683 146.375L569.624 146.288L554.435 119.292Z" fill="#FEFEFE"/>
<path d="M507.004 188.653L521.42 165.246L507.531 189.044C508.225 187.45 507.267 188.584 507.004 188.653Z" fill="#FEFEFE"/>
<path d="M452.348 262.041C453.453 260.134 454.548 258.218 455.633 256.321L447.657 271.231L452.348 262.041Z" fill="#FEFEFE"/>
<path d="M544.661 126.273C544.661 126.078 544.574 126.186 544.515 126.205C544.468 126.25 544.411 126.283 544.349 126.303C544.336 126.183 544.336 126.061 544.349 125.941L544.446 125.208C544.592 125.544 544.666 125.907 544.661 126.273Z" fill="#FEFEFE"/>
<path d="M587.803 200.904L601.007 224.066L585.369 197.325L587.324 199.867L586.229 198.762L585.399 197.325L584.783 196.279L585.477 197.257L586.962 199.417L587.393 199.779L585.438 197.257C586.288 198.431 587.078 199.648 587.803 200.904Z" fill="#FEFEFE"/>
</g>
<defs>
<clipPath id="clip0_105_367">
<rect width="326" height="778" fill="white" transform="matrix(0 1 -1 0 778 0)"/>
</clipPath>
</defs>
</svg>
