<svg width="71" height="29" viewBox="0 0 71 29" fill="none" xmlns="http://www.w3.org/2000/svg">
<g clip-path="url(#clip0_143_34)">
<path d="M56.7992 28.4202C56.628 28.4202 56.4612 28.4202 56.2971 28.4202C56.4644 28.4116 56.632 28.4116 56.7992 28.4202Z" fill="#4131EB"/>
<path d="M46.6212 22.2145C46.7104 22.0406 46.7996 21.8753 46.8942 21.7144C46.813 21.8831 46.7167 22.0484 46.6212 22.2145Z" fill="#4131EB"/>
<path d="M49.1981 28.8351C49.9882 28.8255 50.7782 28.8546 51.5653 28.9221C50.8081 28.8699 50.0098 28.8473 49.1981 28.8351Z" fill="#4131EB"/>
<path d="M49.521 16.3428C49.5165 16.3315 49.529 16.3106 49.5477 16.288C49.5665 16.2697 49.5841 16.2502 49.6003 16.2297L49.6521 16.1949L49.6789 16.1767L49.6913 16.168L49.6985 16.1636C49.6985 16.1636 49.7029 16.1636 49.7056 16.1636L49.8091 16.2506L50.0133 16.4245C50.1489 16.5394 50.2809 16.6542 50.4129 16.7724C50.342 16.7372 50.2732 16.6979 50.2069 16.655C50.0633 16.5254 49.9768 16.4332 49.8831 16.3463C49.8358 16.3028 49.7877 16.2593 49.7297 16.2167C49.7011 16.1732 49.6673 16.2228 49.6343 16.2471C49.6013 16.2715 49.562 16.3054 49.521 16.3428Z" fill="#4131EB"/>
<path d="M46.5169 22.3998L46.5124 22.4207L46.4232 22.5946L46.4072 22.6129C46.4411 22.5407 46.4776 22.4702 46.5169 22.3998Z" fill="#4131EB"/>
<path d="M49.1704 16.6028C49.1579 16.5785 49.1455 16.5541 49.116 16.5489C49.2772 16.4434 49.4363 16.3379 49.5932 16.2323C49.5754 16.2515 49.5575 16.2706 49.5442 16.288C49.4469 16.3845 49.2801 16.4793 49.1704 16.6028Z" fill="#4131EB"/>
<path d="M46.4473 20.5115C46.4085 20.5945 46.3817 20.6823 46.3679 20.7725C46.1895 21.0099 46.0112 21.2474 45.8122 21.5379C45.7962 21.5909 45.7391 21.6901 45.707 21.7988C45.6561 21.844 45.6062 21.8945 45.5554 21.9493L46.4473 20.4846L46.7568 19.9766L47.3303 19.9871L46.4223 21.4352L46.1699 20.9316L46.4473 20.4846L46.7836 19.941C46.6819 20.1219 46.5749 20.3045 46.4589 20.4907L46.186 20.9255L46.4348 21.4248L47.3268 19.9958L46.7693 19.9836L46.4553 20.4863L46.4473 20.5115Z" fill="#4131EB"/>
<path d="M49.5477 16.288C49.5611 16.2706 49.5789 16.2515 49.5968 16.2323C49.5816 16.2518 49.5652 16.2704 49.5477 16.288Z" fill="#4131EB"/>
<path d="M46.4946 27.5496L46.5454 27.6366C46.4045 27.4209 46.265 27.204 46.1271 26.986C46.2502 27.1547 46.3724 27.3487 46.4946 27.5496Z" fill="#4131EB"/>
<path d="M48.4685 29.0282L50.074 29.0021C50.7563 29.0204 51.4262 29.05 52.0657 29.1117L52.1076 29.1161L52.1629 29.0743H51.9667L51.9943 29.1082L52.0657 29.1152H52.0041L51.9649 29.0752H52.1629L52.1192 29.1143H52.0648C50.8732 29.0917 49.677 29.0587 48.4685 29.0282Z" fill="#4131EB"/>
<path d="M56.7992 28.9751L49.702 16.9881L44.9711 24.9795L47.3366 28.9751H56.7992Z" fill="#4131EB"/>
<path d="M50.586 28.322C51.081 28.3063 51.5769 28.2985 52.0657 28.2941L51.584 28.482L52.0675 28.0228L52.5598 28.4933L52.0657 28.2933C52.839 28.288 53.5963 28.2828 54.3071 28.2776L52.9113 28.2941C53.6088 28.2863 54.1974 28.3037 54.9092 28.3446C54.6951 28.3941 54.2349 28.355 54.1234 28.422C53.4366 28.422 52.7498 28.4098 52.0657 28.3889L52.4903 28.5629L52.1023 28.1593L51.6518 28.5525L52.0657 28.3907C51.0515 28.3602 50.0436 28.3124 49.0536 28.268C49.7118 28.1115 50.1204 28.3272 50.586 28.322Z" fill="#4131EB"/>
<path d="M48.3507 28.6916C48.249 28.7047 48.1455 28.7134 48.0412 28.7212L47.5828 28.7081H47.4989C47.4935 28.7081 47.4909 28.7081 47.4891 28.7003L47.4819 28.6881L47.4284 28.589L47.3214 28.3933L46.7755 27.4044C46.8808 27.5922 46.9931 27.7801 47.1082 27.9689C47.2063 28.1306 47.3063 28.2924 47.4061 28.455L47.4677 28.5577L47.498 28.609L47.5141 28.6351L47.5212 28.6473V28.6542H47.5292C47.6104 28.6542 47.6907 28.6542 47.7709 28.6586C47.8512 28.6629 47.9297 28.6655 48.0153 28.6707C48.1313 28.6754 48.2431 28.6823 48.3507 28.6916Z" fill="#4131EB"/>
<path d="M56.9661 28.7081C56.413 27.8471 55.9296 26.7651 55.3026 25.9754C55.8235 27.0191 56.6182 28.4246 56.5121 28.682C56.4059 28.9395 55.6799 27.3157 55.2045 26.5346L55.2865 26.766C55.256 26.6528 55.2016 26.547 55.1268 26.4555C55.2089 26.6859 55.4096 27.1121 55.4141 27.2626L55.258 27.1034C55.4266 27.7123 55.9831 28.7264 56.1499 29.3387C55.6692 28.0497 54.9297 26.6303 54.0877 25.1726L54.4321 25.3665L53.7907 25.3596L54.0744 24.8081L54.0877 25.1726C53.3278 23.8575 52.4822 22.512 51.6732 21.2039L52.0666 21.4248L50.9615 21.4465L51.7499 20.6638L51.6126 20.9812L51.6732 21.2021L50.8633 19.887C50.7254 19.6725 50.5868 19.4603 50.4477 19.2504L50.3433 19.0938L50.2907 19.0156L50.2452 18.9495L50.1257 18.7938C50.0071 18.6361 49.8749 18.4885 49.7306 18.3528L49.7118 18.3354L49.702 18.3276V18.345L49.6664 18.4389C49.6441 18.4998 49.6226 18.5572 49.6039 18.6129C49.5664 18.7233 49.5361 18.8225 49.5147 18.9086C49.4957 18.9808 49.4826 19.0544 49.4755 19.1286V19.1521L49.4665 19.1712L49.4327 19.2495L49.2302 19.7122C49.0848 20.0149 48.6602 20.7011 48.3507 21.1908L48.2027 21.4648L48.2259 20.5446L48.9965 21.8866L47.3473 21.9466L48.2027 21.4648C47.7656 22.2702 47.333 23.0765 46.9406 23.894C46.8151 24.1312 46.6867 24.3663 46.5553 24.5994L46.3581 24.9473L46.3456 24.9691L46.3394 24.9804C46.3394 24.9804 46.3314 24.9682 46.3554 25.0099L46.4562 25.1839L46.6569 25.5318L47.4686 26.9486L47.8887 27.6697L47.9957 27.8506C47.9978 27.8538 48.001 27.8563 48.0047 27.8575C48.0047 27.8575 48.0047 27.8688 48.0047 27.8897C48.0047 27.9106 48.0047 27.9375 48.0091 27.968C48.0121 27.9987 48.0039 28.0295 47.9859 28.055C47.9707 28.0718 47.9518 28.0852 47.9306 28.0941C47.9162 28.1007 47.9013 28.1062 47.886 28.1106C47.87 28.1106 47.845 28.128 47.8369 28.1106C47.8289 28.0932 47.7942 28.0723 47.771 28.0497L47.7362 28.0132L47.7272 28.0036C47.7216 27.9974 47.7166 27.9907 47.7121 27.9836L47.663 27.9106C47.5316 27.7152 47.4023 27.5177 47.275 27.3183C47.0211 26.9205 46.7732 26.5178 46.5312 26.1102C46.6471 26.1711 46.8415 26.579 46.9932 26.7347C46.8335 26.4242 46.6837 26.1424 46.5294 25.8649C46.4527 25.7266 46.3742 25.5892 46.293 25.45L46.169 25.2387L46.1048 25.1317L46.087 25.103L46.0789 25.0899L46.7515 26.1937L46.2983 25.4422L46.0896 25.0943L46.0325 25.003L46.0174 24.9795V24.9673L46.0237 24.956L46.0495 24.9082L46.0754 24.8586L46.0888 24.8325L46.1467 24.7307C46.3019 24.4605 46.4548 24.188 46.6052 23.9132C46.8335 23.5165 47.2296 23.2809 47.4213 22.6468C46.9754 23.3287 46.5169 24.0201 46.0665 24.7212L46.0245 24.7864L46.0192 24.7951V24.8003L46.012 24.8099L45.9817 24.8499L45.9202 24.9369L45.9041 24.9586C45.8996 24.9664 45.8907 24.9734 45.8979 24.9812L45.9202 25.0265L45.9666 25.1187L45.9906 25.1656L46.0647 25.2961L46.2208 25.5683L46.5374 26.1093C46.5374 26.1093 46.5311 26.1093 46.5285 26.1041C46.9165 26.7416 47.2528 27.3261 47.622 27.9436C47.4998 27.7558 47.3723 27.5661 47.2822 27.3904L47.4606 27.7384L47.6336 28.0636L47.7023 28.2072L47.7389 28.2802C47.7389 28.2854 47.7442 28.2941 47.7495 28.2968H47.8093L47.9725 28.3046H48.2936L49.0848 28.315C48.8981 28.3289 48.7108 28.342 48.5229 28.3541C48.3445 28.364 48.1661 28.3742 47.9877 28.3846C47.8932 28.3933 47.7933 28.4011 47.6898 28.4081C47.6835 28.4081 47.6764 28.4081 47.6711 28.4081L47.6613 28.3933L47.6407 28.3637L47.6006 28.3037L47.5177 28.1802L47.4722 28.1106L47.3972 27.9889L47.2456 27.7444L46.9459 27.253L46.3519 26.2589L45.7677 25.2682L45.6071 24.9943C45.6017 24.983 45.5893 24.9717 45.591 24.9604L45.6106 24.9264L45.6517 24.8577L45.732 24.722L46.2725 23.7966C46.4607 23.4696 46.6453 23.1443 46.8237 22.8208C46.5523 23.1901 46.3088 23.5782 46.095 23.9819C45.979 24.1863 45.864 24.3872 45.7471 24.5724C45.7132 24.6264 45.7016 24.642 45.6811 24.6716C45.6606 24.7012 45.6419 24.7238 45.6214 24.749C45.5795 24.8017 45.5345 24.8519 45.4867 24.8995L45.9095 24.1898L46.4384 23.3148C46.7952 22.7309 47.1564 22.1441 47.5221 21.5544C47.4766 21.6474 47.4329 21.7388 47.3937 21.8318C47.5346 21.637 47.6684 21.4326 47.7977 21.223L47.3437 21.4787L48.1911 21.4944L47.8102 20.7351L47.7977 21.223C48.134 20.6803 48.439 20.1036 48.7664 19.5757L47.7469 21.1943L47.7585 20.7594L48.0939 21.437L47.3437 21.4196L47.7469 21.1926L47.5221 21.5526C47.5828 21.43 47.6488 21.3074 47.721 21.1786L47.3437 21.3909L48.0653 21.3761L47.7317 20.7725L47.721 21.1786C47.8325 20.9795 47.961 20.7698 48.1072 20.5394C47.9468 20.7323 47.7979 20.9342 47.6613 21.1439L47.6702 20.8038L47.9181 21.3561L47.3455 21.3221L47.6613 21.1482L47.5551 21.3056L46.8416 22.4781C47.1091 22.018 47.3598 21.5544 47.5854 21.1073L47.3419 21.2439L47.8173 21.2134L47.5917 20.8455L47.5846 21.1064C47.6559 20.9647 47.7255 20.8247 47.7906 20.6881L47.5364 21.0786L47.5418 20.8699L47.7005 21.2004L47.3437 21.1882L47.5382 21.0786C47.1047 21.7553 46.6828 22.4554 46.2564 23.133L47.036 21.764L47.482 21.0482L47.3419 21.1273L47.6033 21.1334L47.4864 20.8977L47.482 21.0482L48.4408 19.5017L48.3926 19.5887L48.4943 19.4148L49.0135 18.5615C49.1428 18.3354 49.2569 18.0884 49.3845 17.8031L49.4541 17.6822C49.4148 17.7909 49.4023 17.8562 49.4862 17.7353C49.5317 17.6744 49.5754 17.6109 49.6191 17.5439L49.6851 17.4404L49.7012 17.4135C49.7012 17.4135 49.7065 17.3987 49.71 17.4048L49.719 17.4196L49.752 17.4752C49.8412 17.6239 49.9304 17.7675 50.024 17.9179C50.1177 18.0684 50.2149 18.2241 50.3085 18.3885C50.3558 18.4711 50.3977 18.5546 50.4459 18.6398C50.4941 18.7251 50.5262 18.8025 50.5815 18.9173C50.7248 19.1949 50.8866 19.4631 51.0658 19.7201C51.085 19.783 51.1222 19.8394 51.1729 19.8827L51.3031 20.0775C51.4021 20.2411 51.5002 20.4054 51.6099 20.5585C51.5136 20.3994 51.4083 20.2384 51.3031 20.0775L51.1898 19.8966C51.2476 19.9384 51.2959 19.9914 51.3316 20.0523L50.3656 18.3737L49.9143 17.597L49.7992 17.4022L49.7136 17.256C49.7083 17.2404 49.702 17.2604 49.6985 17.2656L49.4541 17.6822C49.4862 17.5952 49.537 17.4726 49.5575 17.4135L49.3845 17.8031L49.0937 18.3119L48.8092 18.8233C48.8395 18.7598 48.8574 18.7146 48.8779 18.6624C48.8984 18.6103 48.9144 18.5598 48.9296 18.5085L48.5666 19.1173L48.1919 19.7522L47.4526 21.0334V20.9151L47.5489 21.0891H47.3393L47.4499 21.0273L47.0315 21.7596L46.0843 23.2687L45.1584 24.7542L45.2958 24.5663L45.4305 24.3776C45.5232 24.2448 45.6154 24.1094 45.707 23.9714C45.8907 23.6966 46.0718 23.4148 46.252 23.1286L45.5812 24.2967L45.2807 24.8142L45.2093 24.936L45.2004 24.9508C45.2004 24.956 45.1924 24.9612 45.2004 24.9664L45.2182 24.996L45.2548 25.0569L45.3984 25.2996L45.7231 25.8527L46.0584 26.4363C46.2805 26.8251 46.5 27.2191 46.7131 27.6105C46.4803 27.3704 46.2056 27.0156 46.0129 26.8921C45.9764 26.9277 46.2546 27.4331 46.0584 27.1582C45.6856 26.6659 45.4145 26.2154 45.1745 25.8536C45.0657 25.6909 44.9123 25.4639 44.7731 25.2839C44.7054 25.1917 44.6358 25.1047 44.5635 25.023L44.5359 24.9917L44.5216 24.976C44.5171 24.9708 44.5109 24.9656 44.5144 24.9604L44.5252 24.8977C44.5305 24.8569 44.535 24.8169 44.5367 24.7768C44.5385 24.7368 44.4538 24.8238 44.3388 24.963C44.3545 25.0463 44.3747 25.1287 44.3994 25.21C44.4252 25.3022 44.4529 25.4039 44.4886 25.5048L44.5894 25.7953L44.6295 25.9197C44.6336 25.9412 44.636 25.963 44.6366 25.9849C44.6366 26.058 44.6179 26.0719 44.5475 25.9849L44.2388 25.5005C44.1782 25.4039 44.1282 25.3039 44.0694 25.1978L43.9802 25.0343L43.957 24.9925L43.9454 24.9708C43.9391 24.9638 43.9499 24.9569 43.9507 24.9499L43.9927 24.8629L44.1711 24.5011C44.2344 24.3759 44.3129 24.2472 44.386 24.1149L44.4957 23.9219L44.559 23.8088L44.6884 23.5766C44.8008 23.4026 44.9123 23.22 45.0264 23.0304C45.0486 22.9906 45.0631 22.9473 45.0693 22.9025C45.4537 22.2293 45.8283 21.5927 46.0504 21.25L46.2975 20.8699C46.3423 20.8165 46.3942 20.7691 46.4518 20.729C46.4759 20.6568 46.5035 20.5863 46.5338 20.5176L46.6953 20.1428L47.3375 20.0653L46.5107 21.3839L46.2895 21.0664L46.5561 20.4663C46.7726 20.1271 46.9851 19.7896 47.1939 19.4539C47.3268 19.28 47.4615 19.1017 47.5908 18.9251C47.573 18.9199 47.5346 18.939 47.54 18.8947L47.9261 18.2632L48.5862 17.1647L48.7245 16.9673L48.7922 16.8803C48.8145 16.8507 48.836 16.8151 48.8574 16.8133C48.9466 16.7742 49.0251 16.7403 49.1009 16.7133C49.2257 16.5568 49.3684 16.4147 49.5263 16.2897L49.6994 16.1506C49.7065 16.1436 49.7119 16.1558 49.7181 16.1575L49.7368 16.1706L49.8109 16.2228C49.9099 16.2958 50.0142 16.3715 50.1203 16.4489L50.4415 16.6916L50.5217 16.7533L50.5619 16.7838L50.5824 16.7994L50.602 16.8342L50.7626 17.1099C50.974 17.4743 51.18 17.8249 51.3718 18.1371L52.0639 19.3217C52.0865 19.3882 52.1056 19.4559 52.121 19.5244C52.1995 19.6044 52.2593 19.6983 52.2994 19.7418C52.4591 20.0523 52.5803 20.3228 52.7016 20.5942L52.7213 20.6124L52.8221 20.9803L52.8354 21.0177L52.5946 21.5057L52.0675 20.2445L52.228 20.1906L52.7213 20.6124C52.7875 20.6611 52.8453 20.7198 52.8925 20.7864C53.004 20.9864 53.1182 21.176 53.2324 21.3604L53.607 22.0328C54.028 22.7973 54.4329 23.5557 54.8281 24.3098C54.8241 24.3372 54.8094 24.3622 54.787 24.3794C54.8597 24.4685 54.9234 24.5643 54.977 24.6655L55.1438 24.9334L54.9975 25.2413L54.4329 24.3594L54.7817 24.3515L54.977 24.6655C54.9949 24.6933 55.0118 24.7186 55.0288 24.7403C55.01 24.7246 54.994 24.7177 54.9842 24.7273C55.2196 25.0421 55.2027 25.1343 55.3632 25.4457C55.4043 25.5135 55.464 25.5648 55.5095 25.6283L55.5621 25.731C55.6665 26.1267 55.9002 26.4476 56.1223 26.8295L56.719 28.0097C56.8795 28.3263 56.884 28.4768 56.9661 28.7081Z" fill="#4131EB"/>
<path d="M50.5084 16.8533L50.5396 16.8829C50.5425 16.885 50.5451 16.8873 50.5476 16.8899L50.5556 16.9047L50.5717 16.9342L50.635 17.0499L50.7599 17.2804L51.0061 17.7335L51.2469 18.178L51.3352 18.3423L51.3539 18.3798L51.4235 18.5163L51.2157 18.1684C51.1265 18.024 51.0444 17.8831 50.9633 17.7414C50.8821 17.5996 50.8045 17.4561 50.7287 17.3065C50.6912 17.2308 50.6547 17.1525 50.6172 17.0716C50.5896 16.9951 50.553 16.9218 50.5084 16.8533Z" fill="#4131EB"/>
<path d="M44.634 26.292C44.6816 26.4706 44.7443 26.6452 44.8213 26.8138L44.4262 26.1354L44.0827 25.5509C44.0194 25.4422 43.9712 25.3352 43.9159 25.2282L43.8348 25.0673L43.7946 24.9873C43.7884 24.9804 43.7946 24.9734 43.7946 24.9673L43.8054 24.9473L43.8259 24.9064L43.9909 24.5846C44.0185 24.5316 44.0453 24.4776 44.0747 24.4237L44.1702 24.2628L44.8846 23.0651H44.8899C44.7865 23.2521 44.6643 23.4548 44.5376 23.6627L44.3004 24.0506C44.1809 24.2506 44.0551 24.4507 43.9615 24.6464L43.8125 24.9369L43.7946 24.9725C43.7946 24.9847 43.8044 24.996 43.808 25.0082L43.8446 25.0786L43.9169 25.2187C43.965 25.31 44.0061 25.3996 44.0596 25.4874C44.1131 25.5753 44.1666 25.6614 44.2175 25.7405C44.3173 25.8962 44.4377 26.0815 44.4734 26.1189C44.5228 26.1801 44.5765 26.2379 44.634 26.292Z" fill="#4131EB"/>
<path d="M45.6098 28.0628C45.699 28.2593 45.7882 28.4611 45.8774 28.662L45.5536 28.0897C45.5937 28.1167 45.5964 28.0749 45.6098 28.0628Z" fill="#4131EB"/>
<path d="M45.3475 25.7214L45.4287 25.8562L45.1772 25.5266C45.2164 25.5718 45.2905 25.6588 45.3475 25.7214Z" fill="#4131EB"/>
<path d="M23.6661 28.4203C23.2807 28.4203 22.9061 28.4203 22.535 28.4203C22.9293 28.416 23.3182 28.4108 23.6661 28.4203Z" fill="#EDEDED"/>
<path d="M29.14 3.77226C29.3513 3.39653 29.5645 3.01992 29.7759 2.65897C29.5761 3.02948 29.3567 3.40088 29.14 3.77226Z" fill="#EDEDED"/>
<path d="M19.2206 21.0604C19.3249 20.8595 19.4319 20.6595 19.5434 20.4568L21.5628 17.1317L21.2952 17.2805L21.7787 17.2866L21.5691 16.8517L21.5593 17.13L22.2728 15.9602C22.0391 16.3455 21.8063 16.743 21.5726 17.1387L21.5833 16.8447L21.8099 17.2926H21.2944L21.5726 17.1361C20.8064 18.4529 20.0323 19.8106 19.2206 21.0604Z" fill="#EDEDED"/>
<path d="M41.0296 1.2056C41.0555 1.18821 41.0412 1.23255 41.0091 1.30213C40.977 1.37171 40.935 1.44565 40.911 1.50131L39.9503 3.06687L39.3733 3.98709C39.4571 3.8314 39.5186 3.67831 39.6087 3.5235C39.714 3.3565 39.8005 3.22517 39.8763 3.10862L40.2188 2.5746C40.4472 2.22148 40.6835 1.83183 41.0296 1.2056Z" fill="#EDEDED"/>
<path d="M28.9 4.18712L28.883 4.22976L28.669 4.61158L28.6378 4.65506C28.7222 4.49967 28.8096 4.34368 28.9 4.18712Z" fill="#EDEDED"/>
<path d="M41.2472 0.20884C41.2606 0.184487 41.2749 0.159281 41.1946 0.139276L41.7378 0.147091L40.919 1.48827C40.9538 1.41869 40.9868 1.35345 41.0082 1.30213C41.167 1.00728 41.4408 0.568928 41.6522 0.194932C41.513 0.197541 41.3766 0.201882 41.2472 0.20884Z" fill="#EDEDED"/>
<path d="M30.1175 0.124475C29.8749 0.537611 29.6965 0.939453 29.6064 1.11688C29.2381 1.67266 28.8706 2.22756 28.4523 2.89292C28.4023 3.00425 28.2738 3.22603 28.1713 3.44782C28.0821 3.56089 27.9857 3.68613 27.8885 3.81921L30.1719 0.000976563C30.5938 0.000976563 31.0309 0.000982508 31.476 0.00707082C31.7204 0.00707082 31.9692 0.0114052 32.2198 0.0140144C31.982 0.0140144 31.7421 0.0140144 31.5 0.0140144C31.0666 0.0140144 30.6265 0.0140144 30.1799 0.0140144L30.1175 0.124475Z" fill="#EDEDED"/>
<path d="M39.235 4.20973L38.5134 5.35434L38.4519 5.45349L38.3948 5.50568L38.5134 5.35434C38.2619 5.75443 38.0106 6.15249 37.7597 6.54852C38.0121 6.12669 38.2414 5.72138 38.4733 5.33086L38.3609 5.47349L38.4224 5.41522L38.4733 5.32824C38.7055 4.94182 38.9598 4.56839 39.235 4.20973Z" fill="#EDEDED"/>
<path d="M23.477 11.4287C23.2495 11.7201 23.0105 12.0584 22.7634 12.4316L25.425 7.95927H26.0351L25.0869 9.43786L24.8407 8.94471L25.1208 8.47242L26.3954 6.32934H26.4017C26.027 6.97992 25.5704 7.73225 25.1253 8.47329L24.8461 8.93862L25.0905 9.43525L26.0351 7.95666H25.4348L25.1253 8.47329C24.4287 9.63007 23.7642 10.7555 23.477 11.4287Z" fill="#EDEDED"/>
<path d="M41.0091 1.30562C40.9868 1.35693 40.9538 1.42216 40.9199 1.49174L40.9119 1.5048C40.9351 1.44565 40.9645 1.37781 41.0091 1.30562Z" fill="#EDEDED"/>
<path d="M22.0124 15.788L21.8955 15.9836L22.7554 14.4746C22.5368 14.8825 22.28 15.3296 22.0124 15.788Z" fill="#EDEDED"/>
<path d="M21.1053 15.3087L20.3543 16.4472L20.0688 16.8821L20.3186 17.4492L21.2997 15.9175L20.7244 15.8897L20.2927 16.5429L20.3498 16.4481L20.6771 15.9071L21.3015 15.9132L20.3159 17.4518L20.0608 16.9299L21.058 15.2791C21.0241 15.3661 21.0848 15.3087 21.1053 15.3087Z" fill="#EDEDED"/>
<path d="M24.4349 11.5862L24.2565 11.8923C24.3957 11.6236 24.5366 11.3548 24.6766 11.086L24.4349 11.5862Z" fill="#EDEDED"/>
<path d="M18.3251 19.7662L18.8932 18.8408C18.7933 19.0304 18.697 19.22 18.6051 19.414C18.5046 19.5259 18.4111 19.6435 18.3251 19.7662Z" fill="#EDEDED"/>
<path d="M23.6661 28.9752L40.226 1.00642H30.7588L14.2007 28.9744L23.6661 28.9752Z" fill="#EDEDED"/>
<path d="M17.0362 25.4892L15.4619 28.2107L15.436 28.256L15.4235 28.2777L15.4173 28.289C15.4173 28.289 15.4254 28.289 15.4298 28.289H15.5368C15.6073 28.289 15.6777 28.289 15.7473 28.289C15.8873 28.289 16.0247 28.289 16.1621 28.289C16.8097 28.289 17.4438 28.2867 18.0646 28.282L16.4939 28.2907L15.7018 28.2986C15.8463 28.2986 15.9828 28.2986 16.1175 28.2986C16.3922 28.2986 16.6616 28.2986 16.9309 28.3046C17.5838 28.3107 18.235 28.322 18.9325 28.3386L18.4669 28.5264L19.6264 27.4462L19.589 28.9813L18.9298 28.3386C19.0823 28.3386 19.2465 28.3464 19.4141 28.3507C19.2839 28.3638 19.1144 28.3707 18.9298 28.3751L19.5542 28.9839L19.5167 27.5053L18.4936 28.549L18.9325 28.3751C18.4348 28.3873 17.8336 28.3795 17.6498 28.4282H16.6232L15.9097 28.4229L15.3968 28.4142H15.2175C15.2175 28.4142 15.2175 28.4142 15.2175 28.4082L15.2523 28.3525L15.3897 28.1333L15.6572 27.7089L15.7224 27.6062L15.8276 27.4375L16.0898 27.0105L17.1388 25.3109L16.5661 25.6336L17.6365 25.6536L17.1575 24.6969L17.1415 25.3127L18.8112 22.6164C18.251 23.8506 17.6516 24.5151 17.1503 25.3127L17.1664 24.6865L17.6516 25.6641L16.5688 25.6397L17.1503 25.3127C17.1093 25.3657 17.0728 25.4266 17.0362 25.4892Z" fill="#EDEDED"/>
<path d="M18.1413 22.5973C17.6606 23.4157 17.1682 24.2359 16.6732 25.0326V24.9178L16.7624 25.0918H16.5626L16.6696 25.0318C16.2451 25.7197 15.8187 26.3938 15.3977 27.0418C15.8142 26.3877 16.2352 25.7136 16.6589 25.0257L16.5626 25.0796H16.741L16.6607 24.9196V25.023C17.1495 24.2359 17.6454 23.421 18.1413 22.5973Z" fill="#EDEDED"/>
<path d="M24.0817 28.8196C25.2225 26.8191 26.6969 24.5951 27.7173 22.6025C26.3026 24.8248 24.426 27.935 24.0344 28.1585C23.6428 28.3821 25.8477 25.0587 26.8886 23.2818L26.5702 23.7271C26.7304 23.5184 26.8704 23.2956 26.9886 23.0617C26.6701 23.5071 26.0966 24.3942 25.8754 24.6195L26.0689 24.1803C25.2154 25.2936 23.864 27.5036 23.0149 28.6108L22.9445 28.6978L22.9141 28.9718L22.9338 28.7204L23.0149 28.6065C23.8061 27.4836 25.2287 25.4927 26.0689 24.1803C26.4882 23.5236 26.3133 23.6036 26.7415 22.9113L27.3872 21.8615L28.0312 20.803L28.0446 20.7786C28.8304 19.474 29.6234 18.1398 30.4172 16.7864L30.3646 16.9813V16.8769L30.4181 16.7847L32.755 12.7734L32.7809 12.7282L32.8237 12.6864L32.755 12.7734L35.6636 7.76531C36.2505 6.73436 36.8205 5.71964 37.3735 4.72115L37.4011 4.67157L37.4627 4.60721L37.3735 4.72028C37.7577 4.02448 38.1338 3.33708 38.5018 2.65809L38.6401 2.40326L38.6954 2.28757L38.7935 2.07623C38.8542 1.94228 38.9059 1.82312 38.9478 1.71875C38.7623 1.7373 38.5972 1.75585 38.4527 1.7744C38.2322 1.8106 38.0092 1.82981 37.7856 1.83182C36.9828 1.87357 36.1905 1.91444 35.4085 1.95445C34.6388 1.98315 32.7907 1.96836 31.467 1.95445C31.4269 1.95445 31.4349 1.95445 31.4269 1.95445H31.3841L31.3288 1.95967L31.2895 2.04665L31.2851 2.05707L31.2538 2.11275L31.1825 2.23886L31.038 2.49195L30.4654 3.50262C30.0854 4.17698 29.7087 4.85104 29.3353 5.52481L29.3611 4.51155L30.2022 6.00318L28.3934 6.05537L29.3353 5.52481L28.6039 6.86162C28.091 7.77139 27.5719 8.66985 27.0483 9.56484L27.0867 8.48721L27.918 10.131L26.0279 10.1389L27.0501 9.56832C26.2705 10.8982 25.4794 12.2193 24.6757 13.557L24.7694 12.6212L25.2885 14.1363L23.6651 14.1258L24.6757 13.557L22.288 17.5396L22.3254 16.4959L23.1282 18.0998H21.3033L22.2915 17.5431L21.1374 19.501C20.6183 20.3881 19.7102 21.5014 20.9465 19.2826C21.292 18.6489 21.6437 18.0145 22.0017 17.3796L21.3033 17.7728L22.6091 17.7458L22.0275 16.6429L22.0008 17.3796C22.6822 16.1712 23.38 14.9649 24.0942 13.7605C24.0282 14.0067 23.4761 14.8599 23.279 15.2931C23.6937 14.6329 24.0692 14.0284 24.4385 13.4248L23.6705 13.8597L24.8996 13.8745L24.5098 12.716L24.4385 13.4274C24.8122 12.8134 25.1788 12.1993 25.5704 11.5296L24.4545 13.437L24.5277 12.7107L24.9415 13.8719L23.6705 13.8788L24.4545 13.437L24.0166 14.1859L24.4554 13.4379L23.6705 13.8797H24.9415L24.5286 12.7142L24.4554 13.4422L26.8066 9.44134L26.0351 9.87621L27.4666 9.86838L26.836 8.62636L26.8066 9.44134C27.2588 8.66812 27.7128 7.8862 28.1615 7.10341C28.4852 6.54938 28.8599 6.08146 29.2425 5.48481L28.4005 5.95882L29.9534 6.0136L29.2657 4.57937L29.2425 5.48481C29.5037 5.08084 29.7341 4.65874 29.932 4.22191L29.1729 5.44567L29.1943 4.61505L29.8401 5.90924L28.4005 5.88055L29.1729 5.44567L26.7317 9.39872L26.7584 8.66291L27.3105 9.81011L26.0351 9.79098L26.7317 9.39872C25.9254 10.715 25.1249 12.0399 24.3305 13.3735L24.3921 12.7647L24.7355 13.7501H23.6705L24.3305 13.3787L24.096 13.7753L24.1013 13.7562C23.3637 15.0182 22.6742 16.1689 21.9606 17.3727L21.9856 16.6769L22.5208 17.7432H21.3015L21.9598 17.3727L21.6502 17.8945L21.9508 17.364L21.3015 17.7293L22.5119 17.7119L21.9767 16.6777L21.9517 17.364C22.0989 17.103 22.2434 16.8595 22.3834 16.636L21.9375 17.3544L21.9615 16.6864L22.4574 17.7301L21.305 17.7058L21.9375 17.35C21.1151 18.6729 20.3159 19.995 19.5221 21.317L19.5434 20.7021L20.0108 21.6519L18.9405 21.6449L19.5229 21.317L18.7443 22.6156L19.4739 21.2901L18.9387 21.5901L19.9404 21.564L19.4944 20.7265L19.4739 21.2901C20.2124 19.9619 20.9839 18.6138 21.7733 17.257L21.306 17.5179L22.1729 17.5118L21.7912 16.7621L21.7733 17.2552C22.5448 15.9271 23.3343 14.5894 24.1263 13.2543L23.6714 13.5109H24.4081L24.1718 12.8325L24.129 13.2543L26.4971 9.26129L26.0386 9.52222H26.8878L26.5167 8.78118L26.4998 9.26477C27.3025 7.9123 28.0857 6.57373 28.8447 5.25779L28.4067 5.50394L29.238 5.49436L28.8563 4.78726L28.8438 5.25779L29.0543 4.89249C28.9776 5.00846 28.9 5.12588 28.8215 5.24475L28.8331 4.79855L29.1703 5.50655L28.4067 5.47784L28.8215 5.24475C28.0187 6.48155 27.1928 8.02798 26.4364 9.22912L26.4516 8.81163L26.7584 9.47176L26.0449 9.45176L26.44 9.22912C26.267 9.50309 26.0984 9.7588 25.9343 9.98842L26.3981 9.20564L26.0413 9.40394H26.6951L26.4106 8.83251L26.3972 9.20564C27.1815 7.88244 27.9751 6.55344 28.7778 5.21865L28.4094 5.42567H29.1016L28.7876 4.81684L28.7778 5.21343L30.6768 2.06491C30.5653 2.26843 30.4582 2.46847 30.353 2.66939C30.501 2.44151 30.6482 2.20957 30.7945 1.97358L31.0781 1.5187H31.8666L32.9691 1.51347C33.7022 1.50826 34.431 1.50391 35.1427 1.51347C35.3211 1.51347 35.4951 1.51783 35.6726 1.52044C35.4942 1.52044 35.3202 1.51521 35.1427 1.51347C33.7522 1.49608 32.3777 1.4787 31.0344 1.4613L30.6678 2.0623L30.865 1.70397L31.0175 1.43259C31.0995 1.43259 31.1825 1.43259 31.2681 1.43259C31.3698 1.43259 31.4741 1.43259 31.5812 1.43259C31.8639 1.43259 32.16 1.43782 32.4731 1.44043C32.2484 1.42216 31.9835 1.40738 31.6936 1.3952C31.4697 1.3865 31.2271 1.37606 30.98 1.36562L30.8168 1.61873L29.2684 4.20714C29.5722 3.68528 29.8696 3.16893 30.1603 2.65809L30.5911 1.89531L30.7695 1.57002L30.9265 1.283C31.2324 1.27082 31.533 1.25952 31.8265 1.24822C31.5178 1.24126 31.2075 1.23517 30.8944 1.22821L30.3592 2.10753L29.7563 3.10252L28.5548 5.0908L28.5593 4.92728L28.6886 5.17952H28.4023L28.5548 5.09254L28.1338 5.78835L28.5423 5.08819L28.4023 5.16646H28.6699L28.5485 4.93947V5.08993L29.9213 2.73027L30.8676 1.17341C32.2055 1.18558 33.5676 1.19775 34.9376 1.20993C34.86 1.20993 34.7806 1.20993 34.7021 1.21428H35.1713C35.9758 1.21776 36.7845 1.22183 37.5974 1.22647C37.7802 1.22647 37.9613 1.22125 38.1424 1.21864C38.2967 1.21429 38.451 1.20908 38.6053 1.20473C38.9103 1.19255 39.2296 1.17689 39.5623 1.1595C39.6694 1.1595 39.7755 1.1595 39.8808 1.1595C39.6444 1.18037 39.5293 1.20211 39.8754 1.21341H39.895C39.7166 1.48565 39.5588 1.74572 39.4009 2.00925L39.1654 2.40672L38.905 2.85379C38.5152 3.5235 38.1183 4.21408 37.6946 4.9125L37.7285 4.86988L37.7097 4.88727L37.6946 4.9125C37.4761 5.27345 37.2486 5.63788 37.0123 6.00231C36.709 6.46937 36.3379 7.11994 35.9419 7.82358C35.8549 7.94191 35.7831 8.07014 35.7279 8.20541L35.4701 8.66378C35.2533 9.03603 35.0357 9.40479 34.8359 9.77531C35.0464 9.41436 35.2587 9.04038 35.4701 8.66378L35.7109 8.24803C35.6587 8.3933 35.5924 8.53337 35.5129 8.66637L37.7428 4.94034L37.7535 4.92382L37.7668 4.91076L37.7428 4.94034L38.9282 2.95467L39.9833 1.13166H39.871C39.9156 1.12731 39.9602 1.12297 40.0039 1.11949C39.9503 1.23604 39.8897 1.3639 39.8638 1.42478L40.0244 1.10817C39.8674 1.116 39.7104 1.1247 39.5525 1.13253L38.2146 1.14211L36.6983 1.15689C37.0007 1.14471 37.2817 1.1273 37.5278 1.10121C36.4046 1.10121 35.2792 1.10121 34.1518 1.10121C33.0493 1.10585 31.9442 1.11079 30.8364 1.11601L29.9106 2.7068L28.4915 5.04035V4.93947L28.5708 5.09516H28.3925L28.4861 5.04209L26.0779 9.01342V8.96036L26.1189 9.04733H26.0226L26.0734 9.01862L25.763 9.53266L26.0904 9.02907L26.0226 9.06734L26.1456 9.07169L26.093 8.95687V9.02907C26.7656 7.98536 27.4416 6.89121 28.1213 5.77357L26.1876 9.07865L26.1938 8.9047L26.3267 9.16563H26.0217L26.1849 9.07343C25.4012 10.4071 24.6121 11.7381 23.8177 13.0665L23.8319 12.9186L23.9149 13.1587H23.6571L23.8177 13.0717C23.1939 14.1108 22.5657 15.1461 21.933 16.1776C22.2353 15.514 22.6956 14.6268 22.8383 14.185C22.7803 14.185 22.1024 15.2939 22.4628 14.6294C22.8017 13.9832 23.13 13.3935 23.4333 12.856L23.5028 12.7334H23.6571L23.4127 13.0665L23.3744 12.9639L23.4333 12.8595C24.2779 11.3661 24.9424 10.2667 25.1832 9.45524C25.2252 9.2352 23.4181 11.761 23.8783 10.8747C24.17 10.345 24.6391 9.51874 25.2055 8.52635L25.4651 8.07495L26.0217 8.06711L25.1743 9.38914L24.954 8.96384L25.2055 8.52896L25.8219 7.45654C26.0657 7.05993 26.3148 6.64738 26.5693 6.21888C26.6195 6.13232 26.6621 6.04183 26.6969 5.94837L27.8154 4.03664H28.3871L27.5121 5.42826L27.2686 4.9673L27.5362 4.51242C28.0919 3.56786 28.578 2.7529 28.9018 2.22843L29.4369 1.35868C29.4887 1.28649 29.5386 1.21951 29.585 1.16037L29.6198 1.11688L29.6742 1.04207L29.7741 0.908126C29.9159 0.638501 30.0649 0.362793 30.2201 0.0870791L30.4377 0.0809848C31.5081 0.0914219 32.5686 0.102739 33.6202 0.113176C34.1242 0.13666 34.6263 0.160148 35.124 0.183632C35.1142 0.166236 35.0348 0.142739 35.1285 0.126214C36.3424 0.132302 37.5466 0.138387 38.7489 0.144476C39.5374 0.166219 40.2313 0.199284 40.7825 0.245381C41.0314 0.227986 41.3177 0.214071 41.6272 0.202764C41.414 0.601983 41.1402 1.08904 40.8289 1.62829L40.3375 2.47195L39.8692 3.26692L38.591 5.40131L38.5331 5.49697L38.4563 5.57178L38.591 5.39783L38.2003 6.06493H38.2066L36.7179 8.562C36.6225 8.6942 36.5279 8.81858 36.4361 8.93252C36.3362 9.15344 36.2086 9.37263 36.1578 9.48482C35.7368 10.1545 35.3666 10.7129 34.9982 11.2731C34.9266 11.4635 34.8423 11.6491 34.7458 11.8288C34.4782 12.2724 34.2222 12.7047 33.9761 13.1282L33.828 13.3726L33.77 13.4683L33.6996 13.5362L33.828 13.3726L33.077 14.6077L31.4019 17.3327L31.5 16.9734V17.1804L31.4046 17.3327L30.023 19.5558C30.0093 19.5703 29.9925 19.5817 29.9739 19.5894C29.9553 19.597 29.9352 19.6007 29.915 19.6001C29.792 19.8724 29.5583 20.2185 29.4361 20.4568C29.4548 20.409 29.4628 20.3759 29.4468 20.3768C29.2893 20.6816 29.1138 20.9772 28.9214 21.2622L28.941 21.2266L28.9303 21.2466L28.9241 21.2553L28.9125 21.2718L28.8893 21.3074L28.8411 21.3779L28.7386 21.5301C28.6672 21.6371 28.5878 21.7589 28.4942 21.9076C28.4005 22.0563 28.3416 22.2155 28.2596 22.3694L28.1204 22.5903C27.5656 23.3062 27.1464 24.0881 26.6371 24.9387L25.0423 27.461C24.6178 28.1507 24.401 28.3742 24.0817 28.8196Z" fill="#EDEDED"/>
<path d="M18.7906 21.1135L17.0067 24.1777L16.5305 24.9604L16.5197 24.9796L16.5295 24.9996L16.5661 24.9404H16.5412L16.5287 24.9604C16.2141 25.4736 15.8999 25.9795 15.5859 26.4782L15.1158 27.2183L14.594 28.0324L16.4716 24.9283L16.5037 24.8761H16.5661L16.4707 25.0283L16.4439 24.977L16.4734 24.9283L18.7906 21.1135Z" fill="#EDEDED"/>
<path d="M15.4548 24.6239C15.1997 25.0509 14.9508 25.4649 14.7082 25.8598L15.8776 23.8428H16.5626L15.5217 25.5023L15.2318 24.9596L15.5502 24.4125L15.5814 24.3594L15.5573 24.416L15.2594 25.1231L15.527 25.4988L16.5599 23.8463L15.7482 23.955L15.5547 24.4125C15.5277 24.4856 15.4943 24.5564 15.4548 24.6239Z" fill="#EDEDED"/>
<path d="M9.46539 28.4202C9.08007 28.4202 8.70543 28.4202 8.33438 28.4202C8.72862 28.4159 9.11753 28.4107 9.46539 28.4202Z" fill="#EDEDED"/>
<path d="M14.9384 3.77474C15.1498 3.399 15.3629 3.02241 15.5743 2.66146C15.3745 3.03198 15.1551 3.40335 14.9384 3.77474Z" fill="#EDEDED"/>
<path d="M3.94154 22.5972C3.46078 23.4156 2.96754 24.2358 2.4734 25.0325V24.9177L2.56259 25.0917H2.36282L2.46983 25.0316C2.04526 25.7196 1.61893 26.3937 1.19793 27.0416C1.61447 26.3876 2.03455 25.7135 2.45911 25.0256L2.36282 25.0795H2.54121L2.4609 24.9194V25.0229C2.95236 24.2358 3.44562 23.4209 3.94154 22.5972Z" fill="#EDEDED"/>
<path d="M26.8307 1.20289C26.8557 1.18549 26.8423 1.22984 26.8102 1.29942C26.7781 1.369 26.7362 1.44293 26.7121 1.4986L25.7515 3.06416L25.1726 3.98524C25.2565 3.83043 25.318 3.67647 25.409 3.52166C25.5 3.36684 25.6007 3.22333 25.6766 3.10765L26.02 2.57189C26.2474 2.21876 26.4838 1.82737 26.8307 1.20289Z" fill="#EDEDED"/>
<path d="M14.6984 4.18962L14.6815 4.23224L14.4665 4.61407L14.4362 4.65756C14.5206 4.50216 14.6081 4.34618 14.6984 4.18962Z" fill="#EDEDED"/>
<path d="M27.043 0.208731C27.0573 0.184378 27.0715 0.159172 26.9913 0.139168L27.5372 0.146982L26.7192 1.48642C26.7549 1.41597 26.787 1.35073 26.8084 1.29941C26.9672 1.00543 27.2401 0.567949 27.4515 0.194823C27.3115 0.197432 27.1741 0.201773 27.043 0.208731Z" fill="#EDEDED"/>
<path d="M15.9151 0.128723C15.6725 0.540988 15.4923 0.946307 15.4049 1.11939C15.0374 1.67517 14.669 2.23006 14.2507 2.89543C14.2007 3.00676 14.0723 3.22854 13.9697 3.45033C13.8805 3.56339 13.7842 3.68864 13.687 3.82171L15.9766 0C16.3985 0 16.8347 0.00435474 17.2797 0.00609426C17.5232 0.00609426 17.7721 0.0104286 18.021 0.0130379C17.7831 0.0130379 17.5452 0.0130379 17.3074 0.0130379C16.8739 0.0130379 16.4351 0.0130379 15.9882 0.0130379L15.9151 0.128723Z" fill="#EDEDED"/>
<path d="M25.0353 4.2079L24.3128 5.35336L24.3734 5.2229L24.3404 5.30988L24.3128 5.35336L23.5555 6.55363C23.8088 6.12919 24.0398 5.72215 24.2762 5.33597L24.3074 5.28378L24.3333 5.21332L24.2762 5.33597C24.507 4.94618 24.7605 4.56954 25.0353 4.2079Z" fill="#EDEDED"/>
<path d="M26.8102 1.29942C26.787 1.35073 26.7549 1.41598 26.721 1.48643L26.7139 1.49859C26.7362 1.44293 26.7701 1.37509 26.8102 1.29942Z" fill="#EDEDED"/>
<path d="M7.81258 15.7887L7.69486 15.9844L8.55471 14.4754C8.33618 14.8833 8.07927 15.3304 7.81258 15.7887Z" fill="#EDEDED"/>
<path d="M10.2343 11.5869L10.0559 11.8931L10.476 11.0859L10.2343 11.5869Z" fill="#EDEDED"/>
<path d="M4.12708 19.767L4.69526 18.8407C4.59536 19.0312 4.49903 19.2208 4.40716 19.4139C4.30643 19.5258 4.21288 19.6438 4.12708 19.767Z" fill="#EDEDED"/>
<path d="M9.46539 28.9751L26.0235 1.01153H16.5573L-0.000854492 28.9786L9.46539 28.9751Z" fill="#EDEDED"/>
<path d="M2.8364 25.4891L1.26212 28.2115L1.23625 28.2558L1.22288 28.2776L1.21666 28.2889C1.21666 28.2889 1.22557 28.2889 1.23003 28.2889H1.33616C1.40663 28.2889 1.4771 28.2889 1.54756 28.2889C1.68671 28.2889 1.82495 28.2889 1.96231 28.2889C2.60987 28.2889 3.24405 28.2866 3.86484 28.2819L2.29414 28.2906L1.50205 28.2985C1.64655 28.2985 1.78303 28.2985 1.91771 28.2985C2.19243 28.2985 2.46181 28.2984 2.73118 28.3045C3.3832 28.3106 4.03429 28.3219 4.73179 28.3385L4.13957 28.6994L4.76393 27.5157L5.32049 28.6994L4.72827 28.3385C4.8799 28.3385 5.04399 28.3463 5.21078 28.3506C5.08145 28.3637 4.9129 28.3706 4.72827 28.375L5.2866 28.7151L4.69434 27.6L4.16988 28.7151L4.72827 28.375C4.23056 28.3872 3.62937 28.3793 3.44653 28.4281H2.41987L1.70631 28.4228L1.19257 28.4141H1.01327C1.01327 28.4141 1.01327 28.4141 1.01327 28.408L1.04806 28.3524L1.18451 28.1332L1.4521 27.7088L1.51725 27.6061L1.62247 27.4374L1.8847 27.0103L2.93366 25.3108L2.36103 25.6335L3.43137 25.6535L2.95238 24.6968L2.93631 25.3126L4.60606 22.6163C4.04591 23.8514 3.44652 24.5159 2.94524 25.3126L2.96131 24.6864L3.44653 25.664L2.36369 25.6396L2.94524 25.3126C2.90956 25.3656 2.87297 25.4265 2.8364 25.4891Z" fill="#EDEDED"/>
<path d="M5.01903 21.0612C5.12338 20.8603 5.23132 20.6602 5.34192 20.4576L7.36305 17.1316L7.09546 17.2803L7.57894 17.2864L7.36932 16.8516L7.35952 17.1299L8.07308 15.9609C7.83939 16.3462 7.60745 16.7437 7.37376 17.1386L7.38448 16.8446L7.61103 17.2925H7.09546L7.37376 17.136C6.60758 18.4528 5.83159 19.8113 5.01903 21.0612Z" fill="#EDEDED"/>
<path d="M9.8855 28.8116C10.5598 27.6305 11.351 26.3702 12.0949 25.1264L12.1091 25.1021L12.1189 25.0743L12.0949 25.1264C12.6077 24.2689 13.0992 23.4182 13.5148 22.6041L11.9726 25.0543L11.9852 25.0264L11.978 25.0447L11.9718 25.0543C10.9906 26.6198 10.0916 28.0114 9.8311 28.1584C9.53944 28.328 10.6677 26.5537 11.6961 24.9003L11.6837 24.9273L11.6899 24.9099L11.6961 24.9003C12.0601 24.315 12.4097 23.7435 12.6836 23.2791L12.3651 23.7244C12.5253 23.5156 12.6653 23.2929 12.7834 23.059C12.4659 23.5035 11.8915 24.3898 11.673 24.6124L11.8727 24.1706C11.7416 24.3445 11.5989 24.5385 11.4446 24.7585L11.4393 24.7664L11.409 24.8351L11.4446 24.7585C11.029 25.35 10.5527 26.0806 10.0844 26.7816C9.8516 27.1295 9.62147 27.4774 9.40473 27.7905C9.2968 27.9479 9.19155 28.0984 9.09076 28.2393L8.94273 28.4428L8.87226 28.5385L8.83746 28.5846L8.8196 28.6072L8.81159 28.6185L8.80715 28.6238L8.79552 28.6455L9.44131 27.707C9.65419 27.3951 9.86915 27.0762 10.0862 26.7503C10.5191 26.0997 10.9579 25.4248 11.4027 24.7255L11.3634 24.8125L11.3857 24.7533L11.4036 24.7264C11.802 24.1007 12.2052 23.4583 12.6131 22.799L13.2258 21.8022L13.8359 20.7994L13.8493 20.7751C14.6351 19.4704 15.4281 18.1362 16.2219 16.7829L16.2094 16.8072L18.5758 12.7446L18.5035 12.9785V12.8733L18.5624 12.7715L20.8913 8.75759L20.8975 8.74629L20.9091 8.72977L20.8913 8.75759L21.4755 7.7565C22.0606 6.7296 22.6285 5.7175 23.1791 4.72018L23.1336 4.81758L23.1452 4.78193L23.1791 4.71931C23.5632 4.0235 23.9393 3.3364 24.3074 2.65798L24.4456 2.40315L24.501 2.2866L24.5991 2.07612C24.6597 1.94218 24.7115 1.82301 24.7534 1.71864C24.5679 1.7372 24.4025 1.75574 24.2575 1.7743L24.0559 1.803L24.0104 1.80997H23.9997C23.9997 1.80997 23.9774 1.80997 23.9667 1.80997H23.8918C23.791 1.81519 23.6902 1.8204 23.5894 1.82475C22.7867 1.8665 21.9943 1.90737 21.2123 1.94738C20.4426 1.97608 18.5936 1.96129 17.2708 1.94738H17.1897L17.1352 1.9526L17.096 2.03958V2.05002L17.0648 2.10568L16.9926 2.23179L16.2763 3.49555C15.8963 4.1699 15.5196 4.84368 15.1462 5.51687L15.1114 4.40185L16.2567 5.98829L14.2052 6.04743L15.1471 5.51687L14.4157 6.85457C13.9025 7.76434 13.384 8.66512 12.8602 9.55691L12.6728 8.1705L14.6877 10.1188L11.8398 10.1309L12.8602 9.55691C12.0806 10.8868 11.2885 12.2088 10.4849 13.5465L10.5125 12.4602L11.375 14.1275L9.47432 14.1153L10.4849 13.5465L8.09803 17.5291L8.13548 16.4854L8.93824 18.0892H7.11331L8.1016 17.5326L6.94651 19.4913C6.4274 20.3793 5.51942 21.4917 6.75567 19.273C7.10174 18.6392 7.45343 18.0046 7.8108 17.3691L7.11331 17.7622L8.40843 17.7439L7.82687 16.6411L7.801 17.3778C8.48127 16.1694 9.17849 14.963 9.89264 13.7587C9.82664 14.0057 9.27449 14.859 9.07826 15.2912C9.49212 14.6319 9.86763 14.0266 10.2378 13.4221L9.46984 13.857L10.9095 13.8744L10.2592 12.5993L10.2378 13.4256C10.6115 12.8107 10.9781 12.1966 11.3697 11.526L10.2539 13.4343L10.2762 12.5906L10.9558 13.8683L9.46984 13.8761L10.2548 13.4343L9.8159 14.184L10.2548 13.4352L9.46984 13.877L10.9558 13.8718L10.2771 12.5897L10.2548 13.4352L12.6068 9.43426L11.8353 9.86914L13.992 9.85698L12.4659 8.38533L12.6068 9.43426C13.0581 8.66192 13.5122 7.87915 13.9608 7.09723C14.2846 6.54233 14.6601 6.07439 15.0427 5.47773L14.2007 5.95175L15.9721 6.01437L15.0115 4.48186L15.0427 5.47948C15.3031 5.07626 15.5329 4.65505 15.7304 4.2192L14.9732 5.43686L14.9446 4.52187L15.841 5.90393L14.2007 5.87087L14.9732 5.43599L12.5319 9.38903L12.4043 8.44275L13.7646 9.81001L11.8353 9.7813L12.5319 9.38903C11.7291 10.7058 10.921 12.0322 10.1299 13.3647L10.1486 12.6541L10.7159 13.7378H9.46718L10.1272 13.3664L9.89264 13.7631L9.898 13.7439C9.16036 15.0059 8.47086 16.1566 7.76176 17.3604L7.78585 16.6646L8.32102 17.7309H7.10173L7.75998 17.3604L7.44958 17.8866L7.75105 17.3552L7.10173 17.7205L8.31209 17.7031L7.77692 16.6689L7.75196 17.3552C7.89824 17.0942 8.04364 16.8507 8.18278 16.628L7.73681 17.3456L7.76089 16.6776L8.25678 17.7213L7.10439 17.697L7.73681 17.3412C6.91443 18.6642 6.11432 19.9862 5.32049 21.3082L5.21348 20.5176L6.35694 21.6483L4.73807 21.6387L5.32049 21.3108L4.54182 22.6094L5.27145 21.2838L4.73628 21.5839L6.23831 21.5448L5.16797 20.5585L5.26609 21.2838C6.00552 19.9557 6.77706 18.6085 7.56643 17.2508L7.09903 17.5117L7.96602 17.5056L7.58425 16.7559L7.56643 17.2491C8.33797 15.9209 9.12735 14.5832 9.91851 13.2482L9.46361 13.5047H10.3252L9.93454 12.7585L9.92208 13.2482L12.2911 9.25422L11.8326 9.51515H13.1126L12.209 8.63496L12.2938 9.2577C13.0965 7.90523 13.8796 6.56668 14.6387 5.25074L14.2007 5.49687L15.1453 5.48644L14.6218 4.73235L14.6378 5.2542L14.8465 4.89239C14.7698 5.00546 14.6931 5.12113 14.6155 5.24029L14.6003 4.74889L15.0713 5.50557L14.2007 5.47251L14.6155 5.23942C13.8127 6.47622 12.9868 8.02265 12.2304 9.22379L12.1582 8.68715L12.9235 9.47601L11.8353 9.44645L12.2304 9.22379C12.0574 9.49863 11.8888 9.75434 11.7238 9.98396L12.1885 9.20117L11.8317 9.39948H12.8173L12.1225 8.72194L12.1876 9.20117C12.9713 7.87798 13.7649 6.54898 14.5682 5.21419L14.1999 5.42121L14.9874 5.42641L14.5549 4.77844L14.5682 5.21332L16.4654 2.06829C16.3539 2.27181 16.2469 2.47185 16.1425 2.67712C16.2906 2.44924 16.4378 2.2173 16.584 1.98131L16.8686 1.52556H17.6651L18.7666 1.52033C19.4998 1.51511 20.2286 1.51077 20.9394 1.52033C21.1178 1.52033 21.2917 1.52469 21.4692 1.5273C21.2909 1.5273 21.1125 1.52207 20.9394 1.52033C19.5498 1.50294 18.1789 1.48556 16.8365 1.46816L16.4681 2.07177L16.6661 1.71168L16.8195 1.43945C16.9015 1.43945 16.9845 1.43945 17.0693 1.43945C17.1718 1.43945 17.2753 1.43945 17.3814 1.43945C17.6645 1.43945 17.9618 1.44205 18.2734 1.44727C18.0495 1.429 17.7846 1.41423 17.4947 1.40206C17.2717 1.39336 17.03 1.38292 16.7812 1.37248L16.6161 1.62731L15.0668 4.21658C15.3719 3.69473 15.6716 3.17896 15.9588 2.66667L16.3905 1.90304L16.5689 1.57688L16.725 1.28986C17.0309 1.27768 17.3297 1.26636 17.6232 1.25505C17.3157 1.24809 17.0059 1.24172 16.6938 1.23592L16.1586 2.11438L15.5556 3.10851L14.3542 5.09679L14.3488 4.91674L14.5272 5.18638H14.2007L14.3533 5.0994L13.9323 5.79521L14.3408 5.09418L14.2007 5.17245H14.5022L14.3354 4.93065L14.3408 5.09592L15.7126 2.73974L16.6598 1.18027C17.9977 1.19244 19.358 1.20461 20.7271 1.21679C20.6486 1.21679 20.5702 1.21679 20.4917 1.22114H20.9608C21.7654 1.22462 22.5741 1.22867 23.3869 1.23331L23.9319 1.22549C24.0862 1.22115 24.2414 1.21591 24.3948 1.21156C24.6999 1.19939 25.0192 1.18373 25.3528 1.16634C25.4589 1.16634 25.5651 1.16634 25.6712 1.16634C25.4339 1.18721 25.3198 1.20896 25.665 1.22027H25.6864C25.508 1.49251 25.3501 1.75255 25.1922 2.01609L24.9567 2.41358L24.6963 2.85977C24.3065 3.52949 23.9096 4.22007 23.4859 4.91849L23.477 4.93326L23.469 4.95414L23.4859 4.91761C23.2674 5.27769 23.0399 5.64125 22.8045 6.00481C22.5021 6.47013 22.1319 7.11983 21.7341 7.8226C21.6468 7.94071 21.5749 8.06899 21.5201 8.20444L21.2623 8.6628L21.1169 8.91154L21.1249 8.8985L21.1196 8.90631V8.91154C20.9519 9.19856 20.786 9.48559 20.6308 9.77174C20.794 9.49342 20.9581 9.20552 21.1231 8.91328L21.1294 8.90372L21.1214 8.91589L21.2632 8.66541L21.504 8.24966C21.4515 8.39499 21.3849 8.53506 21.3051 8.668L23.535 4.94804L23.5234 4.97501L23.5278 4.96023L23.535 4.94804L24.7204 2.9624L25.7836 1.13155H25.6703C25.714 1.12721 25.7595 1.12287 25.8041 1.11939C25.7515 1.23506 25.69 1.36292 25.665 1.4238L25.8246 1.10807C25.6667 1.1159 25.5098 1.1246 25.3519 1.13242L24.014 1.142L22.4976 1.15678C22.8009 1.1446 23.0819 1.1272 23.3281 1.1011C22.206 1.1011 21.0812 1.1011 19.9538 1.1011C18.8514 1.10574 17.7465 1.11069 16.6393 1.1159L15.7126 2.70929L14.2953 5.04547V4.93501L14.405 5.10025H14.2052L14.2989 5.04721L11.8906 9.01852L11.8817 8.9498L11.9807 9.04897H11.8398L11.8906 9.02026L11.5802 9.53517L11.9075 9.03071L11.8398 9.06897L12.0262 9.07593L11.895 8.93763L11.9075 9.03071C12.5792 7.987 13.2562 6.89283 13.9359 5.77605L12.0021 9.08114L11.9718 8.85936L12.2938 9.1716H11.8389L12.0021 9.0794C11.2178 10.413 10.4284 11.7443 9.63398 13.0733L9.63843 12.8994L9.77488 13.1603H9.47341L9.63398 13.0733C9.01022 14.1136 8.38227 15.1492 7.75018 16.1801C8.05166 15.5156 8.51187 14.6293 8.65458 14.1866C8.59661 14.1866 7.91873 15.2964 8.27908 14.6319C8.61802 13.9848 8.94629 13.3952 9.24955 12.8576L9.3191 12.735H9.47341L9.24328 13.102L9.17908 12.9855L9.24955 12.8611C10.0942 11.3677 10.7596 10.2684 11.0004 9.45688C11.0424 9.23683 9.23436 11.7626 9.69461 10.8755C9.98717 10.3458 10.4555 9.51951 11.0227 8.52711L11.2823 8.07571L11.8389 8.06788L11.1726 9.63344L10.6624 9.15072L11.0192 8.52363L11.6355 7.45208C11.879 7.05634 12.127 6.64321 12.383 6.21442C12.4329 6.12788 12.4753 6.03741 12.5096 5.94393L13.629 4.03134H14.2007L13.381 5.51774L13.0457 5.02633L13.3498 4.51057C13.9046 3.56689 14.3898 2.75364 14.7136 2.23005L15.2488 1.36029C15.3005 1.2881 15.3505 1.22115 15.3969 1.162C15.4093 1.14722 15.4209 1.1333 15.4317 1.11852C15.4424 1.10373 15.4682 1.06893 15.4851 1.04545L15.585 0.912373C15.7278 0.640139 15.8776 0.363555 16.031 0.0852319L16.2433 0.0800083C17.3136 0.0904454 18.3753 0.101183 19.4284 0.1122C19.9324 0.135683 20.4346 0.159172 20.9323 0.182655C20.9216 0.16526 20.8431 0.141763 20.9323 0.125237C22.1453 0.131326 23.3495 0.137411 24.5518 0.143499C25.3403 0.165243 26.0342 0.198307 26.5855 0.244404C26.8343 0.227009 27.1206 0.213094 27.4337 0.201787C27.2205 0.601006 26.9458 1.08806 26.6309 1.62731L26.1395 2.47097L25.6703 3.26594L24.393 5.39946L24.4608 5.25161L24.435 5.32727L24.393 5.39946L23.9997 6.06917H24.0068L22.5084 8.5819C22.4129 8.71497 22.3184 8.84283 22.2265 8.95415C22.1551 9.11071 22.0695 9.26728 22.0089 9.38296C21.983 9.43254 21.9616 9.46993 21.9473 9.50559C21.529 10.171 21.1615 10.7232 20.7931 11.2808C20.7222 11.4707 20.6381 11.6559 20.5416 11.8348C20.274 12.2758 20.0216 12.7045 19.7772 13.1264L19.63 13.369L19.7388 12.975V13.1925L19.605 13.4117L18.8755 14.6137L18.045 15.9688L17.6303 16.642L17.4233 16.9768L17.319 17.1447L17.2672 17.2317L17.2414 17.2734L17.2289 17.2943L17.2226 17.3047V17.3099C17.2226 17.3099 17.2137 17.3256 17.2316 17.2925L17.2066 17.3369L15.8259 19.5591C15.8122 19.5737 15.7955 19.5852 15.7769 19.5928C15.7583 19.6005 15.7382 19.6041 15.718 19.6035C15.594 19.8757 15.3612 20.2219 15.239 20.4602C15.2577 20.4124 15.2648 20.3802 15.2488 20.3802C15.0914 20.6853 14.916 20.9812 14.7234 21.2665L14.743 21.2308L14.7323 21.2508L14.7261 21.2595L14.7145 21.2769L14.6913 21.3117L14.6423 21.383L14.5406 21.5352C14.4683 21.6422 14.3889 21.764 14.2953 21.9136C14.2016 22.0632 14.1428 22.2223 14.0589 22.3771L13.9198 22.5989C13.365 23.3156 12.944 24.1001 12.4329 24.9568L12.2741 25.2073L12.3151 25.1204L12.2928 25.1786L12.2741 25.2073L10.847 27.4635C10.4215 28.1436 10.2039 28.3672 9.8855 28.8116Z" fill="#EDEDED"/>
<path d="M9.27628 11.4295C9.04883 11.7208 8.80979 12.0592 8.56272 12.4323L11.2243 7.95915H11.8344L11.0887 9.71606L10.5152 9.15594L12.1938 6.33184H12.2001C11.8255 6.98155 11.3697 7.73388 10.9246 8.47491L10.5197 9.1481L11.0914 9.71258L11.8344 7.96263H11.2341L10.9246 8.47839C10.2289 9.62995 9.56795 10.7563 9.27628 11.4295Z" fill="#EDEDED"/>
<path d="M4.58998 21.1125L2.80608 24.1775L2.32979 24.9603L2.31908 24.9795L2.32888 24.9995L2.36546 24.9403H2.34051L2.32801 24.9603C2.01285 25.4735 1.69856 25.9794 1.38519 26.4781L0.914261 27.2191L0.392463 28.0323L2.27091 24.9282L2.30301 24.876H2.36546L2.27004 25.0282L2.24326 24.9769L2.2727 24.9282L4.58998 21.1125Z" fill="#EDEDED"/>
<path d="M6.90548 15.3086C6.65752 15.6844 6.406 16.0645 6.15446 16.4471L5.86902 16.882L6.11879 17.4491L7.09994 15.9175L6.52462 15.8896L6.15446 16.4498L6.09201 16.5437L6.47736 15.907L7.10173 15.9131L6.1161 17.4517L5.86101 16.9298L6.85731 15.2799C6.82342 15.3669 6.88408 15.3086 6.90548 15.3086Z" fill="#EDEDED"/>
<path d="M1.25769 24.6237C1.00259 25.0508 0.753724 25.4648 0.511114 25.8597L1.68045 23.8427H2.36548L1.32458 25.5022L1.0347 24.9595L1.35311 24.4124L1.38346 24.3593L1.36025 24.4167L1.06235 25.123L1.32994 25.4987L2.36282 23.8462L1.55114 23.9549L1.35759 24.4124C1.33066 24.4855 1.29722 24.5563 1.25769 24.6237Z" fill="#EDEDED"/>
<path d="M70.9991 28.42C70.3569 28.42 69.7317 28.42 69.1136 28.42C69.7745 28.4157 70.4194 28.4105 70.9991 28.42Z" fill="#EDEDED"/>
<path d="M70.9991 29.3594L54.4428 1.39404H44.973L28.414 29.3594H37.8731L49.7003 9.38276L61.5284 29.3611L70.9991 29.3594Z" fill="#EDEDED"/>
<path d="M29.1302 28.9584L28.5781 28.9654H28.422C28.422 28.9654 28.4167 28.9654 28.414 28.9654C28.4113 28.9654 28.414 28.961 28.414 28.9584L28.4309 28.9297L28.463 28.8732L28.595 28.6453L29.1258 27.7355C28.9554 28.0382 28.7824 28.3392 28.6067 28.6418L28.4737 28.8688L28.4407 28.9254L28.4238 28.9541C28.4238 28.9541 28.4193 28.9593 28.4238 28.9602H28.5852L29.1302 28.9584Z" fill="#EDEDED"/>
<path d="M38.551 10.2708C38.5331 10.2751 38.551 10.2221 38.5876 10.1464C38.6241 10.0707 38.6642 9.99855 38.691 9.93854L39.5187 8.5878L39.7685 8.17989L40.2314 8.18686L39.4518 9.24709L39.3341 8.88874L39.5187 8.5878L40.5481 6.9109C40.4044 7.16748 40.2876 7.4145 40.1351 7.67281C39.8925 8.06942 39.7114 8.35035 39.5482 8.60432L39.3698 8.8757L39.4804 9.23664L40.2279 8.21903L39.8015 8.20425L39.5446 8.60432C39.2494 9.06877 39.0023 9.448 38.551 10.2708Z" fill="#EDEDED"/>
<path d="M29.9365 28.9541C29.9615 28.9541 29.9883 28.9489 30.0141 28.9471C30.2615 28.9436 30.5062 28.9401 30.7482 28.9367C30.7776 28.9367 30.8053 28.9367 30.8374 28.9367L30.3852 28.9445L29.9365 28.9541Z" fill="#EDEDED"/>
<path d="M37.7741 11.5685C37.7402 11.5763 37.7054 11.585 37.6358 11.6633L38.6839 9.95071C38.6473 10.0229 38.6134 10.0916 38.5875 10.1473C38.3779 10.5378 37.9988 11.124 37.7741 11.5685Z" fill="#EDEDED"/>
<path fill-rule="evenodd" clip-rule="evenodd" d="M27.5355 28.9715L27.539 28.9358L27.5943 28.4009V28.36L27.6157 28.3261L27.671 28.2348C27.7075 28.1739 27.7441 28.113 27.7816 28.053L28.4238 26.9997L28.6022 26.7136L28.7163 26.5318L29.388 25.469C29.4136 25.4185 29.4438 25.3544 29.4788 25.28C29.5471 25.1349 29.6337 24.9509 29.7403 24.754V25.3889L30.0409 25.6847L30.0466 25.6711L30.0516 25.676L30.7651 23.9999H30.7569L30.7625 23.9869H30.1872C30.5029 23.456 30.8112 22.9362 31.1112 22.4239L29.7403 24.7097V24.72L27.9287 27.7538L27.7361 28.0782L27.6397 28.2409L27.5916 28.3218L27.5675 28.3618L27.5613 28.3722V28.3939L27.5247 28.8523L27.5154 28.9715H27.5355ZM29.7545 24.7278C29.7832 24.6754 29.8132 24.6223 29.8447 24.5688L29.8937 24.494L30.1907 23.9999H30.7569L30.0466 25.6711L29.7545 25.382V24.7278Z" fill="#EDEDED"/>
<path d="M38.5876 10.1464C38.6134 10.0907 38.6473 10.022 38.6839 9.94984L38.691 9.93854C38.6642 10.0029 38.6295 10.069 38.5876 10.1464Z" fill="#EDEDED"/>
<path d="M45.3521 16.32L45.5474 15.9938L44.9748 16.9862L44.0989 18.497C44.3665 18.0221 44.6563 17.5133 44.9658 16.981L45.3521 16.32Z" fill="#EDEDED"/>
<path d="M55.1965 16.961L56.3087 18.8118L57.4246 20.6801L57.4023 20.6383L61.9459 28.2739L59.592 24.3304L60.8835 26.5127L61.5017 27.5711L61.7969 28.08L61.9254 28.3087C62.0056 28.3087 62.0868 28.3139 62.1689 28.3157C62.3437 28.3157 62.5221 28.3183 62.704 28.3235C63.1009 28.3287 63.5068 28.3348 63.9224 28.3409C63.6263 28.3592 63.2044 28.3652 62.7701 28.3696C62.5685 28.3696 62.3651 28.3696 62.1706 28.3748C62.0699 28.3748 61.9726 28.38 61.8852 28.3835C61.8382 28.3072 61.7826 28.2363 61.7193 28.1721L59.5358 24.4609L57.3336 20.6792L57.3541 20.7157L55.011 16.6574L54.9735 16.5931L54.9111 16.5296L55.0101 16.6574L52.691 12.6339L52.6482 12.5608L52.5768 12.4887L52.691 12.6339L52.3726 12.0807C52.4974 12.2634 52.6161 12.4417 52.7294 12.613L52.6081 12.46L52.6589 12.5052L52.7294 12.613C53.7667 14.2108 54.3126 15.4241 55.0172 16.6522L54.9164 16.5226L54.9789 16.587L55.0172 16.6522L55.1965 16.961Z" fill="#EDEDED"/>
<path d="M50.5976 9.94811C50.3505 9.56455 50.1106 9.14879 49.8698 8.74001L49.7752 8.57041L49.7048 8.44081L49.6985 8.43037C49.6985 8.43037 49.6985 8.42341 49.6932 8.43037L49.6816 8.45124L49.1098 9.44972L48.3544 10.7144L47.0753 12.8418L47.1217 12.7826L47.0958 12.807L47.0753 12.8418L45.0916 16.1347C45.7374 15.0562 46.3894 13.9438 47.0459 12.8253L47.0664 12.7896L47.0976 12.7592L47.0459 12.8253L47.8201 11.5085L48.6576 10.0968L48.9073 9.67761L49.0322 9.46974L49.6477 8.39036L49.6789 8.33732L49.6941 8.31122C49.6941 8.30426 49.6985 8.31121 49.7012 8.31816L49.7083 8.33209L49.7699 8.44343L49.8903 8.66522L50.1302 9.1053L50.3657 9.54018L50.5976 9.94811Z" fill="#EDEDED"/>
<path d="M52.1371 12.8244L52.1906 12.9114L52.1675 12.8827L52.1808 12.8948L52.1906 12.9114C52.9818 14.2421 53.7712 15.5876 54.5383 16.9166L54.5196 16.8931L54.5311 16.9053L54.5383 16.9166C55.2117 18.0847 55.8682 19.238 56.4952 20.36C55.8596 19.2368 55.2037 18.0914 54.5276 16.9236L54.5213 16.9123L54.5106 16.9018L54.5276 16.9236C53.7658 15.605 52.9827 14.2638 52.1898 12.9114L52.1808 12.8966L52.1675 12.8827L52.1898 12.9114L52.1371 12.8244Z" fill="#EDEDED"/>
<path fill-rule="evenodd" clip-rule="evenodd" d="M68.8817 24.8427C69.5845 26.0482 70.2793 27.2363 70.9563 28.3548C70.7975 28.0507 70.6715 27.7949 70.5413 27.5306C70.3263 27.0941 70.0999 26.6347 69.696 25.8969L68.9013 24.5H68.8958L67.2467 21.5994L66.7116 20.6931L66.5635 20.4444H66.5485C65.9677 19.47 65.4263 18.5497 64.9508 17.5872L64.7368 17.2106C64.6776 17.1182 64.6177 17.0285 64.5581 16.9392C64.4988 16.8505 64.4397 16.762 64.3817 16.6715C64.3812 16.6705 64.3806 16.6696 64.38 16.6687C64.3416 16.6087 64.3042 16.5487 64.2667 16.4861C64.0429 16.0932 63.8862 15.8041 63.7447 15.5433C63.4762 15.0483 63.2627 14.6546 62.7504 13.8446C62.7504 13.822 62.7888 13.8629 62.8396 13.9316C62.7349 13.77 62.6135 13.5644 62.4869 13.3499C62.3903 13.1862 62.2907 13.0173 62.193 12.8589L62.1956 12.8505L62.0591 12.6452L61.9896 12.5409C62.0039 12.4852 61.9979 12.4265 61.9726 12.3747L59.9948 8.93213L59.9952 8.93136L59.799 8.5913L59.5947 8.23643L59.5937 8.23642L57.2551 4.19292H57.249L57.1329 3.99287L55.6799 1.49928L54.8923 0.176383H52.9791C52.6618 0.177644 52.3711 0.20402 52.1574 0.223416C52.0762 0.230788 52.0061 0.237152 51.9498 0.240745L51.9305 0.24018C50.8069 0.207318 49.6856 0.174524 48.3597 0.153769C48.274 0.159173 48.1493 0.162636 48.0031 0.166694C47.7964 0.172433 47.547 0.17936 47.3045 0.194645C47.0548 0.173771 46.7952 0.156387 46.5196 0.141602H44.4681L42.5157 3.43014H42.5228L42.0137 4.29593L39.7314 8.12597H39.7265L39.4803 8.54345C38.6865 9.88897 37.9908 11.1005 37.601 11.8964C37.5457 11.9748 37.4898 12.0551 37.4332 12.1374L37.4306 12.1373L37.2782 12.365C37.2357 12.428 37.1926 12.4924 37.1488 12.5583C37.1058 12.6226 37.0623 12.6881 37.0183 12.7547L36.8928 12.9436L36.8936 12.9447C36.7573 13.1534 36.6173 13.3715 36.4745 13.5968L34.4908 16.9253L34.4913 16.9264L33.6408 18.35C33.5937 18.4551 33.6281 18.4286 33.6592 18.4045C33.6706 18.3957 33.6816 18.3873 33.688 18.3856L32.6209 20.0738H32.6115L32.405 20.4154L32.3724 20.467L32.3448 20.5139L32.1048 20.9132L30.2061 24.0647L30.1925 24.0652L30.0647 24.2994L30.0596 24.3078L29.9544 24.4992L29.8232 24.7383L29.8233 24.7415C29.7331 24.9084 29.6444 25.0755 29.5574 25.2428C29.4352 25.3976 29.2898 25.6046 29.1257 25.8516L27.9769 27.7556L27.7343 28.1609L27.6701 28.267L27.6379 28.3209C27.6347 28.3343 27.6326 28.348 27.6317 28.3618L27.6148 28.5218L27.5681 28.9715H38.8327L38.8524 28.9062L38.8649 28.8654V28.8549C38.8652 28.8538 38.8654 28.8528 38.8656 28.852C38.8664 28.848 38.8664 28.848 38.8738 28.848H38.9844C38.9954 28.8491 39.0065 28.8491 39.0174 28.848L39.0237 28.8375L39.0692 28.7592L39.1584 28.6018L39.8576 27.3981L41.0074 25.4055L41.0368 25.3507L41.0243 25.375L41.0288 25.3689L41.0359 25.3559L41.0502 25.3307L41.0787 25.2819L41.1332 25.1872L41.2366 25.008L41.415 24.6923L41.704 24.1861C41.9225 23.7868 41.8663 23.8208 41.671 24.073C41.5738 24.2 41.4417 24.3809 41.2919 24.5896L41.0564 24.9201L40.9333 25.0941L40.8709 25.1811L40.8397 25.2254L40.8156 25.2593V25.2644L40.8022 25.2889C40.7654 25.3411 40.7285 25.3934 40.6918 25.4454C40.1813 26.169 39.7032 26.8468 39.7515 26.7031C39.9779 26.165 40.2322 25.6385 40.5132 25.1254L40.5239 25.1054L40.6934 24.7905L40.8807 24.4522L41.2865 23.7312L42.2169 22.116C42.8858 20.9601 43.6449 19.6468 44.4646 18.1612C44.8061 17.5517 44.614 17.8513 44.3637 18.2416C44.163 18.5548 43.9248 18.9262 43.8946 18.9336C44.0748 18.5066 44.4426 17.8007 44.8261 17.0645C44.8488 17.0208 44.8717 16.977 44.8945 16.9331V16.9296L44.9025 16.9192L44.8945 16.9288V16.9296L44.8918 16.9331L44.9332 16.854C45.1434 16.4523 45.3533 16.051 45.5358 15.6911L44.8124 16.8888L42.422 20.8749L40.045 24.8758L40.0512 24.8645L37.7437 28.7784L33.4963 28.7928L33.4712 28.742L33.5409 28.7845L33.5017 28.7052L33.5917 28.7601L33.5013 28.5817C33.6175 28.5821 33.7336 28.5826 33.8497 28.583L33.9021 28.6149L33.8867 28.5831C33.8944 28.5831 33.9022 28.5832 33.9099 28.5832L33.9405 28.6018L33.9322 28.5833C34.9749 28.5869 36.0165 28.5888 37.0569 28.5888H37.6189C37.6243 28.5861 37.6281 28.5793 37.632 28.5723C37.6345 28.5677 37.6371 28.563 37.6403 28.5592L39.0638 26.1604C38.7713 26.597 38.4662 27.085 38.1469 27.6068L37.7134 28.3218L37.601 28.5096L37.5921 28.5253H37.2344C36.997 28.5262 36.7587 28.5276 36.5188 28.529C36.0858 28.5315 35.6477 28.534 35.1999 28.534H33.9103L33.8847 28.4762C33.9467 28.476 34.0088 28.4758 34.0709 28.4757L34.1314 28.5122L34.112 28.4755C35.2456 28.4723 36.3871 28.4689 37.5368 28.4653C37.5433 28.4662 37.5499 28.4662 37.5564 28.4653L37.5662 28.4488L37.5867 28.4139L37.6278 28.3452L37.9765 27.7512L39.7684 24.7262L39.7515 24.7584L44.5011 16.7314L44.585 16.6244L44.5358 16.6724L46.8554 12.7192L46.9362 12.6192L46.8835 12.6713L46.8554 12.7192L46.847 12.7296L48.8815 9.23317C48.9131 9.18018 48.944 9.12217 48.9755 9.06304L48.985 9.04531L49.5041 8.07641L49.6075 7.88158L49.6602 7.78329L49.686 7.73457V7.73545L49.6923 7.74763L49.7057 7.77112L50.3345 8.90527C50.4373 9.0969 50.5396 9.26447 50.6425 9.43295C50.6807 9.4954 50.7189 9.55799 50.7573 9.62197L51.1836 10.323L52.3289 12.1764L51.197 10.2525L50.7626 9.51671L50.5459 9.14793C50.4987 9.06964 50.4516 8.981 50.4042 8.89189C50.379 8.84438 50.3537 8.79674 50.3282 8.75047L49.7833 7.7337L49.7288 7.63195L49.7012 7.5815L49.6878 7.55542C49.6833 7.55108 49.6821 7.54674 49.6817 7.54681C49.6816 7.54683 49.6816 7.54758 49.6816 7.54933L49.6744 7.56149L49.4559 7.96333C49.377 8.10618 49.2984 8.25129 49.2197 8.39637C49.0057 8.791 48.7918 9.18538 48.5746 9.53325L47.8246 10.7866L46.7513 12.5638L46.7506 12.5643L46.7335 12.5932L46.6989 12.6505L46.701 12.6477L46.6989 12.6513L45.2615 15.0098C45.5627 14.5121 45.8832 13.9561 46.2045 13.3986C46.2641 13.2953 46.3236 13.1919 46.3831 13.0888L44.3503 16.5224L44.3281 16.5443C45.0942 15.2302 45.8512 13.9175 46.599 12.6061L46.6454 12.5243L46.653 12.5169L46.6035 12.6044L46.7346 12.4374L46.653 12.5169L47.6194 10.8109L48.5345 9.20796L48.7442 8.8357C48.7763 8.7783 48.8075 8.71567 48.8378 8.65479L48.927 8.48083L49.2106 7.90245C49.5264 7.25361 49.5728 7.08748 49.4372 7.27882C49.3694 7.37363 49.2561 7.55715 49.1089 7.80851L48.8637 8.23382L48.7254 8.47822C48.6929 8.53741 48.6596 8.59001 48.6254 8.64396C48.6098 8.6685 48.5941 8.69331 48.5782 8.71915C48.3749 9.04183 48.151 9.4019 47.9244 9.77502L47.6283 10.2621L47.4615 10.5413L46.4131 12.322L46.4072 12.3278L46.3314 12.4548L43.9606 16.4461L39.3278 24.213L39.2547 24.3365L39.2181 24.3992L39.2012 24.4266L39.2038 24.4218L37.18 27.8486V27.8547C37.0541 27.8554 36.9286 27.8567 36.8032 27.8579C36.616 27.8598 36.4292 27.8617 36.2417 27.8617L34.1162 27.8825C34.0118 27.8847 33.9075 27.8869 33.8031 27.8892L33.0993 26.5535L32.4211 27.9129C31.8721 27.9229 31.3222 27.9328 30.7714 27.9425L30.4762 27.9469H30.4039L30.3432 27.9556C30.2986 27.9617 30.2496 27.9669 30.1961 27.9721C30.2089 27.9339 30.2247 27.8967 30.2433 27.8608L30.2737 27.7947L30.2826 27.7773V27.7686C30.2872 27.7586 30.2925 27.749 30.2986 27.7399L31.3354 25.9468L33.1484 25.9291L31.9877 24.8192L32.1985 24.4548L33.6919 21.9647H34.7111L34.2467 21.0311C34.7629 20.1608 35.214 19.3905 35.4844 18.9092L36.0496 17.8793L37.0248 17.849L36.5408 16.9912L38.3284 13.75L39.3564 13.722L38.7765 12.9422L40.6175 9.64003L41.1545 9.62804L40.942 9.05883C41.5895 7.90501 42.2488 6.73659 42.92 5.55355L43.495 5.54366L43.2225 5.0222L45.2361 1.49667C45.3494 1.49058 45.4645 1.49058 45.5795 1.49058C45.768 1.48652 45.9568 1.4845 46.1459 1.4845C48.762 1.47146 51.4503 1.45841 54.1663 1.44537L56.3117 5.02455L56.1072 5.41929H56.5493L58.7031 9.0264L58.5172 9.3993H58.9239L61.0866 13.0474L60.9665 13.3906H61.2945C62.0144 14.6109 62.7212 15.8168 63.415 17.0082L63.2053 17.4002L63.6487 17.4036C64.3601 18.6261 65.0525 19.8268 65.7258 21.0056L65.4985 21.442L65.9792 21.4497C66.6774 22.6747 67.3496 23.8691 67.9956 25.0327L67.8069 25.5272L68.2766 25.5397C69.0064 26.8588 69.6945 28.1288 70.3409 29.3498C69.8405 28.3461 69.0708 26.9482 68.294 25.5402L68.623 25.549L68.5936 25.5325L68.623 25.5333L68.1405 25.2619L68.1528 25.2843L68.1271 25.2698L68.1228 25.2274C68.129 25.2386 68.1352 25.2499 68.1413 25.2611L68.0959 24.814L68.0842 24.8444L68.0807 24.8097L68.0037 25.0114C67.2774 23.6938 66.5732 22.409 66.105 21.4698L66.5626 22.1387C66.5031 21.9946 66.3809 21.7491 66.2267 21.4536L66.2575 21.4541L66.2142 21.4297C66.1797 21.3636 66.1436 21.2952 66.1064 21.2249L66.2354 21.2305L68.4108 25.0047L68.35 25.1741H68.5112C69.4856 26.853 70.2175 28.0748 70.1509 27.7495C70.0938 27.4694 69.5221 26.3865 68.714 24.9358L68.6881 24.8888H68.6852C68.0631 23.7719 67.3044 22.4423 66.5384 21.1025L66.5989 20.9799L66.7133 21.1584L66.714 21.1571C67.3453 22.2153 67.9799 23.3048 68.6098 24.3862C68.6319 24.4241 68.6541 24.4621 68.6762 24.5H68.6337L68.7833 24.7044H68.6319L68.8995 25.0723L68.9414 24.9549L68.8763 24.8436C68.8648 24.8238 68.8532 24.804 68.8417 24.7841L68.8705 24.8236L68.8817 24.8427ZM68.7952 24.7044C68.8107 24.731 68.8262 24.7576 68.8417 24.7841L68.7833 24.7044H68.7952ZM66.4326 20.6948C66.462 20.7438 66.4913 20.7928 66.5207 20.8419L66.6009 20.9758L66.5989 20.9799L66.4163 20.6948H66.4326ZM66.282 20.4444H66.2557L66.4163 20.6948H66.304L64.8055 18.0638C65.2922 18.8211 65.7855 19.6204 66.282 20.4444ZM66.3704 20.8114H66.3708L66.4217 20.8984C66.4606 20.9664 66.4995 21.0344 66.5384 21.1025L66.5305 21.1184L66.4589 21.007L66.4698 20.9854L66.4199 20.8984L66.3704 20.8114ZM66.3333 20.8114L66.2584 20.6948H66.304L66.3704 20.8114H66.3333ZM66.2257 21.2136L66.2575 21.2315L66.2354 21.2305L66.2257 21.2136ZM66.0687 21.1254L66.2257 21.2136L66.1748 21.1254H66.0687ZM66.0535 21.1254C66.0714 21.1589 66.089 21.1921 66.1064 21.2249L65.8589 21.2141L65.9806 20.9933C66.0015 21.0325 66.0222 21.0713 66.0425 21.1097L66.0345 21.1254H66.0535ZM66.0442 21.1065L66.0372 20.8905L65.9806 20.9933C65.8484 20.7451 65.7071 20.4834 65.571 20.2312C65.3912 19.8981 65.2204 19.5815 65.0909 19.3346C65.2451 19.573 65.3906 19.8166 65.5271 20.065L65.7402 20.4713C65.6718 20.3345 65.6008 20.1991 65.5271 20.065L65.3192 19.6685C65.5569 20.0662 65.8208 20.5165 66.0999 20.9974L66.0442 21.1065ZM66.0442 21.1065L66.0444 21.1132C66.0438 21.112 66.0432 21.1109 66.0425 21.1097L66.0442 21.1065ZM66.0535 21.1254C66.0514 21.1213 66.0492 21.1173 66.047 21.1132L66.0687 21.1254H66.0535ZM68.0133 25.0288C68.0497 25.095 68.0862 25.1612 68.1228 25.2274L68.0842 24.8444L68.0133 25.0288ZM68.0051 25.05C68.0459 25.1234 68.0865 25.1966 68.1271 25.2698C68.174 25.3543 68.2207 25.4387 68.2672 25.5228L67.8283 25.5098L68.0051 25.05ZM68.2847 25.5233C68.2637 25.4854 68.2428 25.4474 68.2219 25.4095L68.1528 25.2843L68.5936 25.5325L68.2847 25.5233ZM33.1715 21.9362L33.1208 21.9647H33.1548C33.136 21.9967 33.1172 22.0288 33.0984 22.0608C32.6209 22.8751 32.1411 23.6933 31.659 24.505L31.6126 24.4606L33.3939 21.5011H33.4267C33.3417 21.646 33.2566 21.791 33.1715 21.9362ZM33.9453 21.5011H33.4267C33.4332 21.49 33.4397 21.479 33.4462 21.4679L33.9235 21.4716L33.7068 21.0303C33.7093 21.026 33.7119 21.0216 33.7144 21.0173L33.9554 21.4954L33.9453 21.5011ZM33.7016 20.992L34.8654 19.0771C34.4836 19.7129 34.1004 20.3619 33.7144 21.0173L33.7016 20.992ZM33.6941 21.0045L33.7068 21.0303C33.6634 21.104 33.62 21.1777 33.5765 21.2515L33.5786 21.1945L33.6941 21.0045ZM33.5927 20.7982L33.5935 20.7775L33.7016 20.992L33.6941 21.0045L33.5927 20.7982ZM33.191 21.4659L33.1288 21.5011H33.3939L33.414 21.4676L33.4462 21.4679C33.4891 21.3948 33.5319 21.3218 33.5748 21.2489L33.5307 21.2738L33.414 21.4676L33.191 21.4659ZM31.5849 24.4342C31.8934 23.9135 32.2225 23.3646 32.5767 22.7779C32.2834 23.2187 31.9282 23.7821 31.5464 24.3973L31.5849 24.4342ZM31.5137 24.4501L31.5395 24.5109C31.4735 24.6224 31.4085 24.7326 31.3443 24.8416L31.2991 24.7971C31.3714 24.68 31.443 24.5642 31.5137 24.4501ZM31.4605 24.3152L31.4537 24.3087L31.4582 24.3192L31.2278 24.7269L31.1974 24.697L31.872 23.5868L31.4605 24.3152ZM31.1749 24.734L31.1974 24.697L31.1492 24.6495L33.2487 21.1532H33.4383L33.3514 20.9767L34.4203 19.1893L34.2277 19.5233L34.6157 18.8623L35.6251 17.1758H35.8492L35.7463 16.978L36.6538 15.4554C37.1099 14.6793 37.5478 13.9072 37.9761 13.1377L38.1959 13.1323L38.0718 12.9646L38.3886 12.393L38.6883 11.8851C38.5171 12.2164 38.4439 12.3826 38.8212 11.7685C39.3357 10.9408 39.8501 10.081 40.3645 9.19751H40.5435L40.4762 9.0064C40.6892 8.64395 40.9036 8.27752 41.1199 7.90766C41.6395 7.01947 42.1707 6.11149 42.7222 5.1914H42.9376L42.8415 4.99547C43.1879 4.42039 43.5437 3.84033 43.9089 3.25532C44.0872 2.96482 44.2906 2.63346 44.5047 2.27251L44.8356 1.71063L45.113 1.23052C45.3105 1.23052 45.513 1.22689 45.7188 1.2232C45.815 1.22148 45.912 1.21974 46.0094 1.21835C46.257 1.23325 46.5054 1.23004 46.7524 1.20878C46.9019 1.20657 47.0525 1.2046 47.2034 1.20262C47.3505 1.20069 47.4977 1.19876 47.6444 1.19661H47.6447C48.3733 1.19661 49.1046 1.19661 49.8198 1.17748C49.2134 1.17748 48.5888 1.18511 47.9626 1.19276C47.8565 1.19405 47.7504 1.19535 47.6444 1.19661H46.8283C47.081 1.16979 47.335 1.15615 47.5892 1.15573C46.983 1.15566 46.3739 1.15287 45.7528 1.15004C45.5249 1.149 45.2955 1.14795 45.064 1.14703L42.8087 4.92846L42.7931 4.89656L42.7907 4.95856L42.7735 4.98744L42.7885 5.01762L42.7859 5.08791C42.7928 5.0765 42.7996 5.06509 42.8065 5.05368L42.8439 5.12878H42.7598C42.7676 5.11574 42.7754 5.10269 42.7833 5.08965L42.7146 5.12878H42.689L42.6758 5.15096L42.6049 5.1914H42.6517L40.3918 8.99243L40.4257 9.09113L40.3835 9.11489H40.3165L40.2831 9.17141L40.2367 9.19751H40.2676L38.6821 11.879L39.112 11.0588L38.3824 12.3869L38.0556 12.9426L38.0131 12.8853L38.0146 12.9263L38.0422 12.9654L38.0175 13.0073L38.0193 13.0589L37.9667 13.0885L37.9513 13.1149H37.9197L37.8748 13.1401L37.9374 13.1386L35.8671 16.6792C36.1079 16.2443 36.3264 15.8425 36.5093 15.4824L35.6245 16.9712L35.678 17.0732H35.5632L33.3088 20.8905L33.3072 20.8871L33.3069 20.8937L33.2603 20.9726L33.3012 21.0541L33.3009 21.061L33.303 21.0576L33.3117 21.0749H33.2957L33.3009 21.0662L33.2845 21.0749H33.1947L33.1539 21.1441L33.1368 21.1532H33.1486L31.0743 24.6789L31.0711 24.6757L31.0732 24.6808L31.0364 24.7433L31.0716 24.7788L31.0969 24.7367L31.1283 24.8107L31.1187 24.8264L31.147 24.8549L31.1506 24.8635L31.1524 24.8604L31.2012 24.9096L31.1683 24.8323L31.1913 24.7916L31.1589 24.7603L31.1464 24.7809L31.123 24.7257L31.1106 24.7138L31.1149 24.7067L31.0925 24.654L31.1264 24.6876L31.1433 24.6595L31.1749 24.734ZM31.1759 24.7366L31.1749 24.734L31.1743 24.735L31.1759 24.7366ZM31.2057 24.766L31.2278 24.7269L31.2991 24.7971C31.2913 24.8098 31.2834 24.8225 31.2756 24.8352L31.2057 24.766ZM31.3214 24.8805C31.329 24.8676 31.3367 24.8546 31.3443 24.8416L31.3688 24.8658L31.3456 24.9044L31.3214 24.8805ZM31.3078 24.9038C31.3123 24.896 31.3169 24.8883 31.3214 24.8805L31.2756 24.8352C31.2708 24.843 31.2659 24.8509 31.2611 24.8588L31.2048 24.8045L31.2413 24.8908C31.2338 24.9029 31.2263 24.9151 31.2188 24.9273L31.2659 24.9749C31.2681 24.9713 31.2702 24.9676 31.2724 24.964L31.2851 24.9941L31.2891 24.9983L31.2797 25.0139L31.2655 25.0653L31.2548 25.0552L31.2196 25.1138L31.2451 25.1392L31.2285 25.1994L31.1684 25.1988L31.1665 25.2019L31.1673 25.1988L31.135 25.1985C31.1369 25.1953 31.1388 25.1921 31.1406 25.1889C31.1591 25.1573 31.1776 25.1256 31.1962 25.0939L31.1969 25.0913L31.1974 25.0918C31.2088 25.0724 31.2202 25.0529 31.2317 25.0334L31.2167 25.0193L31.229 24.9749L31.2128 24.937C31.2067 24.9469 31.2006 24.9569 31.1944 24.9668L31.1986 24.9767L31.1931 24.9969L31.1822 24.9867C31.1707 25.0053 31.1593 25.0239 31.1478 25.0425L31.1736 25.0681L31.1577 25.1263L31.1194 25.0885C31.1112 25.102 31.1029 25.1154 31.0946 25.1289H31.157L31.1406 25.1889L31.1237 25.1984L31.0571 25.1978L31.0279 25.2454L31.0405 25.2452L31.0216 25.2559L30.9949 25.2994L31.0927 25.2444L31.1084 25.2441C31.1109 25.2399 31.1133 25.2356 31.1158 25.2313L31.1665 25.2028L31.142 25.2436L31.2167 25.2423L31.2147 25.2498C31.2162 25.2473 31.2177 25.2448 31.2192 25.2423L31.4492 25.2385L31.3036 25.1012C31.3146 25.0829 31.3256 25.0645 31.3365 25.0462L31.6375 25.3498L31.1582 25.3422L31.2147 25.2489L31.1001 25.3134L31.0836 25.341L31.0522 25.3405C31.0522 25.3405 31.0522 25.3405 31.0522 25.3405L30.9706 25.3392L30.9332 25.4001L30.9463 25.4001L30.9264 25.4113L30.9145 25.4308L30.892 25.4306L30.7982 25.4835L30.8287 25.4302L30.7633 25.4298L30.8148 25.4008L30.8457 25.4006L30.8602 25.3753L30.9256 25.3385L30.8817 25.3378L30.8844 25.333L30.8761 25.3377L30.8145 25.3367L30.7821 25.3906L30.7633 25.4011L30.7758 25.401L28.7841 28.7097L28.7529 28.761C28.7529 28.7646 28.7498 28.769 28.7468 28.7732C28.7435 28.778 28.7403 28.7825 28.7422 28.7853H29.6163L30.618 28.7906C31.391 28.7958 32.159 28.8004 32.9219 28.8045L28.6601 28.8227L29.3103 27.7103L30.7904 25.2494L30.8679 25.2481L30.8407 25.2933L30.9244 25.2472L30.9337 25.247L30.9379 25.2397L31.0148 25.1973L30.9625 25.1968L31.0014 25.1289H31.0862L31.1023 25.0717L31.0579 25.0277L31.0848 24.9799L31.1187 25.0136L31.1282 24.9801L31.1095 24.9362L31.1162 24.9245L31.0968 24.9062L31.0859 24.8805L31.0799 24.8903L31.0319 24.845L31.0547 24.807L31.0313 24.752L30.9963 24.8115L30.9658 24.7827L30.9857 24.8296L30.9664 24.8623L31.0009 24.8966L31.0086 24.8838L31.0234 24.9189L31.0478 24.9431L31.0395 24.9568L31.0479 24.9767L31.0388 25.0089L31.0195 24.9898L31.0026 25.0175L31.0292 25.0432L31.0181 25.0828H30.963L30.9614 25.0854L30.9621 25.0828H30.8906L30.9105 25.0497L30.852 25.0828H30.8342L30.8253 25.0979L30.7705 25.1289H30.8071L29.2997 27.6981L28.9429 28.2852L28.7645 28.5801L28.6307 28.8019L28.6191 28.821C28.6191 28.821 28.6128 28.828 28.6191 28.8288H28.6726L30.0596 28.8393C31.0392 28.847 32.0131 28.854 32.9813 28.8601L33.1208 28.5914L33.1239 28.5975L32.9835 28.8601C32.992 28.8602 33.0005 28.8602 33.0091 28.8603L32.9717 28.8821L32.9709 28.8836L33.0104 28.8603C33.0274 28.8604 33.0445 28.8605 33.0616 28.8606L33.0851 28.8162L33.1181 28.7967L33.0852 28.8158L33.1234 28.7436L33.1477 28.7939L33.2215 28.7937L33.1615 28.672L33.223 28.7937L33.4779 28.7928L33.4928 28.8018C33.404 28.8012 33.3151 28.8006 33.2261 28.8L33.2592 28.8654C34.4419 28.8732 35.6184 28.8804 36.7885 28.8871L37.6706 28.8923H37.8053C37.8115 28.8923 37.8115 28.8923 37.8142 28.8854L37.8213 28.8741L37.8481 28.8297L37.9569 28.6488L39.095 26.7501L38.1674 28.2356L37.9489 28.5835L37.8427 28.7575L37.7901 28.8445C37.7901 28.8528 37.7827 28.8523 37.7752 28.8517C37.7733 28.8516 37.7714 28.8514 37.7696 28.8514H37.692C37.4887 28.8514 37.2854 28.847 37.0814 28.8426C36.9991 28.8408 36.9166 28.839 36.8339 28.8375C35.7363 28.8219 34.6253 28.81 33.5009 28.8019L33.4963 28.7928L33.4779 28.7928L33.127 28.5801C33.1533 28.5802 33.1796 28.5803 33.2059 28.5804L33.4712 28.742L33.4318 28.6626L33.5017 28.7052L33.4406 28.5814C33.4609 28.5815 33.4811 28.5816 33.5013 28.5817L33.4772 28.534H33.7693L33.6754 28.4768C33.5997 28.477 33.5241 28.4772 33.4486 28.4774L33.347 28.2768L33.2657 28.2273L33.3893 28.4776C33.3729 28.4776 33.3565 28.4777 33.3401 28.4777L33.1945 28.1839L33.1181 28.1374C33.1359 28.1376 33.1538 28.1378 33.1717 28.138L33.1686 28.1317L33.179 28.1381C33.1933 28.1382 33.2076 28.1384 33.2219 28.1385L33.24 28.1752L33.3203 28.2241L33.2773 28.1391C33.3581 28.14 33.439 28.141 33.5198 28.1419L33.4794 28.1174C33.407 28.1145 33.3345 28.1116 33.2618 28.1085L33.172 27.9312L33.1261 27.9034C33.1366 27.9032 33.1471 27.903 33.1576 27.9028L33.1351 27.8582L33.1133 27.9002C33.1176 27.9001 33.1219 27.9 33.1261 27.8999L33.1077 27.9109L33.0113 28.0969C33.0026 28.0965 32.9938 28.0961 32.985 28.0957C32.9271 28.0932 32.869 28.0907 32.8106 28.0881L32.7361 28.1325C32.8232 28.1336 32.9084 28.1347 32.9912 28.1357L32.9583 28.1992L33.0629 28.1368C33.0629 28.1368 33.063 28.1368 33.0629 28.1368L33.1216 28.1017C33.1086 28.1012 33.0955 28.1006 33.0825 28.1L33.1449 27.9826L33.2059 28.1062C33.1889 28.1055 33.1719 28.1048 33.1549 28.104L33.1395 28.073L33.1238 28.1027C33.1228 28.1027 33.1218 28.1026 33.1208 28.1026L33.1231 28.104L33.1055 28.1372C33.1097 28.1373 33.1139 28.1373 33.1181 28.1374L33.0996 28.1484L32.9243 28.4797C32.9097 28.4798 32.8951 28.4799 32.8806 28.4799L33.0369 28.1858L32.9332 28.2476L32.8126 28.4804C32.7215 28.481 32.6307 28.4815 32.54 28.4821L32.462 28.5286C32.5693 28.5298 32.6774 28.5308 32.786 28.5317L32.7622 28.5776C32.6358 28.577 32.5093 28.5764 32.3828 28.5758L32.3421 28.6001L32.3553 28.5757C32.3461 28.5757 32.3369 28.5756 32.3277 28.5756L32.3685 28.5512L32.3813 28.5277C32.39 28.5278 32.3987 28.5279 32.4075 28.528L32.4838 28.4825C32.4576 28.4826 32.4315 28.4828 32.4054 28.4829L32.5277 28.2569L32.4893 28.2798L32.3703 28.4832C32.2954 28.4836 32.2207 28.4841 32.146 28.4845L32.1316 28.4931L32.1359 28.4846C31.6919 28.4872 31.2511 28.4897 30.8106 28.4922C31.2998 28.5098 31.8136 28.5207 32.3445 28.5272L32.3162 28.5755C31.4367 28.5715 30.5543 28.5675 29.6689 28.5635H29.1543C29.1563 28.5576 29.1593 28.552 29.1632 28.547L30.3441 26.5848L30.0623 27.0858L29.924 27.3346L29.8554 27.459L29.8054 27.552L29.8321 27.5112L29.8767 27.4398L29.9659 27.2963L30.1443 27.0084L30.5011 26.4274L30.7888 25.9522L30.7553 25.9525L30.8059 25.924L31.059 25.5061L31.5438 25.5084L31.6107 25.4707L31.5888 25.5086L32.0236 25.5107L31.7458 25.2371L31.7225 25.2774L31.8836 25.4368L31.6312 25.4352L31.6107 25.4707L31.6204 25.4351L31.1038 25.4319L31.1238 25.399L31.6312 25.3961L31.6704 25.2532L31.38 24.9734C31.3844 24.9661 31.3888 24.9588 31.3931 24.9515L31.6763 25.2316L31.6899 25.182L31.4163 24.9126C31.4735 24.8167 31.5307 24.7208 31.5878 24.6247L31.5573 24.5527L31.3688 24.8658L31.4163 24.9126C31.4086 24.9255 31.4009 24.9385 31.3931 24.9515L31.3456 24.9044L31.3319 24.9271L31.3078 24.9038ZM31.3319 24.9271L31.2891 24.9983L31.3365 25.0462C31.351 25.0219 31.3655 24.9977 31.38 24.9734L31.3319 24.9271ZM31.7129 25.2941L31.6539 25.396L31.8176 25.395L31.7129 25.2941ZM31.0485 25.3995L31.0836 25.341L31.1582 25.3422L31.1238 25.399L31.0485 25.3995ZM31.0293 25.4315L31.1038 25.4319L31.059 25.5061L30.9848 25.5057L31.0293 25.4315ZM30.9562 25.5056L30.9848 25.5057L30.3477 26.5675C30.5432 26.2213 30.7446 25.8699 30.9562 25.5056ZM30.8689 25.5051L30.9145 25.4308L30.9993 25.4313C30.9849 25.4561 30.9705 25.4809 30.9562 25.5056L30.8689 25.5051ZM30.8689 25.5051L30.7063 25.7708L29.0187 28.6044L29.0035 28.6288L28.9964 28.641V28.6471H28.9937C28.9937 28.6471 28.9768 28.6471 28.9821 28.6427L29.0151 28.5853L29.0811 28.4722L29.6101 27.5564L30.786 25.5047L30.8689 25.5051ZM30.9993 25.4313L31.0293 25.4315L31.0485 25.3995L31.0177 25.3996C31.0292 25.38 31.0407 25.3602 31.0522 25.3405L30.9463 25.4001L31.0177 25.3996C31.0116 25.4102 31.0054 25.4208 30.9993 25.4313ZM32.5765 28.1306C32.583 28.1307 32.5894 28.1308 32.5958 28.1309L32.6233 28.0801C32.6177 28.0799 32.6121 28.0796 32.6065 28.0794L32.5765 28.1306ZM32.3434 28.0687L32.314 28.1276C32.2295 28.1266 32.1444 28.1256 32.0595 28.1246C31.0148 28.1126 29.9899 28.1009 30.1292 28.0887C30.2487 28.0626 30.3236 28.0478 30.3878 28.0391H31.2851C31.6549 28.0445 32.0051 28.0556 32.3434 28.0687ZM32.707 27.9077C32.7102 27.9076 32.7134 27.9075 32.7166 27.9075L32.8324 27.6933L32.707 27.9077ZM33.1731 27.111L33.5529 27.8944C33.5772 27.8939 33.6015 27.8934 33.6258 27.8929L33.2331 27.0084L33.1731 27.111ZM33.7295 28.1266C33.7078 28.1259 33.686 28.1251 33.6643 28.1243L33.6736 28.1436C33.6949 28.1438 33.7161 28.1441 33.7374 28.1443L33.7295 28.1266ZM33.9387 28.1466C34.4483 28.1524 34.9588 28.1583 35.4701 28.1643C35.8626 28.1678 36.256 28.1719 36.6502 28.1765L37.1916 28.1826L37.37 28.1887C37.4052 28.1427 37.4376 28.0948 37.4672 28.0452L37.7348 27.6103L39.5419 24.6122L39.516 24.6592L40.9191 22.3109L42.3025 19.9808C42.3025 19.9871 42.2989 19.9941 42.2956 20.0003C42.2935 20.0044 42.2916 20.0081 42.2909 20.0112L42.3063 19.9851C42.3916 19.7693 42.6955 19.2464 43.0123 18.7011C43.2775 18.2447 43.5518 17.7728 43.7144 17.4524C43.0268 18.5735 42.4015 19.6007 41.7852 20.6253C41.1688 21.6498 40.5641 22.6666 39.9121 23.7764L42.5219 19.3337L39.4117 24.6157L39.4411 24.5618L37.519 27.826L37.387 28.0521L37.3584 28.1035L37.3432 28.1295C37.3407 28.1345 37.3353 28.1338 37.3295 28.1331C37.3251 28.1326 37.3204 28.132 37.3165 28.1339H36.7742L34.8199 28.1478C34.5193 28.1478 34.2252 28.1421 33.9317 28.1332L33.9387 28.1466ZM43.1709 18.5208L44.2906 16.6244L44.2938 16.6188L44.2915 16.6218L44.3122 16.5869L44.3141 16.5835L44.3144 16.5832L44.3427 16.5354L44.3825 16.4966L44.403 16.4704L44.3503 16.5224L44.3427 16.5354L44.3406 16.5374L44.3141 16.5835L44.2799 16.627C44.296 16.5994 44.3121 16.5719 44.3281 16.5443L44.2799 16.627C43.9117 17.2583 43.542 17.8896 43.1709 18.5208ZM33.7364 28.273L33.8349 28.4763C33.8016 28.4764 33.7682 28.4765 33.7349 28.4766L33.8291 28.534H33.8629L33.877 28.5632L33.9099 28.5832C33.9173 28.5832 33.9248 28.5833 33.9322 28.5833L33.9103 28.534H33.8629L33.8349 28.4763C33.8515 28.4763 33.8681 28.4762 33.8847 28.4762L33.8159 28.3212L33.7364 28.273ZM32.3445 28.5272C32.3567 28.5274 32.369 28.5275 32.3813 28.5277L32.4054 28.4829C32.3937 28.483 32.382 28.4831 32.3703 28.4832L32.3445 28.5272ZM32.3162 28.5755C32.32 28.5756 32.3239 28.5756 32.3277 28.5756L32.31 28.5862L32.3162 28.5755ZM32.8286 28.5779C32.8065 28.5778 32.7843 28.5777 32.7622 28.5776L32.6721 28.7514L32.7662 28.6953L32.723 28.7767L32.7874 28.7382L32.7542 28.801L33.127 28.5792C33.1028 28.5791 33.0786 28.579 33.0544 28.5789L33.1297 28.534L33.2059 28.5804C33.2365 28.5806 33.2672 28.5807 33.2978 28.5808L33.4318 28.6626L33.3914 28.5812C33.4078 28.5813 33.4242 28.5814 33.4406 28.5814L33.4172 28.534H33.4772L33.4486 28.4774C33.4288 28.4775 33.4091 28.4775 33.3893 28.4776L33.4172 28.534H33.368L33.3401 28.4777C33.27 28.4779 33.1998 28.4781 33.1297 28.4783C33.0611 28.4788 32.9926 28.4792 32.9243 28.4797L32.8963 28.5325C32.8818 28.5324 32.8673 28.5323 32.8528 28.5322L32.8806 28.4799C32.8579 28.4801 32.8352 28.4802 32.8126 28.4804L32.786 28.5317C32.8082 28.5319 32.8305 28.532 32.8528 28.5322L32.8286 28.5779ZM32.8722 28.5781L32.8963 28.5325C32.9432 28.5329 32.9902 28.5332 33.0373 28.5335L32.9619 28.5785C32.932 28.5783 32.9021 28.5782 32.8722 28.5781ZM32.9619 28.5785C32.9927 28.5786 33.0236 28.5787 33.0544 28.5789L32.7874 28.7382L32.8304 28.6569L32.9619 28.5785ZM32.8722 28.5781L32.8304 28.6569L32.7662 28.6953L32.8286 28.5779C32.8431 28.5779 32.8576 28.578 32.8722 28.5781ZM33.0373 28.5335C33.0681 28.5336 33.0989 28.5338 33.1297 28.534H33.221L33.2978 28.5808C33.329 28.581 33.3602 28.5811 33.3914 28.5812L33.368 28.534H33.221L33.1297 28.4783L33.0373 28.5335ZM33.1231 28.104L33.1686 28.1317L33.1549 28.104C33.1445 28.1036 33.1341 28.1032 33.1238 28.1027L33.1231 28.104ZM33.0825 28.1C33.0588 28.099 33.0351 28.0979 33.0113 28.0969L32.9912 28.1357C33.0154 28.136 33.0392 28.1365 33.0629 28.1368L33.0825 28.1ZM33.2059 28.1062L33.2219 28.1385C33.2404 28.1387 33.2588 28.1389 33.2773 28.1391L33.2618 28.1085C33.2432 28.1078 33.2246 28.107 33.2059 28.1062ZM33.2568 28.8654L33.2245 28.8C33.1998 28.7998 33.1751 28.7996 33.1504 28.7995L33.1598 28.819L33.1276 28.7993C33.1244 28.7993 33.1213 28.7993 33.1181 28.7993L33.1629 28.8254L33.1819 28.8649C33.1983 28.865 33.2147 28.8651 33.2311 28.8652L33.2671 28.8862L33.2659 28.8839L33.2354 28.8653C33.2426 28.8653 33.2497 28.8654 33.2568 28.8654ZM33.2354 28.8653L33.1598 28.819L33.1629 28.8254L33.2311 28.8652C33.2325 28.8653 33.234 28.8653 33.2354 28.8653ZM33.5009 28.8019L33.5043 28.8088L33.4928 28.8018C33.4955 28.8019 33.4982 28.8019 33.5009 28.8019ZM33.0852 28.8158L33.0091 28.8603C33.0095 28.8603 33.0099 28.8603 33.0104 28.8603L33.0851 28.8162L33.0852 28.8158ZM33.1615 28.672L33.1239 28.5975L33.1243 28.5966L33.1615 28.672ZM30.8629 25.1289L30.8906 25.0828H30.852L30.8253 25.0979L30.8071 25.1289H30.8629ZM30.8887 25.1289H30.8629L30.8497 25.1508L30.7714 25.195L30.8228 25.1955L30.802 25.2301L30.7669 25.2498L30.7904 25.2494L30.802 25.2301L30.863 25.1959L30.8991 25.1962L30.8679 25.2481L30.9244 25.2472L30.9379 25.2397L30.9625 25.1968L30.8991 25.1962L30.9178 25.1652L30.9825 25.1289H31.0014L31.0104 25.1132L30.9825 25.1289H30.9396L30.9658 25.0854L30.8887 25.1289ZM30.985 25.0005L30.9917 24.9767L30.9811 24.9519L30.9727 24.9436L30.9755 24.9388L30.9528 24.8855L30.9385 24.9098L30.8847 24.8566L30.9189 24.9365L30.9214 24.9389L30.9205 24.9403L30.9328 24.9688L30.9105 25.0471L30.9556 24.972L30.985 25.0005ZM30.9556 24.972L30.9727 24.9436L30.9385 24.9098L30.9214 24.9389L30.9556 24.972ZM31.0267 25.0828L31.0095 25.1132L31.0181 25.0828H31.0267ZM31.0267 25.0828L31.0421 25.0556L31.0702 25.0828H31.0267ZM31.0421 25.0556L31.0579 25.0277L31.0388 25.0089L31.0292 25.0432L31.0421 25.0556ZM31.0086 24.8838L31.0319 24.845L30.9963 24.8115L30.9857 24.8296L31.0086 24.8838ZM31.0478 24.9431L31.0848 24.9799L31.1095 24.9362L31.0968 24.9062L31.0799 24.8903L31.0478 24.9431ZM30.7758 25.401L30.8148 25.4008L30.8602 25.3753L30.8817 25.3378L30.8761 25.3377L30.7821 25.3906L30.7758 25.401ZM30.786 25.5047L30.7607 25.5046L30.7982 25.4835L30.786 25.5047ZM31.2676 25.1615L31.2451 25.1392L31.2655 25.0653L31.3036 25.1012C31.2916 25.1213 31.2796 25.1414 31.2676 25.1615ZM31.2676 25.1615L31.3066 25.2002L31.2447 25.1996C31.2523 25.1869 31.26 25.1742 31.2676 25.1615ZM31.2447 25.1996L31.2285 25.1994L31.2167 25.2423L31.2192 25.2423C31.2277 25.2281 31.2362 25.2138 31.2447 25.1996ZM31.1158 25.2313C31.1222 25.2204 31.1286 25.2095 31.135 25.1985L31.1237 25.1984L31.0405 25.2452L31.0927 25.2444L31.1158 25.2313ZM31.157 25.1289L31.1577 25.1263L31.1603 25.1289H31.157ZM31.1736 25.0681L31.1969 25.0913L31.2167 25.0193L31.1931 24.9969L31.1736 25.0681ZM31.2724 24.964L31.2413 24.8908C31.2479 24.8801 31.2545 24.8694 31.2611 24.8588L31.3078 24.9038C31.2959 24.9239 31.2841 24.944 31.2724 24.964ZM31.2057 24.766L31.1958 24.7835L31.1759 24.7366L31.2057 24.766ZM31.1464 24.7809L31.1283 24.8107L31.147 24.8549L31.1524 24.8604L31.1683 24.8323L31.1464 24.7809ZM31.1106 24.7138L31.0743 24.6789L31.0732 24.6808L31.0969 24.7367L31.1106 24.7138ZM33.1486 21.1532H33.2487L33.2957 21.0749H33.2845L33.1539 21.1441L33.1486 21.1532ZM33.303 21.0576L33.3514 20.9767L33.3088 20.8905L33.3069 20.8937L33.3012 21.0541L33.303 21.0576ZM37.9888 13.1149C37.9846 13.1225 37.9804 13.1301 37.9761 13.1377L37.9374 13.1386L37.9513 13.1149H37.9888ZM37.9888 13.1149C37.9993 13.0961 38.0098 13.0772 38.0203 13.0584L38.0196 13.0587L38.0585 12.9885L38.1478 13.1149H37.9888ZM38.0196 13.0587L38.0193 13.0592L38.0193 13.0589L38.0196 13.0587ZM38.0585 12.9885L38.0718 12.9646L38.0556 12.9426L38.0422 12.9654L38.0585 12.9885ZM40.2676 9.19751H40.3645C40.3805 9.17 40.3966 9.14246 40.4126 9.11489H40.4338L40.4259 9.0919C40.4262 9.09145 40.4265 9.09099 40.4267 9.09054C40.4432 9.06251 40.4597 9.03447 40.4762 9.0064L40.4445 8.91658L40.4267 9.09054L40.4257 9.09113L40.4259 9.0919C40.4215 9.09957 40.417 9.10723 40.4126 9.11489H40.3835L40.2831 9.17141L40.2676 9.19751ZM42.6517 5.1914H42.7222C42.7347 5.17054 42.7472 5.14966 42.7598 5.12878H42.7146L42.6758 5.15096L42.6517 5.1914ZM42.8065 5.05368C42.8182 5.03429 42.8298 5.01488 42.8415 4.99547L42.8087 4.92846L42.7907 4.95856L42.7885 5.01762L42.8065 5.05368ZM35.7463 16.978L35.6949 16.8792L35.6896 17.0732L35.7463 16.978ZM35.6251 17.1758L35.686 17.0741L35.5076 17.1758H35.6251ZM31.1433 24.6595L31.1317 24.6322L31.1492 24.6495L31.1433 24.6595ZM44.5358 16.6724L44.535 16.6731L44.5011 16.7314L44.5358 16.6724Z" fill="#EDEDED"/>
<path d="M40.7755 6.54039L42.1803 4.25554L42.5986 4.2625L41.927 5.30621L41.754 4.9444L43.1962 2.59951C42.7735 3.31097 42.3819 3.99113 41.9885 4.64344L41.8021 4.95482L41.9662 5.28795L42.5986 4.29989H42.1972L41.9885 4.6478C41.597 5.30098 41.2027 5.92895 40.7755 6.54039Z" fill="#EDEDED"/>
<path d="M42.3658 23.2511C42.7172 22.7501 43.0954 22.1752 43.495 21.5463L41.184 25.4307L41.1492 25.4942L39.1878 28.7984L39.1289 28.8958L39.1218 28.908C39.1218 28.908 39.1218 28.9184 39.1004 28.9167H38.9996C38.9839 28.9153 38.968 28.9153 38.9523 28.9167L38.9443 28.9436L38.9292 28.9975L38.8042 29.4324L38.7962 29.4594L38.7819 29.4829L38.7552 29.529L38.6999 29.6229L38.4805 29.9969C38.4805 30.0082 38.468 30.0012 38.4582 30.003H37.0578C36.4359 30.003 35.813 30.003 35.1892 30.003L35.1848 29.9969C35.744 29.9969 36.3443 29.9969 36.9686 29.9969C37.1979 29.9969 37.4298 29.9969 37.6635 29.9969C37.8124 29.9969 37.9623 29.9969 38.1095 29.9969H38.4662C38.4716 29.9969 38.4724 29.9969 38.4751 29.9908L38.4894 29.9673L38.5179 29.9186L38.7445 29.5342C38.7654 29.5031 38.7828 29.4698 38.7962 29.435L38.8292 29.3237L38.8944 29.1011L38.9274 28.9897L38.9434 28.934L38.9479 28.9201C38.9559 28.9192 38.964 28.9192 38.972 28.9201H39.0763C39.0915 28.9201 39.1182 28.9201 39.1138 28.9158L39.1289 28.8906L39.1592 28.8393L39.2814 28.6357C39.9317 27.5485 40.5828 26.457 41.1394 25.4959L41.1733 25.4324L41.1599 25.4594V25.4541L41.1661 25.4437L41.1778 25.4228L41.2009 25.382L41.2482 25.3011L41.3374 25.1402L41.5158 24.8279L41.8431 24.2426C42.0528 23.8634 42.2285 23.5311 42.3658 23.2511Z" fill="#EDEDED"/>
<path d="M50.5976 10.6117L52.0247 13.0018V13.007H52.0292L52.0221 12.9983L53.6213 15.6728L54.3884 16.994V16.9984L54.3822 16.9905C55.1724 18.3543 55.9475 19.7068 56.6834 21.0158V21.0219L57.2801 22.0873L56.6629 21.034L56.6584 21.0253L54.3215 17.0245L54.3376 17.0453L54.3277 17.0349L54.3215 17.0245L51.9837 13.0131L51.9962 13.0279L51.9891 13.021L51.9837 13.0131L50.5976 10.6117Z" fill="#EDEDED"/>
<path d="M46.269 16.7818L47.5846 14.6996L46.3171 16.8166C46.3805 16.6748 46.2931 16.7757 46.269 16.7818Z" fill="#EDEDED"/>
<path d="M41.2812 23.3102C41.382 23.1406 41.4819 22.9701 41.5809 22.8014L40.8531 24.1278L41.2812 23.3102Z" fill="#EDEDED"/>
<path d="M49.7057 11.2327C49.7057 11.2153 49.6976 11.2249 49.6923 11.2267C49.688 11.2306 49.6828 11.2336 49.6771 11.2354C49.676 11.2247 49.676 11.2139 49.6771 11.2032L49.686 11.1379C49.6993 11.1678 49.706 11.2001 49.7057 11.2327Z" fill="#EDEDED"/>
<path d="M53.6427 17.8716L54.8477 19.9321L53.4206 17.5533L53.599 17.7794L53.4991 17.6811L53.4233 17.5533L53.3671 17.4602L53.4304 17.5472L53.566 17.7394L53.6053 17.7716L53.4269 17.5472C53.5045 17.6517 53.5765 17.7599 53.6427 17.8716Z" fill="#EDEDED"/>
</g>
<defs>
<clipPath id="clip0_143_34">
<rect width="29" height="71" fill="white" transform="matrix(0 1 -1 0 71 0)"/>
</clipPath>
</defs>
</svg>
